<?xml version="1.0" encoding="utf-8"?>
<!-- Generator: Adobe Illustrator 24.0.0, SVG Export Plug-In . SVG Version: 6.00 Build 0)  -->
<svg version="1.1" id="Layer_1" xmlns="http://www.w3.org/2000/svg" xmlns:xlink="http://www.w3.org/1999/xlink" x="0px" y="0px"
	 viewBox="0 0 76 76" style="enable-background:new 0 0 76 76;" xml:space="preserve">
<style type="text/css">
	.st0{fill:#E4E4E4;}
	.st1{fill:#FFDFCC;}
	.st2{fill:#3F4A7A;}
	.st3{fill:#596080;}
	.st4{fill:#4D4D4D;}
	.st5{fill:#F2F2F2;}
	.st6{fill:#FAFAFA;}
	.st7{fill:#2F375B;}
	.st8{fill:#FFCFB3;}
	.st9{fill:#8B575B;}
	.st10{fill:url(#SVGID_1_);}
	.st11{fill:#DEC884;}
	.st12{fill:url(#SVGID_2_);}
	.st13{fill:#D98E54;}
	.st14{fill:#6F4729;}
	.st15{fill:#B3B3B3;}
	.st16{fill:url(#SVGID_3_);}
	.st17{fill:#E69659;}
	.st18{fill:#613E23;}
	.st19{fill:#333333;}
</style>
<circle class="st0" cx="38" cy="38" r="38"/>
<g>
	<g>
		<g>
			<path class="st1" d="M30.7,26.9c0,0,0.1,0.1,0.1,0.1c0,0,0.1,0,0.1,0c0.3,0,0.6-0.1,0.8-0.2c0.2-0.2,0.4-0.4,0.4-0.7
				c0,0,0-0.1,0-0.1c0,0,0-0.1-0.1-0.1c-0.3-0.4-0.6-0.9-0.9-1.3c-0.1,0.4-0.2,0.7-0.5,0.9c-0.3,0.1-0.8,0.2-0.6,0.6
				c0.1,0.1,0.2,0.2,0.2,0.3C30.4,26.5,30.6,26.7,30.7,26.9z"/>
			<path class="st2" d="M40.7,20.4c-0.2,0.2-0.4,0.4-0.5,0.7c-0.2,0.2-0.2,0.4-0.2,0.7c0,0.2-0.1,0.4-0.2,0.6
				c-0.1,0.3-0.2,0.6-0.2,0.9c0,0,0,0,0,0c-0.1,0.7-0.1,1.4-0.1,2.1c0,0.1,0,0.2,0,0.3c0,0,0,0,0,0c0,0.2,0,0.3,0,0.5
				c0.1,0.3,0.1,0.6,0,0.9c-0.1,0.3-0.2,0.5-0.4,0.8c0,0,0,0.1-0.1,0.1c-0.3,0.4-0.7,0.8-1.2,1.2c-0.4,0.3-0.9,0.7-1.3,0.9
				c-0.4,0.2-1.1,0.5-1.6,0.4c-0.5-0.1-1-0.5-1.5-0.8c-0.6-0.4-1.3-1-1.8-1.5c-0.3-0.3-0.6-0.5-0.8-0.8c-0.2-0.2-0.5-0.5-0.6-0.8
				c0-0.1-0.1-0.4,0.1-0.4c0.1,0,0.1,0.2,0.2,0.3c0.1,0.1,0.2,0.1,0.4,0.1c0,0,0,0,0.1,0c0.1,0,0.1-0.1,0.2-0.1
				c0.2-0.2,0.4-0.4,0.4-0.6c0.1-0.3,0.1-0.6-0.1-0.8c0,0,0.5,0.3,0.6,0.4c0.2,0.1,0.4,0.3,0.5,0.4c0.4,0.2,0.7,0.5,1.1,0.7
				c0.3,0.2,0.6,0.3,0.9,0.5c0.2,0.1,0.3,0.2,0.6,0.1c0.2-0.1,0.2-0.2,0.4-0.3c0.3-0.4,0.6-0.9,0.8-1.4c0.4-0.7,0.7-1.4,1.1-2.2
				c0.2-0.5,0.4-0.9,0.8-1.3c0.2-0.3,0.5-0.6,0.8-0.8C39.5,20.6,40.1,20.4,40.7,20.4z"/>
			<path class="st3" d="M39.5,23.4c0,0.8,0,1.5-0.2,2.3c0,0,0,0,0,0c-0.1,0.7-0.2,1.5-0.4,2.2c0,0,0,0.1-0.1,0.1
				c-0.3,0.4-0.7,0.8-1.2,1.2c-0.4,0.3-0.9,0.7-1.3,0.9c-0.4,0.2-1.1,0.5-1.6,0.4c-0.5-0.1-1-0.5-1.5-0.8c-0.6-0.4-1.3-1-1.8-1.5
				c-0.3-0.3-0.6-0.5-0.8-0.8c-0.2-0.2-0.5-0.5-0.6-0.8c0-0.1-0.1-0.4,0.1-0.4c0.1,0,0.1,0.2,0.2,0.3c0.1,0.1,0.2,0.1,0.4,0.1
				c0,0,0,0,0.1,0c0.6,0.6,1.2,1.1,1.7,1.7c0.4,0.4,0.8,0.8,1.2,1c0.5,0.3,1,0.5,1.5,0.4c0.8-0.1,1.4-0.7,1.9-1.2
				c0.3-0.4,0.6-0.8,0.8-1.2c0.2-0.5,0.2-1,0.2-1.5c0,0,0-0.1,0-0.1c0-1.1-0.1-2.2,0.2-3.2c0.1-0.3,0.1-0.6,0.3-0.8
				c0.3,0.1,0.5,0.5,0.6,0.7c0.1,0.3,0.1,0.7,0.1,1C39.5,23.3,39.5,23.4,39.5,23.4z"/>
			<path class="st4" d="M45.2,55.6c0,0.1,0,0.2-0.1,0.2c-0.1,0.1-0.2,0.2-0.3,0.3c-0.6,0.5-1.6,0.4-2.3,0.8
				c-0.3,0.2-0.6,0.5-0.8,0.8c-0.3,0.3-0.7,0.6-1.1,0.7c-0.1,0-0.2,0-0.3,0c-0.1,0-0.2,0-0.3,0c-0.1,0-0.3-0.1-0.4-0.2
				c-0.4-0.3-0.4-1-0.2-1.4c0.6-0.9,1.9-1.2,2.5-2.2c0,0,0.1-0.1,0.1-0.1c0,0,0-0.1,0.1-0.1c0-0.1,0.1-0.1,0.1-0.2
				c0.3-0.4,0.6-0.7,1.2-0.6c0.4,0,0.8,0.1,1.1,0.4c0.2,0.2,0.4,0.4,0.6,0.7C45.2,55,45.2,55.3,45.2,55.6z"/>
			<path class="st4" d="M45.2,55.6c0,0.1,0,0.2-0.1,0.2c-0.1,0.1-0.2,0.2-0.3,0.3c-0.6,0.5-1.6,0.4-2.3,0.8
				c-0.3,0.2-0.6,0.5-0.8,0.8c-0.3,0.3-0.7,0.6-1.1,0.7c-0.1,0-0.2,0-0.3,0c0.2-0.1,0.4-0.3,0.5-0.4c0.4-0.4,0.6-0.8,1-1.1
				c0.5-0.5,1.3-0.7,1.7-1.3c0.2-0.2,0.2-0.6,0.1-0.8c-0.2-0.2-0.6-0.1-0.9-0.1c-0.2,0-0.5-0.1-0.6-0.3c0-0.1,0.1-0.1,0.1-0.2
				c0.3-0.4,0.6-0.7,1.2-0.6c0.4,0,0.8,0.1,1.1,0.4c0.2,0.2,0.4,0.4,0.6,0.7C45.2,55,45.2,55.3,45.2,55.6z"/>
			<path class="st4" d="M47,56.9c-0.1,0.1-0.3,0.2-0.4,0.3c-0.2,0.2-0.3,0.4-0.4,0.6c-0.5,1-1.5,1.7-2.6,1.8c-0.1,0-0.3,0-0.4,0
				c-0.4,0-0.9-0.1-1.2-0.4c-0.2-0.2,0-0.7,0.1-1c0.4-0.6,0.9-1.1,1.4-1.7c0.2-0.2,0.4-0.4,0.6-0.7c0.1-0.1,0.1-0.2,0.2-0.3
				c0.4-0.6,0.7-1.4,1.6-1.2c0.2,0,0.4,0.1,0.5,0.2c0.1,0,0.1,0.1,0.2,0.1c0,0,0,0,0,0c0.4,0.1,0.5,0.7,0.6,1
				C47.4,56.3,47.4,56.7,47,56.9z"/>
			<path class="st4" d="M47,56.9c-0.1,0.1-0.3,0.2-0.4,0.3c-0.2,0.2-0.3,0.4-0.4,0.6c-0.5,1-1.5,1.7-2.6,1.8
				c0.7-0.6,1.4-1.3,1.9-2.1c0.1-0.2,0.2-0.4,0.3-0.6c0.1-0.2,0.2-0.4,0.1-0.6c-0.1-0.3-0.6-0.3-0.8-0.4c-0.2-0.1-0.4-0.1-0.6-0.2
				c0,0-0.1-0.1-0.1-0.1c0.4-0.6,0.7-1.4,1.6-1.2c0.2,0,0.4,0.1,0.5,0.2c0.1,0,0.1,0.1,0.2,0.1c0,0,0,0,0,0c0.4,0.1,0.5,0.7,0.6,1
				C47.4,56.3,47.4,56.7,47,56.9z"/>
			<path class="st2" d="M44.8,53.8C44.8,53.8,44.8,53.8,44.8,53.8C44.8,53.8,44.7,53.8,44.8,53.8c-0.3,0.3-0.6,0.5-0.9,0.6
				c-0.1,0-0.2,0.1-0.2,0.1c-0.4,0.1-0.9,0.1-1.2-0.2c0,0-0.1-0.1-0.1-0.1c0,0,0-0.1,0-0.1c-0.1-0.3-0.1-0.6-0.1-0.9
				c0-0.1,0-0.2-0.1-0.4c-0.1-0.4-0.1-0.9-0.2-1.3c-0.1-0.6-0.2-1.2-0.3-1.8c-0.1-0.7-0.2-1.4-0.3-2c-0.1-0.7-0.2-1.4-0.3-2
				c-0.1-0.6-0.6-3.6-0.6-3.8c-0.2-1-0.3-2-0.4-3c-0.1-1-0.1-1.9,0-2.9c0,0,0-0.1,0-0.1c0,0,0.1,0,0.1,0c0.3,0.1,0.5,0,0.9,0.1
				c0.6,0.2,1,0.6,1.3,1.1c0.3,0.5,0.5,1.1,0.6,1.7c0.3,1.3,0.5,2.6,0.7,4c0.1,0.7,0.1,1.3,0.2,2c0,0.3,0.1,0.7,0.1,1
				c0,0.2,0.1,0.7,0,0.9c0,0-0.1,0.1-0.1,0.1c0.1,0.1,0.2,0.3,0.2,0.4c0.2,0.3,0.3,0.6,0.4,1c0.1,0.2,0.1,0.4,0.1,0.6
				c0,0.2,0.1,0.5,0.1,0.7c0,0.5,0,1-0.1,1.5c0,0.3,0,0.5-0.1,0.8c0,0.2,0,0.4,0,0.6C44.6,52.8,44.7,53.3,44.8,53.8z"/>
			<path class="st3" d="M44.8,53.8C44.8,53.8,44.8,53.8,44.8,53.8C44.8,53.8,44.7,53.8,44.8,53.8c-0.3,0.3-0.6,0.5-0.9,0.6
				c-0.8-4.5-0.8-9.1-1.8-13.5c-0.1-0.4-0.2-0.8-0.5-1.1c-0.5-0.4-1.1-0.5-1.6-0.9c-0.1-1-0.1-1.9,0-2.9c0,0,0-0.1,0-0.1
				c0,0,0.1,0,0.1,0c0.3,0.1,0.5,0,0.9,0.1c0.6,0.2,1,0.6,1.3,1.1c0.3,0.5,0.5,1.1,0.6,1.7c0.3,1.3,0.5,2.6,0.7,4
				c0.1,0.7,0.1,1.3,0.2,2c0,0.3,0.1,0.7,0.1,1c0,0.2,0.1,0.7,0,0.9c0,0-0.1,0.1-0.1,0.1c0.1,0.1,0.2,0.3,0.2,0.4
				c0.2,0.3,0.3,0.6,0.4,1c0.1,0.2,0.1,0.4,0.1,0.6c0,0.2,0.1,0.5,0.1,0.7c0,0.5,0,1-0.1,1.5c0,0.3,0,0.5-0.1,0.8c0,0.2,0,0.4,0,0.6
				C44.6,52.8,44.7,53.3,44.8,53.8z"/>
			<path class="st2" d="M48.3,39.2c-0.1,1.8-0.7,12.3-0.8,13.6c-0.1,0.7-0.1,1.4-0.2,2.1c0,0.3,0,0.5-0.3,0.7
				c-0.1,0-0.1,0.1-0.2,0.1c-0.1,0.1-0.2,0.1-0.2,0.1C46.4,56,46.2,56,46,56c-0.4,0-0.9-0.1-1.2-0.3c-0.1-0.1-0.3-0.2-0.3-0.3
				c0-0.1,0-0.3,0-0.4c-0.1-1.4-0.3-2.7-0.4-4c-0.1-1-0.8-6.8-1.2-10.9c-0.2-1.8-0.4-3.3-0.4-3.9c0.1,0.5,0.6,1.1,1.1,1.2
				c0.8,0.1,1.7,0,2.5,0c0.4,0,0.9-0.1,1.3-0.2c0.2,0,0.8-0.5,1-0.4c0,0,0,0,0,0C48.5,37,48.3,38.9,48.3,39.2z"/>
			<path class="st3" d="M48.3,39.2c-0.1,1.8-0.7,12.3-0.8,13.6c-0.1,0.7-0.1,1.4-0.2,2.1c0,0.3,0,0.5-0.3,0.7
				c-0.1,0-0.1,0.1-0.2,0.1c-0.1-4.7,0.7-9.4,0.3-14.1c0-0.2,0-0.4-0.2-0.6c-0.2-0.3-0.7-0.3-1.1-0.3c-1.1,0-2.1-0.3-3.1-0.7
				c-0.2-1.8-0.4-3.3-0.4-3.9c0.1,0.5,0.6,1.1,1.1,1.2c0.8,0.1,1.7,0,2.5,0c0.4,0,0.9-0.1,1.3-0.2c0.2,0,0.8-0.5,1-0.4c0,0,0,0,0,0
				C48.5,37,48.3,38.9,48.3,39.2z"/>
			<path class="st5" d="M50.1,24.6L50.1,24.6c-0.1,0.5-0.2,1-0.3,1.5c0,0,0,0,0,0c-0.2,0.9-0.5,1.8-0.7,2.7
				c-0.1,0.4-0.2,0.7-0.2,1.1c-0.3,1.2-0.4,2.4-0.5,3.6c-0.1,1.6,0,3.2,0.1,4.8c0,0.1,0,0.1,0,0.2c0,0.1-0.1,0.1-0.2,0.2
				c-0.2,0.2-0.4,0.4-0.7,0.5c-0.3,0.2-0.7,0.3-1,0.3c-1.4,0.3-2.8,0.2-4.1-0.2c-0.7-0.2-1.4-0.5-2-0.9c-0.2-0.1-0.3-0.2-0.4-0.4
				C40.1,38,40,37.8,40,37.7c-0.1-0.5-0.2-1-0.1-1.5c0.1-0.5,0-1.1,0-1.7c0-1.2-0.1-2.4-0.3-3.6c-0.2-1.7-0.5-3.5-0.8-5.2
				c0-0.3-0.1-0.6-0.1-0.9c-0.1-0.6-0.2-1.3-0.2-1.9c0-0.5,0-1.2,0.4-1.6c0.2-0.2,0.4-0.2,0.6-0.3c0.6-0.2,1.3-0.4,1.9-0.5
				c0.3-0.1,0.7-0.2,1-0.2c0.4-0.1,0.8-0.3,1.2-0.4c0.2-0.1,0.4-0.2,0.6-0.2c0.1,0,0.3,0,0.4,0.1c0.1,0,0.2,0.1,0.2,0.1
				c0.3,0.1,0.5,0.2,0.8,0.4c0.1,0,0.2,0.1,0.3,0.2c0.2,0.1,0.4,0.2,0.6,0.3c0,0,0,0,0,0c0,0,0,0,0.1,0c0.3,0.2,0.5,0.4,0.8,0.6
				c0.4,0.3,2.1,1.8,2.3,2l0,0c0,0.1,0.1,0.2,0.1,0.2C50.3,23.9,50.2,24.2,50.1,24.6z"/>
			<path class="st6" d="M46.1,26.1c0.1,0,0.3,0.1,0.4,0.1c-0.1,0.5-0.2,0.9-0.2,1.4c0,0.3-0.1,0.5-0.1,0.8c0,0.2-0.1,0.3-0.3,0.5
				c-0.3,0.2-0.6,0.4-0.9,0.5c-0.3,0.1-0.7,0.1-1,0c-0.2-0.1-0.3-0.2-0.5-0.3c-0.2-0.1-0.4-0.3-0.5-0.4c-0.2-0.1,0-0.4,0-0.6
				c0-0.3,0.1-0.5,0.1-0.8c0.1-0.4,0.2-0.8,0.3-1.2c0-0.1,0.1-0.2,0.1-0.3c0-0.1,0-0.1,0.1-0.1c0.2,0,0.4,0.1,0.5,0.1
				C44.8,25.7,45.5,25.9,46.1,26.1z"/>
			<path class="st7" d="M50.4,24.4c0,0.2,0,0.5-0.1,0.7c-0.1,0.4-0.3,0.8-0.5,1.1c0,0-0.1,0.1-0.1,0.1c-0.1,0.2-0.2,0.4-0.4,0.5
				c-0.2,0.3-0.2,0.7-0.2,1c0,0.3-0.1,0.5-0.1,0.8c0,0.1,0,0.2,0,0.4c0,0.3-0.1,0.6-0.1,1c-0.1,1.3-0.1,2.6-0.2,3.9
				c0,0.1,0,0.1,0,0.2c0,1.7-0.1,3.3-0.2,5c0,0.1,0,0.3-0.1,0.4c0,0.1-0.1,0.1-0.2,0.1c-0.7,0.3-1.4,0.6-2.2,0.7
				c-0.6,0.1-1.2,0.1-1.9,0c-0.3,0-0.5-0.1-0.8-0.2c-0.2-0.1-0.4-0.2-0.6-0.3c-0.2-0.1-0.3-0.2-0.3-0.4c-0.1-2,0-4,0.2-6
				c0.1-1.2,0.2-2.5,0.3-3.8c0-0.1,0-0.1,0-0.2c0.3-2.3,0.7-4.5,1.8-6.5c0.3-0.6,0.6-1.2,0.8-1.8c0.1-0.3,0.2-0.6,0.2-0.9
				c0-0.1,0-0.1,0-0.2c0,0,0.1,0,0.1,0.1c0.2,0.2,0.4,0.3,0.6,0.4c0.1,0.1,0.2,0.1,0.3,0.2c0,0,0,0,0,0c0.3,0.2,0.5,0.4,0.8,0.6
				c0.4,0.3,2.1,1.8,2.3,2l0,0c0.1,0.2,0.3,0.3,0.4,0.5C50.4,24,50.4,24.1,50.4,24.4z"/>
			<path class="st3" d="M49,26.1c0,0.8,0,1.7,0,2.5c0,0.1,0,0.2,0,0.4c0,0.3-0.1,0.6-0.1,1c-0.1,1.3-0.1,2.6-0.2,3.9
				c0,0.1,0,0.1,0,0.2c0,1.7-0.1,3.3-0.2,5c0,0.1,0,0.3-0.1,0.4c0,0.1-0.1,0.1-0.2,0.1c-0.7,0.3-1.4,0.6-2.2,0.7
				c0-4.5-0.4-9,0.8-13.3c0.2-0.8,0.4-2.2,1.1-2.7C48.9,23.5,49,25.6,49,26.1z"/>
			<polygon class="st2" points="46.4,27.8 44,26.6 44.1,26 46.5,27.1 			"/>
			<path class="st3" d="M47.5,22.9C47.5,22.9,47.5,23,47.5,22.9c-0.1,0.2-0.3,0.4-0.4,0.5c-0.1,0.2-0.3,0.3-0.4,0.5
				c-0.3,0.3-0.5,0.6-0.7,1c-0.4,0.5-0.7,1-1.1,1.5c-0.4,0.6-0.8,1.2-1.2,1.8c0,0.1-0.1,0.1-0.1,0.2c0,0.1-0.1,0.1-0.1,0.2
				c0,0.1-0.1,0.1-0.1,0.2c-0.1,0.1-0.1,0.2-0.2,0.3c-0.1,0.2-0.1,0.3-0.2,0.5c0,0,0,0,0,0.1c0,0,0,0,0,0c0-0.1,0-0.1,0-0.2
				c0-0.2,0.1-0.3,0.1-0.5c0-0.2,0-0.3,0.1-0.5c0-0.1,0-0.2,0.1-0.2c0.1-0.2,0.2-0.4,0.2-0.7c0-0.1,0.1-0.2,0.1-0.3
				c0-0.1,0-0.2,0.1-0.3c0.2-0.9,0.5-1.8,0.8-2.7c0.4-1.1,0.9-2.2,1.2-3.4c0-0.2,0.1-0.4,0.1-0.6c0-0.1,0-0.1,0-0.2
				c0.2,0.2,0.4,0.3,0.6,0.4c0.1,0.1,0.2,0.1,0.3,0.2c0,0,0,0,0,0c0.1,0.1,0.1,0.2,0.2,0.3c0.1,0.2,0.2,0.4,0.2,0.6
				c0,0.1,0.1,0.3,0.2,0.4c-0.3-0.3-0.7-0.4-1.1-0.4c0.1,0,0.3,0.2,0.4,0.3c0.1,0.1,0.3,0.2,0.4,0.4c0.1,0.1,0.2,0.3,0.3,0.4
				C47.4,22.7,47.5,22.8,47.5,22.9z"/>
			<path class="st2" d="M47.2,22.8c0-0.1-0.1-0.2-0.2-0.3c-0.1-0.1-0.2-0.3-0.3-0.4c-0.1-0.1-0.2-0.3-0.4-0.4
				c-0.1-0.1-0.3-0.3-0.4-0.3c0.4,0,0.8,0.1,1.1,0.4c-0.1-0.1-0.1-0.3-0.2-0.4c-0.1-0.2-0.1-0.4-0.2-0.6c-0.2-0.4-0.5-0.8-0.8-1.1
				c0,0-0.2-0.3-0.2-0.3c-0.1,0.2-0.1,0.5-0.1,0.7c0,0.2-0.1,0.4-0.1,0.6c-0.3,1.2-0.8,2.3-1.2,3.4c-0.3,0.9-0.6,1.8-0.8,2.7
				c-0.2,0.9-0.4,1.8-0.3,2.7c0,0,0,0,0,0c0.2-0.5,0.3-1,0.5-1.5c0.3-0.6,0.7-1.2,1.1-1.8c0.3-0.5,0.7-1,1.1-1.5
				c0.2-0.3,0.5-0.6,0.7-1c0.1-0.2,0.3-0.3,0.4-0.5C46.9,23.2,47.1,23.1,47.2,22.8C47.2,22.9,47.2,22.8,47.2,22.8z"/>
			<path class="st3" d="M45.4,19.6c-0.1,0.3-0.2,0.5-0.4,0.8c-0.3,0.3-0.6,0.6-1,0.9c-0.4,0.2-0.8,0.4-1.2,0.4
				c0.1,0,0.2,0.1,0.2,0.1c0.1,0,0.1,0.1,0.1,0.2c0.1,0.1,0.1,0.2,0.2,0.3c0,0.1,0.1,0.2,0.1,0.4c0,0.1,0,0.1,0,0.2c0,0,0,0.2,0,0.2
				c0.7-0.4,1.3-0.9,1.8-1.5c0.2-0.2,0.4-0.5,0.6-0.8c0.2-0.4,0.2-0.9,0.1-1.3c-0.1-0.2-0.2-0.4-0.3-0.6
				C45.5,19.1,45.5,19.4,45.4,19.6z"/>
			<path class="st6" d="M43.4,21.9l-0.3-0.7l-0.4,0.1c0,0-1.8,6.1-2.1,11.2l-0.2,5.8l0.8,0.6l0.2-5.8C41.6,28,43.4,21.9,43.4,21.9z"
				/>
			<polygon class="st4" points="42.7,21.4 43.2,21.6 43.4,22.1 42.9,22.7 42.5,22.5 42.3,21.7 			"/>
			<polygon class="st4" points="42.5,22.5 41.9,24 40.7,33.7 41.1,34.7 41.6,34.1 42.9,24.6 42.9,22.7 			"/>
			<path class="st3" d="M42.7,21.6c-0.1,0.1-0.1,0.2-0.2,0.3c0,0.1-0.1,0.1-0.1,0.2c0,0,0,0.1-0.1,0.1c0,0.1,0,0.1,0,0.2
				c0,0,0,0.1,0,0.1c0,0-0.1,0-0.1-0.1c-0.1-0.3-0.3-0.5-0.3-0.8c-0.1-0.2-0.1-0.6,0-0.8c0.1-0.1,0.2-0.2,0.3-0.3
				c0.1-0.1,0.3-0.2,0.3-0.3c-0.1,0.3,0,0.6,0.1,0.9c0,0.1,0.1,0.2,0.1,0.2c0.1,0.1,0.1,0.1,0.2,0.1C42.8,21.4,42.7,21.5,42.7,21.6
				C42.7,21.6,42.7,21.6,42.7,21.6z"/>
			<path class="st7" d="M38.5,24.8c0-0.5-0.1-0.9-0.1-1.4c0-0.4-0.1-0.9,0-1.4c0,0,0-0.1,0-0.1c0.1-0.3,0.3-0.6,0.5-0.8
				c0.2-0.2,0.5-0.4,0.8-0.5c0.4-0.2,0.7-0.3,1.1-0.4c0.2,0,0.4-0.1,0.6-0.1c0.1,0,0.2,0,0.3-0.1c0,0,0.1-0.1,0.2,0c0,0,0,0.1,0,0.1
				c-0.1,0.2-0.2,0.3-0.3,0.4c-0.2,0.4-0.4,0.8-0.4,1.2c0,0.1,0,0.2-0.1,0.4c-0.3,1.4-0.6,2.8-0.7,4.2c-0.1,1.1-0.1,2.1-0.1,3.2
				c0,1.2,0.1,5.5,0.1,6.1c0,0.6,0,1.2,0,1.8c0,0.3,0,0.6,0,1c-0.5-0.2-1-0.7-1.1-1.2c0-0.2,0-0.3,0-0.5
				C39.3,35.2,38.6,25.7,38.5,24.8z"/>
			<path class="st2" d="M39.6,21.2c0.3-0.1,0.6-0.1,0.8,0c-0.3,0.2-0.6,0.4-0.8,0.6c0,0-0.1,0.1-0.1,0.1c0,0.1,0,0.2,0,0.2
				c0.3,2.4,0.8,4.8,0.8,7.2c0.1-1.3,0.3-2.5,0.4-3.8c0.2-1.3,0.3-2.5,0.5-3.7c0-0.3,0.1-0.7,0.2-0.9c0.1-0.2,0.2-0.4,0.3-0.6
				c0,0-0.1-0.2-0.2-0.2c-0.1-0.1-0.1-0.1-0.2-0.1c-0.2-0.1-0.3,0.1-0.5,0.2C40.4,20.4,40,20.8,39.6,21.2z"/>
			<path class="st1" d="M45.8,20.2c0,0.3-0.2,0.6-0.5,0.8c-0.3,0.3-0.6,0.5-1,0.6c-0.2,0.1-0.4,0.1-0.6,0.2c-0.2,0-0.3,0-0.4-0.2
				c-0.1-0.1-0.1-0.1-0.2-0.1c-0.1,0-0.2-0.1-0.2-0.1c-0.1,0-0.1,0-0.2,0c-0.1,0-0.2,0-0.3-0.1c-0.1-0.1,0-0.3,0-0.4
				c0-0.1-0.2-0.2-0.3-0.3c-0.3-0.1-0.7,0-0.7-0.5c0-0.2,0.1-0.3,0.2-0.4c0.3-0.3,0.8-0.5,1.2-0.8c0.3-0.2,0.6-0.5,0.9-0.8
				c0.3-0.3,0.5-0.8,0.8-1.1c0.2-0.2,0.3-0.4,0.4-0.6c0.1-0.1,0.1-0.2,0.2-0.3c0-0.1,0.1-0.2,0.1-0.3c0.1,0.5,0.1,1,0.2,1.6
				c0,0.6,0.1,1.2,0.3,1.7c0,0.1,0,0.1,0.1,0.2v0C45.8,19.7,45.8,19.9,45.8,20.2z"/>
			<path class="st8" d="M45.7,19.4L45.7,19.4c-0.1,0.3-0.3,0.6-0.6,0.9c-0.4,0.5-1,0.8-1.6,1.1c-0.1,0-0.3,0.1-0.4,0.1
				c-0.1,0-0.2-0.1-0.2-0.1c0.5-0.4,0.9-0.8,1.2-1.3c0.1-0.2,0.2-0.3,0.2-0.5c0.1-0.5-0.1-1-0.1-1.6c0-0.2,0.1-0.4,0.3-0.5
				c0.1-0.1,0.2-0.1,0.3-0.1c0.2,0,0.4,0,0.5,0.1c0,0.6,0.1,1.2,0.3,1.7C45.6,19.3,45.6,19.3,45.7,19.4z"/>
			<path class="st6" d="M45.4,19.3c-0.1,0.3-0.2,0.5-0.4,0.8c-0.3,0.3-0.6,0.6-1,0.9c-0.4,0.2-0.8,0.4-1.2,0.4
				c0.1,0,0.2,0.1,0.2,0.1c0.1,0,0.1,0.1,0.1,0.2c0.1,0.1,0.1,0.2,0.2,0.3c0,0.1,0.1,0.2,0.1,0.4c0,0.1,0,0.1,0,0.2c0,0,0,0.2,0,0.2
				c0.7-0.4,1.3-0.9,1.8-1.5c0.2-0.2,0.4-0.5,0.6-0.8c0.2-0.4,0.2-0.9,0.1-1.3c-0.1-0.2-0.2-0.4-0.3-0.6
				C45.5,18.8,45.5,19.1,45.4,19.3z"/>
			<path class="st6" d="M42.8,21.5c-0.2,0.1-0.3,0.3-0.4,0.4c0,0.1-0.1,0.5-0.2,0.3c-0.1-0.3-0.3-0.5-0.3-0.8
				c-0.1-0.2-0.1-0.6,0-0.8c0.1-0.1,0.2-0.2,0.3-0.3c0.1-0.1,0.3-0.2,0.3-0.3c-0.1,0.3,0,0.6,0.1,0.9c0.1,0.2,0.2,0.4,0.4,0.5
				C42.8,21.4,42.8,21.5,42.8,21.5z"/>
			<path class="st1" d="M45.5,17c0,0.1,0,0.3,0,0.4c-0.1,0.4-0.2,0.8-0.5,1.1c-0.1,0.1-0.2,0.1-0.3,0.1c0,0-0.2,0-0.2-0.1
				c-0.1,0.4-0.3,0.8-0.6,1.2c-0.2,0.3-0.5,0.5-0.8,0.7c-0.4,0.2-0.8,0.4-1.2,0.5c-0.1,0-0.1,0-0.2,0c-0.2,0-0.3,0-0.5-0.1
				c-0.2-0.1-0.3-0.3-0.3-0.5c0-0.1-0.1-0.2-0.1-0.4c-0.1-0.3-0.1-0.6-0.3-0.8c-0.1-0.1-0.2-0.1-0.2-0.2c-0.1-0.1,0-0.3,0-0.5
				c0.1-0.3,0.1-0.6,0.1-0.9c0-0.1,0-0.3-0.1-0.4C40.1,17,40,16.8,40,16.7c-0.1-0.2-0.1-0.4-0.1-0.6c0-0.4,0.1-0.8,0.2-1.2
				c0.1-0.3,0.2-0.6,0.4-0.8c0.2-0.1,0.4-0.2,0.6-0.2c0.2,0,0.5,0,0.7,0c0.3,0.1,0.5,0.2,0.7,0.4c0.4,0.3,0.8,0.6,1.2,0.9
				c0.1,0.1,0.1,0.1,0.2,0.1c0.2,0.2,0.4,0.3,0.7,0.5c0.1,0.1,0.2,0.1,0.3,0.2c0.1,0.2,0.2,0.4,0.3,0.5c0.1,0.1,0.1,0.1,0.2,0.2
				C45.4,16.8,45.5,16.9,45.5,17z"/>
			<path class="st8" d="M45.5,17c0,0.1,0,0.3,0,0.4c-0.1,0.4-0.2,0.8-0.5,1.1c-0.1,0.1-0.2,0.1-0.3,0.1c0,0-0.2,0-0.2-0.1
				c-0.1,0.4-0.3,0.8-0.6,1.2c-0.2,0.3-0.5,0.5-0.8,0.7c-0.4,0.2-0.8,0.4-1.2,0.5c0.2-0.1,0.3-0.3,0.5-0.4c0.3-0.4,0.6-0.8,0.6-1.3
				c0.1-0.6-0.1-1.3-0.3-1.9c-0.1-0.2-0.2-0.4-0.2-0.6c-0.1-0.4,0-0.8,0.1-1.1c0.1-0.2,0.4-0.3,0.6-0.4c0.2,0,0.4,0,0.5,0
				c0.1,0.1,0.1,0.1,0.2,0.1c0.2,0.2,0.4,0.3,0.7,0.5c0.1,0.1,0.2,0.1,0.3,0.2c0.1,0.2,0.2,0.4,0.3,0.5c0.1,0.1,0.1,0.1,0.2,0.2
				C45.4,16.8,45.5,16.9,45.5,17z"/>
			<g>
				<path class="st9" d="M46.5,15.2c0,0.3,0,0.6-0.1,1c-0.1,0.5-0.2,0.9-0.4,1.3c-0.1,0.1-0.4,1-0.6,1c-0.2-0.1-0.1-0.4,0-0.5
					c0-0.2,0-0.4,0-0.5c0-0.1,0-0.3-0.1-0.4c-0.1-0.1-0.2-0.2-0.4-0.2c-0.2,0-0.4,0.1-0.6,0.2c-0.2,0.2-0.3,0.5-0.4,0.8
					c0,0.1,0,0.2-0.1,0.2c-0.1,0-0.3-0.2-0.3-0.3c-0.2-0.2-0.4-0.5-0.6-0.8c-0.1-0.1-0.1-0.2-0.1-0.2c-0.2-0.4,0-0.8-0.2-1.1
					c0,0,0,0,0,0c-0.1-0.2-0.4-0.2-0.6-0.2c-0.2,0-0.4,0.1-0.6,0.1c-0.4,0.1-0.8,0.1-1.2,0c0,0,0,0,0,0c-0.4-0.1-0.4-0.5-0.3-0.9
					c0.2-0.6,0.5-1,1-1.4c0.9-0.7,2.1-1,3.2-0.7c0.5,0.1,0.9,0.4,1.3,0.7c0.1,0.1,0.2,0.1,0.2,0.2C46.1,13.8,46.5,14.4,46.5,15.2z"
					/>
			</g>
			<g>
				<path class="st9" d="M46.5,15.2c0,0.3,0,0.6-0.1,1c-0.1,0.5-0.2,0.9-0.4,1.3c-0.1,0.1-0.4,1-0.6,1c-0.2-0.1-0.1-0.4,0-0.5
					c0-0.2,0-0.4,0-0.5c0-0.1,0-0.3-0.1-0.4c-0.1-0.1-0.2-0.2-0.4-0.2c-0.2,0-0.4,0.1-0.6,0.2c-0.2,0.2-0.3,0.5-0.4,0.8
					c0,0.1,0,0.2-0.1,0.2c-0.1,0-0.3-0.2-0.3-0.3c-0.2-0.2-0.4-0.5-0.6-0.8c-0.1-0.1-0.1-0.2-0.1-0.2c-0.2-0.4,0-0.8-0.2-1.1
					c0.3,0,0.6,0,0.8-0.1c0,0,0.1,0,0.1,0c0.4-0.2,0.8-0.4,1.1-0.7c0.2-0.1,0.3-0.3,0.4-0.5c0.2-0.3,0.2-0.7,0.3-1.1
					c0.1,0.1,0.2,0.1,0.2,0.2C46.1,13.8,46.5,14.4,46.5,15.2z"/>
			</g>
			<path class="st1" d="M31.5,24.8c-0.1,0.2-0.2,0.3-0.3,0.5c0,0.1,0,0.1,0,0.2c0,0.1,0,0.2,0,0.3c0,0.1,0,0.1,0,0.2
				c0,0.1-0.1,0.1-0.1,0.2c-0.2,0.1-0.4,0.2-0.6,0.2c-0.1,0-0.1-0.1-0.2-0.1c-0.1-0.1-0.3-0.2-0.4-0.3c-0.3-0.2-0.5-0.4-0.8-0.5
				c-0.3-0.1-0.5-0.3-0.7-0.5c0,0-0.1,0-0.1-0.1c-0.1-0.1-0.3-0.3-0.3-0.5c-0.1-0.1,0-0.4,0.1-0.4c0.1,0,0.2,0,0.2,0
				c0-0.1-0.1-0.2-0.2-0.2c-0.1-0.1-0.2-0.3-0.4-0.5c0-0.1,0-0.2-0.1-0.3c0-0.1,0-0.2,0-0.3c0,0,0-0.1,0-0.1c0,0,0-0.1,0-0.1
				c-0.1-0.1,0-0.3,0.1-0.4c0.1-0.1,0.2-0.1,0.4,0c0-0.1,0.1-0.3,0.2-0.3c0.1,0,0.3,0.1,0.4,0.2c0.4,0.3,0.6,0.8,1,1.1
				c0.1,0.1,0.2,0.1,0.3,0.1c0-0.5-0.5-0.8-0.5-1.3c0-0.1,0.1-0.3,0.2-0.3h0c0.1,0,0.2,0.1,0.3,0.2c0.2,0.3,0.4,0.6,0.6,0.8
				c0.1,0.2,0.2,0.3,0.3,0.5c0.1,0.2,0.2,0.3,0.2,0.5c0.1,0.2,0.1,0.3,0.2,0.5C31.5,24.4,31.5,24.6,31.5,24.8z"/>
			<path class="st8" d="M31.5,24.8c-0.1,0.2-0.2,0.3-0.3,0.5c0,0.1,0,0.1,0,0.2c0,0.1,0,0.2,0,0.3c0,0.1,0,0.1,0,0.2
				c0,0.1-0.1,0.1-0.1,0.2c-0.2,0.1-0.4,0.2-0.6,0.2c-0.1,0-0.1-0.1-0.2-0.1c0.1,0,0.1,0,0.2,0c0.1-0.1,0.2-0.2,0.3-0.3
				c0.1-0.1,0.1-0.3,0.2-0.4c0-0.1,0-0.2,0.1-0.2c0.1-0.1,0.2-0.2,0.2-0.3c0.1-0.1,0.1-0.2,0.1-0.3c0-0.5-0.2-1-0.5-1.5
				c-0.3-0.4-0.6-0.9-0.9-1.3c0,0,0-0.1,0-0.1c0.1,0,0.2,0.1,0.3,0.2c0.2,0.3,0.4,0.6,0.6,0.8c0.1,0.2,0.2,0.3,0.3,0.5
				c0.1,0.2,0.2,0.3,0.2,0.5c0.1,0.2,0.1,0.3,0.2,0.5C31.5,24.4,31.5,24.6,31.5,24.8z"/>
		</g>
	</g>
	<g>
		<g>
			<linearGradient id="SVGID_1_" gradientUnits="userSpaceOnUse" x1="30.2739" y1="61.2297" x2="39.2147" y2="61.2297">
				<stop  offset="0" style="stop-color:#F2F2F2"/>
				<stop  offset="0.2482" style="stop-color:#EEEEEE"/>
				<stop  offset="0.5035" style="stop-color:#E2E2E2"/>
				<stop  offset="0.7612" style="stop-color:#CDCDCD"/>
				<stop  offset="1" style="stop-color:#B3B3B3"/>
			</linearGradient>
			<path class="st10" d="M39.2,60.2h-0.4c-0.2-0.3-0.5-0.6-0.9-0.8c-1.8-1-4.6-1-6.3,0c-0.4,0.2-0.7,0.5-0.9,0.8h-0.4v0.9
				c0,0.7,0.4,1.4,1.3,1.9c1.8,1,4.6,1,6.3,0c0.9-0.5,1.3-1.2,1.3-1.8h0V60.2z"/>
			<path class="st11" d="M37.9,62.2c-1.7,1-4.6,1-6.3,0c-1.8-1-1.8-2.6,0-3.7c1.7-1,4.6-1,6.3,0C39.6,59.5,39.7,61.2,37.9,62.2z"/>
		</g>
		<g>
			<linearGradient id="SVGID_2_" gradientUnits="userSpaceOnUse" x1="30.2739" y1="60.3582" x2="39.2147" y2="60.3582">
				<stop  offset="0" style="stop-color:#CC8650"/>
				<stop  offset="3.411728e-02" style="stop-color:#C5814D"/>
				<stop  offset="0.237" style="stop-color:#9E673D"/>
				<stop  offset="0.4381" style="stop-color:#805230"/>
				<stop  offset="0.6346" style="stop-color:#6A4427"/>
				<stop  offset="0.8244" style="stop-color:#5D3B22"/>
				<stop  offset="1" style="stop-color:#593820"/>
			</linearGradient>
			<path class="st12" d="M39.2,59.3h-0.4c-0.2-0.3-0.5-0.6-0.9-0.8c-1.8-1-4.6-1-6.3,0c-0.4,0.2-0.7,0.5-0.9,0.8h-0.4v0.9
				c0,0.7,0.4,1.4,1.3,1.9c1.8,1,4.6,1,6.3,0c0.9-0.5,1.3-1.2,1.3-1.8h0V59.3z"/>
			<path class="st13" d="M37.9,61.3c-1.7,1-4.6,1-6.3,0c-1.8-1-1.8-2.6,0-3.7c1.7-1,4.6-1,6.3,0C39.6,58.6,39.7,60.3,37.9,61.3z"/>
			<path class="st14" d="M38.3,61h-3.2v-4.1c1,0.1,2,0.3,2.7,0.7C39.5,58.6,39.6,60,38.3,61z"/>
		</g>
		<g>
			<polygon class="st5" points="35.2,61 32.3,59.3 31.3,38.8 36.2,41.6 			"/>
			<polygon class="st15" points="35.2,61 37.2,59.8 37.6,41.1 36.2,41.6 			"/>
		</g>
		<g>
			<linearGradient id="SVGID_3_" gradientUnits="userSpaceOnUse" x1="33.9703" y1="38.3542" x2="42.0595" y2="37.6227">
				<stop  offset="0" style="stop-color:#99653C"/>
				<stop  offset="6.300943e-02" style="stop-color:#9F693E"/>
				<stop  offset="0.1477" style="stop-color:#B07445"/>
				<stop  offset="0.2441" style="stop-color:#CC8650"/>
				<stop  offset="0.2699" style="stop-color:#C5814D"/>
				<stop  offset="0.4232" style="stop-color:#9E673D"/>
				<stop  offset="0.5753" style="stop-color:#805230"/>
				<stop  offset="0.7238" style="stop-color:#6A4427"/>
				<stop  offset="0.8673" style="stop-color:#5D3B22"/>
				<stop  offset="1" style="stop-color:#593820"/>
			</linearGradient>
			<path class="st16" d="M45.2,39.5l-8-4.6c-0.8-0.4-2.1-0.7-3.1-0.5l-7.6,1.3l0-0.3L25.5,35l0,1.2l0,0c0,0.2,0.1,0.4,0.5,0.6
				l8.4,4.9c0.8,0.4,2.1,0.7,3.1,0.5l7.9-1.3c0.5-0.1,0.8-0.3,0.8-0.5l0,0v-1.2L45.2,39.5z"/>
			<path class="st17" d="M34.4,40.5l-8.4-4.9c-0.8-0.4-0.6-0.9,0.3-1.1l7.9-1.3c0.9-0.2,2.3,0.1,3.1,0.5l8.4,4.9
				c0.8,0.4,0.6,0.9-0.3,1.1L37.4,41C36.5,41.1,35.1,40.9,34.4,40.5z"/>
			<rect x="28.9" y="35.6" class="st18" width="8.8" height="0.2"/>
			<path class="st18" d="M37.9,36c-0.6,0.1-1.2,0-1.3-0.3c-0.1-0.2,0.3-0.5,0.9-0.6c0.6-0.1,1.2,0,1.3,0.3
				C38.9,35.6,38.5,35.9,37.9,36z"/>
			<path class="st18" d="M37.3,39L37.3,39C37.3,39,37.3,39,37.3,39c0.1-0.2,0.2-0.4,0.4-0.5c-0.2-0.1-0.4,0-0.6,0
				c-0.3,0.1-0.6,0.1-0.9,0.1c-0.1,0-0.2-0.1-0.2-0.2c0,0,0-0.1,0.1-0.1c0.1-0.1,0.3-0.2,0.4-0.3c-0.2,0.1-0.5,0.1-0.7,0.1
				c-0.1,0-0.3-0.1-0.2-0.2c0,0,0-0.1,0.1-0.1c0.1-0.1,0.3-0.2,0.4-0.3c0.1,0,0.1-0.1,0.1-0.2c0,0,0,0-0.1-0.1
				c-0.1,0-0.3-0.1-0.4-0.1c-0.1,0-0.2-0.1-0.3-0.3c0-0.1,0.7-0.2,0.7-0.2c1.8-0.4,3.6-0.2,5.4-0.5l3.3,1.9l0.8,0.4
				c0.3,0.2,0.4,0.3,0.5,0.5H37.3z"/>
			<g>
				<path class="st1" d="M41.1,37.3c-0.8,0.5-1.7,0.6-2.5,1.1c-0.2,0.1-0.4,0.3-0.6,0.4c-0.1,0.1-0.3,0.1-0.4,0.2c0,0-0.1,0-0.2,0
					c-0.1,0-0.2,0-0.2-0.1c-0.1-0.1,0.1-0.3,0.2-0.4c0.2-0.2,0.3-0.3,0.5-0.4c0.1-0.1,0.1-0.1,0.2-0.2c0,0,0,0,0-0.1c0,0,0,0,0,0
					c-0.1,0-0.1,0-0.2,0c-0.5,0.1-1,0.4-1.6,0.5c-0.1,0-0.2,0.1-0.3,0c-0.1-0.1,0-0.1,0.1-0.2c0.3-0.3,0.6-0.4,1-0.6
					c0,0,0.1,0,0.1-0.1c-0.4,0-0.7,0.2-1.1,0.3c-0.1,0-0.2,0.1-0.3,0.1c-0.1,0-0.2,0-0.2-0.1c-0.1-0.1,0-0.2,0.1-0.3
					c0,0,0.1-0.1,0.2-0.1c0.1,0,0.1-0.1,0.2-0.1c0.1-0.1,0.2-0.1,0.3-0.2c0.4-0.2,0.7-0.3,1.1-0.4c-0.1,0-0.2,0-0.2,0
					c-0.3,0-0.7,0.1-1,0.2c-0.1,0-0.2,0-0.3,0c-0.1,0-0.1,0-0.2,0c0,0-0.1,0-0.1,0c-0.1-0.1,0-0.3,0.1-0.3c0.1-0.1,0.2-0.1,0.3-0.1
					c0.8-0.2,1.6-0.4,2.5-0.6c0.5-0.1,0.9-0.2,1.4-0.3c0.2,0,0.4-0.1,0.6-0.1c-0.1,0-0.1,0.2-0.1,0.3c0,0.1,0.1,0.2,0.1,0.3
					c0.1,0.2,0.1,0.4,0.2,0.6C40.7,37,40.9,37.2,41.1,37.3z"/>
				<path class="st8" d="M41.1,37.3c-0.8,0.5-1.7,0.6-2.5,1.1c-0.2,0.1-0.4,0.3-0.6,0.4c-0.1,0.1-0.3,0.1-0.4,0.2c0,0-0.1,0-0.2,0
					c0,0,0,0,0-0.1c0.2-0.2,0.4-0.4,0.7-0.5c0.1-0.1,0.3-0.2,0.4-0.2c0.4-0.2,0.9-0.3,1.3-0.5c0.1,0,0.3-0.1,0.3-0.2
					c0-0.1-0.1-0.2-0.1-0.4c-0.2-0.3-0.3-0.6-0.3-1c0-0.2,0-0.3,0.1-0.4c0.2,0,0.4-0.1,0.6-0.1c-0.1,0-0.1,0.2-0.1,0.3
					c0,0.1,0.1,0.2,0.1,0.3c0.1,0.2,0.1,0.4,0.2,0.6C40.7,37,40.9,37.2,41.1,37.3z"/>
				<path class="st2" d="M50.4,26.4c-0.2,1.7-0.5,3.5-0.9,5.2c-0.1,0.5-0.2,1-0.4,1.4c-0.2,0.4-0.4,0.7-0.8,1
					c-1.2,0.9-2.5,1.6-3.9,2.3c-1,0.5-2,0.9-3.1,1.3c-0.3,0.1-0.6,0.1-0.9-0.1c-0.1,0-0.1-0.1-0.2-0.2c-0.3-0.4-0.4-0.9-0.4-1.3
					c0-0.1,0-0.2,0.1-0.3c0.1-0.1,0.1-0.1,0.2-0.1c0.9-0.4,1.7-0.7,2.6-1.2c0.6-0.3,1.2-0.7,1.7-1.1c0.6-0.5,1.2-1,1.6-1.7
					c0.3-0.6,0.3-1.2,0.4-1.8c0.3-1.6,0.5-3.2,1-4.7c0.2-0.6,0.6-1.4,1.2-1.7c0.3-0.2,0.7-0.2,0.9-0.1c0.3,0.1,0.5,0.3,0.6,0.6
					c0.1,0.2,0.2,0.5,0.2,0.8C50.6,25.2,50.5,25.8,50.4,26.4z"/>
				<path class="st3" d="M50.4,26.4c-0.2,1.7-0.5,3.5-0.9,5.2c-0.1,0.5-0.2,1-0.4,1.4c-0.2,0.4-0.4,0.7-0.8,1
					c-1.2,0.9-2.5,1.6-3.9,2.3c-1,0.5-2,0.9-3.1,1.3c-0.3,0.1-0.6,0.1-0.9-0.1c2-0.9,3.9-1.9,5.8-2.9c0.5-0.3,1-0.6,1.4-1
					c1-1,1.4-2.4,1.7-3.8c0.4-1.7,0.7-3.5,0.5-5.3c0-0.5-0.1-0.9-0.2-1.4c0.3,0.1,0.5,0.3,0.6,0.6c0.1,0.2,0.2,0.5,0.2,0.8
					C50.6,25.2,50.5,25.8,50.4,26.4z"/>
			</g>
			<polygon class="st18" points="43.9,39.9 42.9,40 36.4,40 36.4,39.9 			"/>
		</g>
	</g>
	<path class="st19" d="M40.9,27.1c-0.2,0.5-0.6,0.7-1,0.6c-0.3-0.1-0.4-0.6-0.2-1.1c0.2-0.5,0.6-0.7,1-0.6
		C41,26.2,41.1,26.7,40.9,27.1z"/>
	<path class="st19" d="M34.5,31.8c-0.2,0.4-0.7,0.6-1,0.5c-0.3-0.2-0.4-0.7-0.1-1.1c0.2-0.4,0.7-0.6,1-0.5
		C34.7,30.8,34.8,31.3,34.5,31.8z"/>
	<g>
		<path class="st19" d="M36.5,40c0,0-0.1,0-0.1,0c0,0-0.1,0-0.1-0.1c0,0,0,0,0,0c0-0.1,0-0.2,0-0.3c0-0.2,0-0.3,0-0.5
			c0-0.2,0-0.3,0-0.5c0-0.2,0-0.3,0-0.5c0-0.2,0-0.3,0-0.5c0-0.1,0-0.2,0-0.3c0,0,0-0.1,0-0.1L40,27l0.2,0.1c0,0-3.7,10.2-3.7,10.2
			c0,0,0,0.1,0,0.1c0,0.1,0,0.2,0,0.3c0,0.2,0,0.3,0,0.5c0,0.2,0,0.4,0,0.5c0,0.2,0,0.4,0,0.5c0,0.2,0,0.3,0,0.5c0,0.1,0,0.1,0,0.2
			C36.5,39.9,36.5,40,36.5,40z"/>
	</g>
	<g>
		<path class="st19" d="M28.8,35.7C28.8,35.7,28.8,35.7,28.8,35.7c-0.1-0.1-0.1-0.1-0.1-0.1c0-0.1,0.1-0.1,0.2-0.1
			c0.1,0,0.2-0.1,0.3-0.1c0.1-0.1,0.3-0.1,0.4-0.2c0.1-0.1,0.3-0.1,0.4-0.2c0.2-0.1,0.3-0.1,0.5-0.2c0.2-0.1,0.3-0.1,0.5-0.2
			c0.1-0.1,0.3-0.1,0.4-0.2c0.1-0.1,0.2-0.1,0.3-0.2c0.1,0,0.2-0.1,0.2-0.1c0,0,0.1,0,0.1,0l1.6-2.3l0.2,0.1l-1.6,2.4c0,0,0,0,0,0
			c-0.1,0-0.1,0.1-0.2,0.1c-0.1,0.1-0.2,0.1-0.3,0.2c-0.1,0.1-0.3,0.1-0.4,0.2c-0.2,0.1-0.3,0.1-0.5,0.2c-0.2,0.1-0.3,0.2-0.5,0.2
			c-0.2,0.1-0.3,0.1-0.5,0.2c-0.1,0.1-0.3,0.1-0.4,0.2c-0.1,0-0.1,0-0.2,0.1C29,35.7,29,35.7,28.8,35.7
			C28.9,35.7,28.8,35.7,28.8,35.7z"/>
	</g>
</g>
</svg>
