<?xml version="1.0" encoding="utf-8"?>
<!-- Generator: Adobe Illustrator 24.0.0, SVG Export Plug-In . SVG Version: 6.00 Build 0)  -->
<svg version="1.1" id="Layer_1" xmlns="http://www.w3.org/2000/svg" xmlns:xlink="http://www.w3.org/1999/xlink" x="0px" y="0px"
	 viewBox="0 0 76 76" style="enable-background:new 0 0 76 76;" xml:space="preserve">
<style type="text/css">
	.st0{clip-path:url(#SVGID_2_);}
	.st1{fill:url(#SVGID_3_);}
	.st2{fill:url(#SVGID_4_);}
	.st3{fill:#343996;}
	.st4{fill:#2689FD;}
	.st5{fill:#FFFFFF;}
	.st6{fill:#1AE5FF;}
	.st7{fill:none;stroke:#16C5DC;stroke-miterlimit:10;}
	.st8{fill:#F1F1F1;}
	.st9{fill:#FDB913;}
	.st10{opacity:0.53;}
	.st11{opacity:0.53;fill:#FFFFFF;enable-background:new    ;}
	.st12{fill:#58AFFB;}
	.st13{fill:#FF4272;}
	.st14{fill:#212973;}
	.st15{fill:#1CE5FF;}
	.st16{opacity:0.53;fill:#1CE5FF;enable-background:new    ;}
	.st17{fill:#00A935;}
	.st18{fill:#61E041;}
	.st19{fill:#00CC41;}
</style>
<g>
	<defs>
		<rect id="SVGID_1_" x="19" y="15" width="38" height="47"/>
	</defs>
	<clipPath id="SVGID_2_">
		<use xlink:href="#SVGID_1_"  style="overflow:visible;"/>
	</clipPath>
	<g class="st0">
		
			<linearGradient id="SVGID_3_" gradientUnits="userSpaceOnUse" x1="42.5435" y1="14.6214" x2="35.151" y2="69.6866" gradientTransform="matrix(1 0 0 -1 0 78)">
			<stop  offset="0" style="stop-color:#1AE5FF"/>
			<stop  offset="0.26" style="stop-color:#64E8F9"/>
			<stop  offset="0.7" style="stop-color:#EAEEEE"/>
		</linearGradient>
		<path class="st1" d="M22,15.2C22,15.2,22,15.2,22,15.2c-0.1,0-0.1-0.1-0.1-0.1c0,0,0,0-0.1,0c0,0,0,0-0.1,0c0,0,0,0-0.1,0l0,0
			c0,0,0,0,0,0c0,0,0,0-0.1,0c0,0,0,0-0.1,0c0,0,0,0-0.1,0c0,0-0.1,0-0.1,0c0,0,0,0-0.1,0h0c0,0,0,0,0,0c0,0-0.1,0-0.1,0
			c0,0-0.1,0-0.1,0c0,0-0.1,0-0.1,0h0h0c0,0-0.1,0-0.1,0c-0.1,0-0.1,0-0.1,0.1l-1.2,0.7c0.1,0,0.2-0.1,0.3-0.1h0c0.1,0,0.2,0,0.3,0
			h0c0.1,0,0.2,0,0.3,0.1l0,0c0.1,0,0.2,0.1,0.4,0.2L54,35l1.2-0.7L22,15.2z"/>
		
			<linearGradient id="SVGID_4_" gradientUnits="userSpaceOnUse" x1="57.0009" y1="29.8846" x2="54.0293" y2="29.8846" gradientTransform="matrix(1 0 0 -1 0 78)">
			<stop  offset="0" style="stop-color:#5155D4"/>
			<stop  offset="1" style="stop-color:#45F7FF"/>
		</linearGradient>
		<path class="st2" d="M57,37.4C57,37.3,57,37.3,57,37.4c0-0.1,0-0.1,0-0.2c0,0,0-0.1,0-0.1c0,0,0-0.1,0-0.1c0,0,0,0,0,0
			c0,0,0,0,0,0c0,0,0-0.1,0-0.1c0,0,0-0.1,0-0.1c0,0,0-0.1,0-0.1s0-0.1,0-0.1c0,0,0,0,0-0.1l0,0l0,0c0,0,0-0.1,0-0.1
			c0,0,0-0.1,0-0.1c0,0,0-0.1,0-0.1c0,0,0-0.1,0-0.1c0,0,0,0,0-0.1c0,0,0,0,0,0c0,0,0,0,0,0c0,0,0-0.1,0-0.1c0,0,0-0.1,0-0.1
			c0,0,0-0.1-0.1-0.1c0,0,0-0.1-0.1-0.1l0,0c0,0,0,0,0,0c0-0.1-0.1-0.1-0.1-0.2c0-0.1-0.1-0.1-0.1-0.2c0,0-0.1-0.1-0.1-0.1
			c0,0,0-0.1-0.1-0.1c0,0,0-0.1-0.1-0.1c0,0,0-0.1-0.1-0.1l0,0l0,0c0,0,0,0-0.1-0.1c0,0-0.1-0.1-0.1-0.1c0,0-0.1,0-0.1-0.1
			c0,0-0.1,0-0.1-0.1c0,0,0,0,0,0l0,0c0,0,0,0,0,0c0,0-0.1,0-0.1-0.1c0,0-0.1,0-0.1-0.1c0,0-0.1,0-0.1-0.1c0,0-0.1,0-0.1,0l0,0
			L54,35c0.1,0.1,0.2,0.2,0.4,0.2l0,0c0.1,0.1,0.2,0.2,0.3,0.3l0,0c0.2,0.2,0.4,0.5,0.6,0.8c0,0,0,0,0,0c0.1,0.1,0.1,0.3,0.2,0.4
			c0,0,0,0,0,0c0.1,0.1,0.1,0.3,0.2,0.4l0,0c0,0.1,0.1,0.3,0.1,0.4c0,0,0,0,0,0c0,0.1,0,0.3,0,0.4l-0.1,22.6c0,0.1,0,0.3,0,0.4l0,0
			c0,0.1-0.1,0.2-0.1,0.3c0,0,0,0,0,0c0,0.1-0.1,0.1-0.1,0.2c0,0,0,0,0,0.1c-0.1,0.1-0.1,0.1-0.2,0.2l1.2-0.7c0.1,0,0.1-0.1,0.2-0.2
			c0,0,0,0,0-0.1c0,0,0-0.1,0.1-0.1c0,0,0-0.1,0.1-0.1l0,0l0,0c0,0,0-0.1,0-0.1s0-0.1,0-0.1c0,0,0-0.1,0-0.1c0,0,0,0,0,0
			c0,0,0,0,0,0c0,0,0,0,0,0c0,0,0-0.1,0-0.1c0,0,0-0.1,0-0.1c0,0,0-0.1,0-0.1s0-0.1,0-0.1v0L57,37.4C57,37.4,57,37.4,57,37.4z"/>
		<path class="st3" d="M54,35c1,0.6,1.8,2,1.8,3.1l-0.1,22.6c0,1.1-0.8,1.6-1.8,1L20.8,42.7c-1-0.6-1.8-2-1.8-3.1L19.1,17
			c0-1.1,0.8-1.6,1.8-1L54,35z"/>
		<path class="st4" d="M44.4,25.8c0.3,0.2,0.6,0.6,0.6,1l0,7.1c0,0.4-0.3,0.5-0.6,0.3l-10.4-6c-0.3-0.2-0.6-0.6-0.6-1l0-7.1
			c0-0.4,0.3-0.5,0.6-0.3L44.4,25.8z"/>
		<path class="st5" d="M24.7,22.6l0,0.3c0,0,0,0.1,0,0.1c0,0-0.1,0.1-0.1,0.1c0,0-0.1,0-0.1,0c0,0-0.1,0-0.1,0l-1.5-0.9
			c0,0-0.1-0.1-0.1-0.1c0,0,0-0.1,0-0.1v-0.3c0,0,0-0.1,0-0.1c0,0,0.1-0.1,0.1-0.1c0,0,0.1,0,0.1,0s0.1,0,0.1,0l1.5,0.9
			c0,0,0.1,0.1,0.1,0.1C24.7,22.5,24.7,22.6,24.7,22.6L24.7,22.6z"/>
		<path class="st6" d="M29.5,27l0,0.3c0,0,0,0.1,0,0.1c0,0-0.1,0.1-0.1,0.1c0,0-0.1,0-0.1,0c0,0-0.1,0-0.1,0l-6.4-3.7
			c0,0-0.1-0.1-0.1-0.1c0,0,0-0.1,0-0.1v-0.3c0,0,0-0.1,0-0.1c0,0,0.1-0.1,0.1-0.1c0,0,0.1,0,0.1,0c0,0,0.1,0,0.1,0l6.4,3.7
			c0,0,0.1,0.1,0.1,0.1C29.5,26.9,29.5,27,29.5,27L29.5,27z"/>
		<path class="st7" d="M21.8,37.6l2.5-1.3l1.7,2.7l1.8,1.9l1.8-1.1l3.9-1.3l1.8,2.5l1.8,1.5l1.6,2.4l2.2-4.6l2.7,1.3l1.4-1.1
			l2.9,0.8l4.3-0.4"/>
		<path class="st8" d="M36.7,23c-1-0.6-1.9-0.4-2.2,0.5c-0.5,1.1,0.1,2.9,1.2,4.2l0.3-0.6c-0.8-0.9-1.1-2.2-0.8-2.9
			c0.3-0.6,0.9-0.7,1.6-0.3c0.2,0.1,0.3,0.2,0.5,0.4l0.3-0.6C37.2,23.4,37,23.2,36.7,23L36.7,23z"/>
		<path class="st9" d="M37.5,23.6l-0.3,0.6c0,0,0.1,0.1,0.1,0.1c0.9,0.9,1.3,2.3,1,3.1c0,0,0,0.1,0,0.1c0,0,0,0,0,0
			C38,28,37.5,28.1,37,27.9c-0.1,0-0.2-0.1-0.3-0.1c0,0,0,0-0.1,0c0,0-0.1,0-0.1-0.1l0,0c-0.1,0-0.1-0.1-0.2-0.2l0,0
			c0,0-0.1,0-0.1-0.1c0,0,0,0,0,0c0,0-0.1-0.1-0.1-0.1c-0.1-0.1-0.1-0.1-0.2-0.2l-0.3,0.6c0.1,0.1,0.1,0.1,0.2,0.2
			c0,0,0.1,0.1,0.1,0.1c0,0,0,0,0,0c0,0,0.1,0.1,0.1,0.1c0,0,0,0,0,0c0.1,0.1,0.2,0.2,0.3,0.2c0,0,0,0,0,0c0,0,0.1,0.1,0.1,0.1l0,0
			c0,0,0.1,0,0.1,0.1c0.1,0,0.1,0.1,0.2,0.1c0.1,0,0.1,0,0.2,0.1c0.8,0.3,1.5,0.1,1.9-0.6c0.5-1.1-0.1-3.1-1.3-4.4
			C37.6,23.7,37.5,23.6,37.5,23.6z"/>
		<path class="st5" d="M41.2,27v0.2c0,0,0,0,0,0.1c0,0,0,0-0.1,0.1c0,0,0,0-0.1,0c0,0,0,0-0.1,0l-0.9-0.5c0,0,0,0-0.1-0.1
			c0,0,0,0,0-0.1v-0.2c0,0,0,0,0-0.1c0,0,0,0,0.1-0.1c0,0,0,0,0.1,0c0,0,0,0,0.1,0l0.9,0.5C41.2,26.9,41.2,26.9,41.2,27
			C41.2,26.9,41.2,26.9,41.2,27L41.2,27z"/>
		<path class="st5" d="M44,29.5v0.2c0,0,0,0,0,0.1c0,0,0,0-0.1,0.1c0,0,0,0-0.1,0c0,0,0,0-0.1,0l-3.7-2.1c0,0,0,0-0.1-0.1
			c0,0,0,0,0-0.1v-0.2c0,0,0,0,0-0.1c0,0,0,0,0.1-0.1c0,0,0,0,0.1,0s0,0,0.1,0l3.7,2.1C44,29.4,44,29.4,44,29.5
			C44,29.5,44,29.5,44,29.5L44,29.5z"/>
		<g class="st10">
			<path class="st11" d="M42.5,30.5v0.2c0,0,0,0,0,0.1c0,0,0,0-0.1,0.1c0,0,0,0-0.1,0c0,0,0,0-0.1,0l-2.2-1.2c0,0,0,0-0.1-0.1
				c0,0,0,0,0-0.1v-0.2c0,0,0,0,0-0.1c0,0,0,0,0.1-0.1c0,0,0,0,0.1,0s0,0,0.1,0l2.2,1.2C42.4,30.4,42.5,30.4,42.5,30.5
				C42.5,30.4,42.5,30.5,42.5,30.5L42.5,30.5z"/>
		</g>
		<path class="st12" d="M43.4,30.1v0.2c0,0,0,0,0,0.1c0,0,0,0-0.1,0.1c0,0,0,0-0.1,0s0,0-0.1,0l-3.1-1.8c0,0,0,0-0.1-0.1
			c0,0,0,0,0-0.1v-0.2c0,0,0,0,0-0.1c0,0,0,0,0.1-0.1c0,0,0,0,0.1,0c0,0,0,0,0.1,0l3.1,1.8C43.4,30,43.4,30,43.4,30.1
			C43.4,30.1,43.4,30.1,43.4,30.1z"/>
		<path class="st13" d="M52.2,38.4c-1.1-0.6-1.9-0.1-1.9,1.1c0,1.2,0.9,2.7,1.9,3.3c1.1,0.6,1.9,0.1,1.9-1.1
			C54.2,40.5,53.3,39,52.2,38.4z"/>
		<path class="st14" d="M52.2,39.6c-0.5-0.3-0.9-0.1-0.9,0.5c0,0.6,0.4,1.2,0.9,1.5c0.5,0.3,0.9,0.1,0.9-0.5
			C53.1,40.5,52.7,39.9,52.2,39.6z"/>
		<path class="st15" d="M24.8,26.8v0.3c0,0,0,0.1,0,0.1c0,0-0.1,0.1-0.1,0.1c0,0-0.1,0-0.1,0c0,0-0.1,0-0.1,0l-1.6-0.9
			c0,0-0.1-0.1-0.1-0.1c0,0,0-0.1,0-0.1v-0.3c0,0,0-0.1,0-0.1c0,0,0.1-0.1,0.1-0.1s0.1,0,0.1,0c0,0,0.1,0,0.1,0l1.6,0.9
			c0,0,0.1,0.1,0.1,0.1C24.8,26.7,24.8,26.7,24.8,26.8L24.8,26.8z"/>
		<path class="st15" d="M29.8,31.3v0.3c0,0,0,0.1,0,0.1c0,0-0.1,0.1-0.1,0.1c0,0-0.1,0-0.1,0c0,0-0.1,0-0.1,0l-6.6-3.8
			c0,0-0.1-0.1-0.1-0.1c0,0,0-0.1,0-0.1v-0.3c0,0,0-0.1,0-0.1c0,0,0.1-0.1,0.1-0.1c0,0,0.1,0,0.1,0c0,0,0.1,0,0.1,0l6.6,3.8
			c0,0,0.1,0.1,0.1,0.1C29.8,31.2,29.8,31.3,29.8,31.3z"/>
		<g class="st10">
			<path class="st16" d="M27.1,33.1v0.3c0,0,0,0.1,0,0.1c0,0-0.1,0.1-0.1,0.1c0,0-0.1,0-0.1,0c0,0-0.1,0-0.1,0l-3.9-2.2
				c0,0-0.1-0.1-0.1-0.1c0,0,0-0.1,0-0.1v-0.3c0,0,0-0.1,0-0.1c0,0,0.1-0.1,0.1-0.1s0.1,0,0.1,0c0,0,0.1,0,0.1,0l3.9,2.2
				c0,0,0.1,0.1,0.1,0.1C27.1,33,27.1,33,27.1,33.1L27.1,33.1z"/>
		</g>
		<path class="st15" d="M28.8,32.4v0.3c0,0,0,0.1,0,0.1c0,0-0.1,0.1-0.1,0.1c0,0-0.1,0-0.1,0c0,0-0.1,0-0.1,0l-5.5-3.2
			c0,0-0.1-0.1-0.1-0.1c0,0,0-0.1,0-0.1v-0.3c0,0,0-0.1,0-0.1c0,0,0.1-0.1,0.1-0.1c0,0,0.1,0,0.1,0s0.1,0,0.1,0l5.5,3.2
			c0,0,0.1,0.1,0.1,0.1C28.8,32.3,28.8,32.3,28.8,32.4L28.8,32.4z"/>
		<path class="st17" d="M47.5,55l0.9-0.5l0,6.1L47.5,61L47.5,55z"/>
		<path class="st18" d="M49.3,54.8L49.3,54.8C49.3,54.8,49.3,54.8,49.3,54.8L49.3,54.8C49.3,54.8,49.3,54.8,49.3,54.8L49.3,54.8
			L49.3,54.8L49.3,54.8C49.3,54.8,49.3,54.8,49.3,54.8C49.3,54.8,49.3,54.8,49.3,54.8C49.3,54.8,49.3,54.8,49.3,54.8
			C49.3,54.7,49.3,54.7,49.3,54.8C49.3,54.7,49.3,54.7,49.3,54.8C49.3,54.7,49.3,54.7,49.3,54.8L49.3,54.8c0-0.1,0-0.1,0-0.1
			c0,0,0,0,0,0c0,0,0,0,0,0c0,0,0,0,0,0l-2.8-5.5l0,0c0,0,0,0,0,0c0,0,0,0,0,0c0,0,0,0,0,0l0,0l0,0l0,0l0,0l0,0l0,0l0,0l0,0l0,0l0,0
			l0,0c0,0,0,0,0,0l0,0c0,0,0,0,0,0h0l0,0l0,0l0,0l0,0l0,0l0,0l0,0l0,0h0h0h0h0l0,0c0,0,0,0,0,0c0,0,0,0,0,0l-0.9,0.5c0,0,0,0,0.1,0
			l0,0c0,0,0,0,0.1,0c0,0,0,0,0.1,0.1c0,0,0,0.1,0.1,0.1l2.8,5.5c0,0,0,0.1,0,0.1l0,0c0,0,0,0,0,0.1l0,0c0,0,0,0,0,0.1v0
			c0,0,0,0,0,0l0.9-0.5C49.3,54.9,49.3,54.9,49.3,54.8L49.3,54.8L49.3,54.8C49.3,54.9,49.3,54.9,49.3,54.8
			C49.3,54.9,49.3,54.9,49.3,54.8C49.3,54.9,49.3,54.9,49.3,54.8L49.3,54.8C49.3,54.9,49.3,54.9,49.3,54.8
			C49.3,54.9,49.3,54.8,49.3,54.8C49.3,54.8,49.3,54.8,49.3,54.8C49.3,54.8,49.3,54.8,49.3,54.8L49.3,54.8L49.3,54.8L49.3,54.8z"/>
		<path class="st19" d="M45.5,49.5c0.1,0,0.1,0.1,0.1,0.1l2.8,5.5c0.1,0.2,0,0.3-0.1,0.2L47.5,55l0,6.1l-4.1-2.3l0-6.1l-0.7-0.4
			c-0.1-0.1-0.2-0.3-0.1-0.4l2.8-2.3C45.4,49.5,45.4,49.5,45.5,49.5z"/>
	</g>
</g>
</svg>
