<svg width="76" height="76" viewBox="0 0 76 76" fill="none" xmlns="http://www.w3.org/2000/svg">
<circle cx="38" cy="38" r="38" fill="#E4E4E4"/>
<g clip-path="url(#clip0)">
<path d="M22.0493 15.2454C22.0296 15.2344 22.0113 15.2238 21.9923 15.2134C21.9677 15.2002 21.9431 15.1875 21.9189 15.1755C21.8948 15.1636 21.8704 15.152 21.8462 15.1414C21.822 15.1308 21.7982 15.1206 21.7745 15.111C21.7507 15.1014 21.7261 15.0924 21.7021 15.0837L21.6883 15.0792C21.6866 15.0792 21.6848 15.0792 21.683 15.0775C21.6653 15.0716 21.6478 15.0657 21.6304 15.0604C21.6056 15.0529 21.5808 15.0463 21.5564 15.0408C21.5321 15.0353 21.5073 15.0292 21.4829 15.0245C21.4585 15.0198 21.4304 15.0151 21.4043 15.0117C21.3866 15.0094 21.3691 15.0078 21.3518 15.0063H21.3439C21.3376 15.0063 21.3309 15.0047 21.3243 15.0043C21.296 15.0023 21.2678 15.0014 21.2401 15.0016C21.2087 15.0016 21.1778 15.0031 21.1473 15.0059C21.1127 15.0091 21.0783 15.0141 21.0441 15.0208H21.0418H21.0386C20.9981 15.029 20.9581 15.0401 20.9191 15.0537C20.8688 15.0715 20.8203 15.0939 20.7742 15.1206L19.5874 15.8091C19.6695 15.762 19.7586 15.7284 19.8514 15.7096H19.855C19.9542 15.6902 20.0558 15.685 20.1565 15.6943H20.1648C20.2777 15.7052 20.3889 15.7293 20.4962 15.7661L20.5013 15.7677C20.6268 15.8113 20.7477 15.867 20.8625 15.9338L54.029 35.0378L55.2162 34.3496L22.0493 15.2454Z" fill="url(#paint0_linear)"/>
<path d="M57 37.3544C57 37.3256 56.9978 37.2968 56.996 37.2678C56.9942 37.2387 56.9919 37.2089 56.9889 37.1809C56.986 37.1528 56.9828 37.122 56.9793 37.0932C56.9758 37.0644 56.9712 37.0334 56.9663 37.0034C56.9664 37.0026 56.9664 37.0018 56.9663 37.001C56.9663 37.001 56.9663 36.9996 56.9663 36.999C56.9618 36.9704 56.9567 36.9418 56.9514 36.9131C56.9461 36.8845 56.9392 36.851 56.9317 36.8198C56.9243 36.7886 56.9178 36.7574 56.9099 36.7262C56.902 36.695 56.8938 36.6631 56.8849 36.6313C56.8781 36.607 56.8708 36.5824 56.8635 36.5579L56.8617 36.552L56.8572 36.5369C56.8478 36.5061 56.8379 36.4753 56.8275 36.4446C56.8173 36.4142 56.8079 36.3838 56.7959 36.3535C56.7839 36.3233 56.7743 36.2947 56.7629 36.2663C56.7515 36.2378 56.7401 36.2074 56.7279 36.1794C56.7188 36.1572 56.7082 36.1352 56.6996 36.1131C56.6996 36.1117 56.6984 36.1103 56.6976 36.109C56.6954 36.1041 56.6935 36.099 56.6913 36.0941C56.6782 36.065 56.6651 36.0361 56.652 36.0074C56.6372 35.976 56.6219 35.9448 56.6064 35.9136C56.5884 35.8779 56.57 35.8423 56.5511 35.8067C56.5315 35.7687 56.5089 35.731 56.4872 35.6935L56.4762 35.6739C56.4715 35.6661 56.4674 35.658 56.4629 35.6502C56.4207 35.5787 56.3764 35.5083 56.33 35.4391C56.2934 35.3845 56.2557 35.3308 56.2167 35.2781C56.1906 35.2428 56.1642 35.2081 56.1371 35.174C56.1146 35.1451 56.0916 35.1167 56.0681 35.0888C56.0447 35.061 56.0216 35.034 55.9989 35.008C55.9759 34.9819 55.9527 34.9562 55.9293 34.9309L55.9152 34.9162L55.9101 34.9109C55.8922 34.8913 55.8743 34.8729 55.8562 34.8545C55.8313 34.8292 55.8061 34.8044 55.7807 34.7801C55.7553 34.7558 55.7291 34.7314 55.7021 34.707C55.6759 34.6834 55.6492 34.6603 55.6234 34.6377C55.6101 34.6263 55.5965 34.6158 55.5829 34.6048L55.5739 34.5973C55.5639 34.5891 55.5542 34.5806 55.5436 34.5726C55.5174 34.5522 55.4912 34.5326 55.465 34.5138C55.4388 34.4949 55.4126 34.4765 55.3863 34.4584C55.3611 34.4412 55.3356 34.4244 55.3101 34.4082C55.2845 34.392 55.2592 34.3766 55.2342 34.3619L55.2165 34.3517L54.0293 35.04C54.1544 35.1129 54.2736 35.1954 54.3859 35.2867L54.3948 35.294C54.5106 35.3886 54.6201 35.4906 54.7225 35.5996L54.7276 35.6049C54.9427 35.8355 55.1309 36.0897 55.2886 36.3626C55.2924 36.3692 55.2959 36.3759 55.2999 36.3822C55.3773 36.5167 55.4475 36.6553 55.5102 36.7972C55.5102 36.799 55.5116 36.8005 55.5124 36.8023C55.5749 36.9451 55.629 37.0915 55.6743 37.2407L55.6761 37.2466C55.7199 37.3913 55.754 37.5387 55.7783 37.6879C55.7783 37.6879 55.7783 37.6891 55.7783 37.6895C55.8016 37.833 55.8134 37.9783 55.8135 38.1237L55.7493 60.7333C55.7495 60.8625 55.7373 60.9913 55.7129 61.1182L55.7105 61.1291C55.6891 61.2373 55.6552 61.3426 55.6095 61.443C55.6085 61.4449 55.6079 61.4471 55.6069 61.449C55.5705 61.5233 55.5254 61.593 55.4725 61.6566C55.4561 61.6772 55.4404 61.6991 55.4227 61.718C55.3653 61.7808 55.2991 61.8351 55.2261 61.879L56.4135 61.1905C56.4865 61.1466 56.5527 61.0924 56.6101 61.0295C56.628 61.0099 56.6433 60.9889 56.6599 60.9681C56.6827 60.9427 56.7042 60.9161 56.7243 60.8885C56.7494 60.8492 56.7719 60.8084 56.792 60.7663L56.7943 60.7604L56.7967 60.7549C56.8102 60.7259 56.8232 60.6961 56.8348 60.6647C56.8464 60.6333 56.8566 60.6029 56.8663 60.5705C56.8759 60.5382 56.8828 60.5105 56.8901 60.4791C56.893 60.4664 56.8952 60.453 56.8979 60.4399C56.8979 60.4364 56.8993 60.4326 56.9001 60.4289C56.9026 60.4166 56.9054 60.4044 56.9076 60.3917C56.9125 60.3638 56.9168 60.3354 56.9205 60.3061C56.9243 60.2769 56.927 60.2495 56.9294 60.2202C56.9317 60.191 56.9333 60.1643 56.9347 60.1357C56.9361 60.1071 56.9364 60.0786 56.9366 60.0492V60.0441L57.0009 37.4345C57.0011 37.4084 57.0007 37.3813 57 37.3544Z" fill="url(#paint1_linear)"/>
<path d="M54.0286 35.0388C55.0182 35.6088 55.8175 36.989 55.8136 38.1235L55.7493 60.7331C55.7462 61.8676 54.9421 62.3246 53.9527 61.7546L20.786 42.6506C19.7966 42.0804 18.9971 40.7002 19.001 39.5657L19.0653 16.9561C19.0686 15.8216 19.8725 15.3646 20.8621 15.9346L54.0286 35.0388Z" fill="#343996"/>
<path d="M44.4176 25.7681C44.7286 25.9473 44.9796 26.381 44.9786 26.7378L44.959 33.8445C44.959 34.2011 44.7054 34.3447 44.3944 34.1656L33.9693 28.1604C33.6583 27.9811 33.4072 27.5475 33.4082 27.1907L33.4279 20.0839C33.4279 19.7274 33.6815 19.5838 33.9925 19.7629L44.4176 25.7681Z" fill="#2689FD"/>
<path d="M24.6826 22.6151L24.6816 22.9378C24.6813 22.981 24.6696 23.0234 24.6478 23.0607C24.6259 23.098 24.5947 23.129 24.5571 23.1505C24.5195 23.172 24.4769 23.1832 24.4336 23.1832C24.3903 23.1832 24.3477 23.1718 24.3102 23.1502L22.7851 22.2676C22.7474 22.2458 22.7162 22.2144 22.6946 22.1768C22.6729 22.1391 22.6615 22.0964 22.6616 22.053V21.7303C22.6616 21.6869 22.6731 21.6442 22.6949 21.6066C22.7167 21.569 22.7481 21.5377 22.7859 21.5161C22.8236 21.4944 22.8664 21.4831 22.91 21.4832C22.9536 21.4833 22.9963 21.4949 23.034 21.5168L24.5591 22.3994C24.5969 22.4213 24.6283 22.4528 24.65 22.4907C24.6717 22.5285 24.6829 22.5715 24.6826 22.6151V22.6151Z" fill="white"/>
<path d="M29.507 26.9971L29.506 27.3205C29.5059 27.3638 29.4944 27.4064 29.4726 27.4438C29.4508 27.4813 29.4195 27.5124 29.3819 27.534C29.3443 27.5556 29.3017 27.5669 29.2582 27.5669C29.2148 27.5668 29.1722 27.5554 29.1346 27.5337L22.7801 23.8734C22.7423 23.8516 22.711 23.8203 22.6893 23.7826C22.6675 23.7449 22.6561 23.7021 22.6563 23.6586V23.3354C22.6564 23.2921 22.6679 23.2495 22.6896 23.2121C22.7114 23.1746 22.7427 23.1435 22.7803 23.1219C22.8179 23.1003 22.8606 23.089 22.904 23.089C22.9474 23.0891 22.99 23.1005 23.0276 23.1222L29.3831 26.7825C29.4209 26.8042 29.4522 26.8355 29.474 26.8732C29.4957 26.9109 29.5071 26.9536 29.507 26.9971V26.9971Z" fill="#1AE5FF"/>
<path d="M21.7588 37.562L24.2885 36.2747L25.9434 38.9416L27.7889 40.8147L29.6345 39.7034L33.5805 38.4334L35.3625 40.9734L37.1444 42.4339L38.7674 44.815L40.9631 40.2114L43.6362 41.4814L45.0363 40.3385L47.932 41.1003L52.2279 40.7194" stroke="#16C5DC" stroke-miterlimit="10"/>
<path d="M36.7174 23.0313C35.7569 22.4782 34.8478 22.6194 34.4723 23.4911C34.0023 24.581 34.5368 26.4171 35.6682 27.6869L35.9306 27.0773C35.1639 26.1851 34.8073 24.9241 35.1325 24.1703C35.3975 23.5566 36.0382 23.4566 36.7146 23.8465C36.8938 23.9516 37.0603 24.0766 37.2112 24.2192L37.4737 23.6096C37.2458 23.3872 36.9919 23.193 36.7174 23.0313V23.0313Z" fill="#F1F1F1"/>
<path d="M37.4742 23.6088L37.2122 24.218C37.2534 24.2564 37.2946 24.2968 37.3356 24.339C38.2067 25.2346 38.6331 26.6103 38.2865 27.4129C38.2737 27.4415 38.2606 27.4694 38.246 27.4965C38.2411 27.5063 38.2356 27.5161 38.2301 27.5251C37.9779 27.9676 37.4953 28.0757 36.9601 27.8617C36.8724 27.8265 36.7874 27.785 36.7058 27.7375C36.6828 27.7244 36.6599 27.7106 36.6369 27.6963C36.5951 27.6702 36.5632 27.6489 36.5318 27.6275L36.5182 27.6167C36.4494 27.5682 36.3806 27.5157 36.3124 27.457L36.2866 27.4345C36.2613 27.4124 36.236 27.3896 36.2107 27.3662C36.2013 27.3576 36.1921 27.3492 36.1826 27.3399C36.1496 27.3089 36.1168 27.2766 36.0843 27.2434C36.0315 27.1891 35.9809 27.1334 35.9314 27.0765L35.6689 27.6861C35.7191 27.7422 35.7696 27.7979 35.8217 27.8513C35.8685 27.8991 35.9154 27.9449 35.9625 27.9886C35.9756 28.0013 35.989 28.0141 36.0018 28.0262C36.0375 28.0596 36.0739 28.0917 36.1101 28.1243C36.1223 28.1351 36.1343 28.1457 36.1465 28.1559C36.2448 28.2385 36.3417 28.3146 36.4392 28.3826C36.4468 28.3883 36.4545 28.3934 36.4622 28.3985C36.5068 28.4299 36.5514 28.4587 36.5955 28.4866L36.6108 28.496C36.6411 28.5156 36.6715 28.5329 36.7016 28.5503C36.7738 28.5919 36.8453 28.6288 36.9179 28.6635C36.9717 28.6888 37.0225 28.7104 37.073 28.7308C37.8896 29.054 38.6207 28.85 38.9475 28.091C39.4389 26.9533 38.8338 25 37.5989 23.73C37.5568 23.6884 37.5155 23.648 37.4742 23.6088Z" fill="#FDB913"/>
<path d="M41.229 26.9694V27.156C41.2288 27.181 41.2221 27.2056 41.2095 27.2273C41.1969 27.2489 41.1788 27.2669 41.157 27.2794C41.1352 27.2919 41.1105 27.2984 41.0854 27.2984C41.0603 27.2983 41.0356 27.2917 41.0139 27.2791L40.1324 26.7692C40.1106 26.7566 40.0926 26.7385 40.08 26.7168C40.0675 26.695 40.061 26.6703 40.061 26.6452V26.4589C40.0611 26.4338 40.0678 26.4092 40.0804 26.3876C40.093 26.3659 40.1111 26.3479 40.1329 26.3354C40.1546 26.323 40.1793 26.3164 40.2044 26.3165C40.2295 26.3165 40.2542 26.3232 40.2759 26.3357L41.1574 26.8457C41.1792 26.8582 41.1973 26.8762 41.2098 26.898C41.2224 26.9197 41.229 26.9444 41.229 26.9694V26.9694Z" fill="white"/>
<path d="M44.0176 29.502V29.6889C44.0175 29.714 44.0109 29.7385 43.9983 29.7602C43.9856 29.7819 43.9676 29.7999 43.9458 29.8123C43.924 29.8248 43.8993 29.8314 43.8742 29.8313C43.8491 29.8313 43.8245 29.8246 43.8027 29.8121L40.1297 27.6965C40.1078 27.684 40.0897 27.6659 40.0771 27.6441C40.0646 27.6222 40.058 27.5975 40.0581 27.5724V27.3856C40.0582 27.3606 40.0649 27.336 40.0775 27.3143C40.0901 27.2927 40.1082 27.2747 40.1299 27.2622C40.1517 27.2497 40.1764 27.2432 40.2015 27.2432C40.2266 27.2432 40.2512 27.2498 40.273 27.2623L43.9456 29.3778C43.9675 29.3903 43.9857 29.4084 43.9984 29.4302C44.011 29.452 44.0176 29.4768 44.0176 29.502V29.502Z" fill="white"/>
<g opacity="0.53">
<path opacity="0.53" d="M42.4985 30.4864V30.6733C42.4985 30.6984 42.4918 30.723 42.4792 30.7447C42.4667 30.7663 42.4486 30.7843 42.4268 30.7968C42.405 30.8093 42.3804 30.8158 42.3553 30.8158C42.3302 30.8157 42.3055 30.8091 42.2838 30.7965L40.1253 29.5532C40.1035 29.5406 40.0854 29.5226 40.0728 29.5008C40.0602 29.479 40.0536 29.4543 40.0537 29.4292V29.2423C40.0538 29.2173 40.0604 29.1927 40.073 29.171C40.0856 29.1493 40.1036 29.1313 40.1254 29.1188C40.1471 29.1064 40.1718 29.0998 40.1969 29.0998C40.222 29.0998 40.2467 29.1064 40.2684 29.1189L42.4269 30.3625C42.4488 30.375 42.4669 30.393 42.4794 30.4148C42.492 30.4366 42.4986 30.4613 42.4985 30.4864V30.4864Z" fill="white"/>
</g>
<path d="M43.4453 30.1024V30.2891C43.4453 30.3141 43.4386 30.3387 43.4261 30.3604C43.4135 30.382 43.3954 30.4 43.3737 30.4125C43.3519 30.425 43.3273 30.4316 43.3022 30.4316C43.2771 30.4316 43.2524 30.425 43.2307 30.4125L40.1267 28.6248C40.1049 28.6123 40.0868 28.5942 40.0742 28.5724C40.0616 28.5506 40.0551 28.5258 40.0552 28.5007V28.314C40.0552 28.2889 40.0619 28.2643 40.0745 28.2427C40.087 28.221 40.1051 28.203 40.1269 28.1905C40.1486 28.178 40.1733 28.1714 40.1984 28.1714C40.2235 28.1715 40.2481 28.1781 40.2699 28.1906L43.3732 29.9782C43.3952 29.9907 43.4134 30.0088 43.4261 30.0306C43.4387 30.0524 43.4454 30.0771 43.4453 30.1024Z" fill="#58AFFB"/>
<path d="M52.2363 38.3748C51.1662 37.7585 50.2934 38.2549 50.29 39.4816C50.2867 40.7082 51.1539 42.2017 52.2239 42.8179C53.2939 43.4342 54.1621 42.9405 54.1654 41.7139C54.1687 40.4872 53.3067 38.9912 52.2363 38.3748Z" fill="#FF4272"/>
<path d="M52.2317 39.5922C51.7479 39.3135 51.3531 39.5379 51.3516 40.0926C51.35 40.6472 51.7422 41.3222 52.2258 41.6009C52.7094 41.8796 53.1022 41.6562 53.1038 41.1017C53.1053 40.5472 52.7153 39.8707 52.2317 39.5922Z" fill="#212973"/>
<path d="M24.8158 26.7929V27.1264C24.8158 27.1711 24.804 27.215 24.7816 27.2538C24.7591 27.2925 24.7269 27.3247 24.6881 27.3471C24.6493 27.3694 24.6052 27.3812 24.5604 27.3813C24.5155 27.3813 24.4715 27.3695 24.4326 27.3472L22.857 26.4399C22.8181 26.4175 22.7858 26.3853 22.7633 26.3466C22.7409 26.3078 22.729 26.2638 22.729 26.219V25.8856C22.729 25.8408 22.7408 25.7969 22.7632 25.7582C22.7856 25.7194 22.8178 25.6873 22.8566 25.6649C22.8954 25.6425 22.9394 25.6306 22.9842 25.6306C23.0291 25.6305 23.0731 25.6422 23.112 25.6645L24.6878 26.5703C24.727 26.5928 24.7594 26.6253 24.7819 26.6644C24.8044 26.7035 24.8161 26.7478 24.8158 26.7929V26.7929Z" fill="#1CE5FF"/>
<path d="M29.8063 31.2979V31.6313C29.8064 31.676 29.7947 31.72 29.7724 31.7588C29.7501 31.7976 29.718 31.8298 29.6793 31.8523C29.6405 31.8748 29.5966 31.8867 29.5517 31.8869C29.5069 31.8871 29.4628 31.8755 29.4239 31.8533L22.8579 28.0976C22.8189 28.0753 22.7865 28.0432 22.764 28.0044C22.7414 27.9656 22.7295 27.9216 22.7295 27.8768V27.5433C22.7295 27.4987 22.7413 27.4548 22.7636 27.4161C22.786 27.3773 22.8181 27.3452 22.8569 27.3228C22.8956 27.3004 22.9396 27.2885 22.9844 27.2884C23.0292 27.2883 23.0732 27.2999 23.1121 27.3221L29.6781 31.0778C29.7169 31.1 29.7492 31.1321 29.7717 31.1707C29.7942 31.2093 29.8061 31.2532 29.8063 31.2979Z" fill="#1CE5FF"/>
<g opacity="0.53">
<path opacity="0.53" d="M27.0997 33.0629V33.3963C27.0999 33.4411 27.0882 33.4851 27.066 33.5239C27.0437 33.5627 27.0116 33.595 26.9728 33.6175C26.9341 33.64 26.8901 33.652 26.8452 33.6522C26.8004 33.6524 26.7563 33.6408 26.7174 33.6186L22.8584 31.4114C22.8194 31.3891 22.787 31.3569 22.7644 31.3181C22.7419 31.2793 22.73 31.2352 22.73 31.1904V30.8569C22.73 30.8123 22.7418 30.7684 22.7641 30.7297C22.7865 30.691 22.8186 30.6589 22.8573 30.6365C22.896 30.6141 22.94 30.6022 22.9847 30.6021C23.0295 30.6019 23.0735 30.6135 23.1123 30.6357L26.9714 32.8428C27.0102 32.8651 27.0425 32.8971 27.0651 32.9357C27.0876 32.9744 27.0996 33.0182 27.0997 33.0629V33.0629Z" fill="#1CE5FF"/>
</g>
<path d="M28.7884 32.3723V32.7057C28.7883 32.7504 28.7765 32.7943 28.7541 32.833C28.7318 32.8717 28.6996 32.9038 28.6609 32.9262C28.6221 32.9486 28.5782 32.9604 28.5334 32.9605C28.4886 32.9606 28.4446 32.949 28.4058 32.9268L22.8579 29.7546C22.8189 29.7323 22.7865 29.7001 22.7639 29.6613C22.7414 29.6225 22.7295 29.5784 22.7295 29.5336V29.2001C22.7295 29.1555 22.7413 29.1116 22.7636 29.0729C22.786 29.0341 22.8181 29.002 22.8569 28.9796C22.8956 28.9572 22.9396 28.9453 22.9844 28.9452C23.0292 28.9451 23.0732 28.9567 23.1121 28.9789L28.6602 32.152C28.699 32.1743 28.7313 32.2064 28.7538 32.2451C28.7763 32.2837 28.7882 32.3276 28.7884 32.3723V32.3723Z" fill="#1CE5FF"/>
<path d="M47.4714 54.9815L48.3667 54.4626L48.3496 60.5266L47.4541 61.0458L47.4714 54.9815Z" fill="#00A935"/>
<path d="M49.2992 54.8195V54.8125C49.2992 54.8099 49.2992 54.8076 49.2992 54.805V54.7976C49.2992 54.7952 49.2992 54.7928 49.2992 54.7903L49.298 54.7826L49.2968 54.775L49.295 54.767C49.2951 54.7664 49.2951 54.7658 49.295 54.7652C49.295 54.7632 49.295 54.7613 49.2937 54.7595C49.2923 54.7577 49.2923 54.754 49.2915 54.7515C49.2909 54.7487 49.2901 54.7459 49.2891 54.7432C49.2891 54.7407 49.2876 54.7379 49.2866 54.7352C49.2856 54.7324 49.2848 54.7301 49.2838 54.7275L49.2809 54.7197C49.2809 54.7171 49.2789 54.7144 49.2777 54.7118C49.2766 54.7093 49.2756 54.7065 49.2744 54.704C49.2732 54.7014 49.272 54.6985 49.2707 54.696C49.2693 54.6934 49.2681 54.6905 49.2667 54.6879L46.4799 49.1523L46.4762 49.1454C46.4738 49.1409 46.4712 49.1364 46.4687 49.1321C46.4644 49.1246 46.4598 49.1173 46.4551 49.1103C46.4522 49.1062 46.4492 49.1019 46.4461 49.0977L46.4396 49.0891L46.4335 49.0817L46.4276 49.0748L46.4243 49.0711L46.4215 49.0683L46.4152 49.0616L46.4085 49.055L46.4014 49.0485L46.3944 49.0422L46.3873 49.0365L46.3802 49.0312C46.3781 49.0295 46.3757 49.0279 46.3733 49.0263L46.3667 49.022C46.3645 49.0205 46.3623 49.0191 46.36 49.0179H46.3586L46.3535 49.0152L46.347 49.0118L46.3407 49.0087L46.3342 49.0061L46.3279 49.0038L46.3214 49.0016L46.3149 48.9999L46.3083 48.9983H46.3016H46.2988H46.2947H46.2794L46.2703 48.9997C46.2667 49.0004 46.2631 49.0014 46.2595 49.0026C46.2549 49.0042 46.2505 49.0062 46.2463 49.0087L45.3511 49.5277C45.367 49.5188 45.3853 49.5154 45.4034 49.5179V49.5179C45.4243 49.5207 45.4443 49.5279 45.4623 49.5389C45.487 49.5533 45.5092 49.5715 45.528 49.593C45.55 49.6174 45.5686 49.6447 45.5834 49.674L48.3705 55.2096C48.383 55.2346 48.3925 55.2609 48.3988 55.2881V55.2881C48.404 55.3102 48.406 55.3331 48.4045 55.3558V55.3558C48.4035 55.3741 48.3988 55.392 48.3905 55.4083V55.4095C48.3835 55.4234 48.3726 55.435 48.3593 55.443L49.2545 54.9241C49.2655 54.9175 49.2748 54.9085 49.2817 54.8978L49.2858 54.8903V54.8893C49.2862 54.8884 49.2868 54.8875 49.2874 54.8866C49.2887 54.8835 49.2901 54.8803 49.2913 54.877C49.2925 54.8737 49.2933 54.8715 49.2941 54.8687L49.2964 54.8603C49.2964 54.858 49.2964 54.8554 49.2978 54.8529C49.2984 54.8503 49.2988 54.8477 49.299 54.845C49.299 54.8427 49.299 54.8403 49.299 54.8378C49.2989 54.8374 49.2989 54.837 49.299 54.8366V54.8366V54.8307L49.2992 54.8195Z" fill="#61E041"/>
<path d="M45.461 49.5351C45.5135 49.568 45.5556 49.615 45.5825 49.6706L48.3695 55.2063C48.4519 55.3711 48.3784 55.5038 48.247 55.4281L47.4717 54.9815L47.4544 61.0458L43.3831 58.7005L43.4002 52.6363L42.651 52.2048C42.5179 52.1281 42.4453 51.9106 42.5301 51.8427L45.3393 49.5308C45.371 49.5059 45.4162 49.509 45.461 49.5351Z" fill="#00CC41"/>
</g>
<defs>
<linearGradient id="paint0_linear" x1="42.5665" y1="63.3755" x2="35.174" y2="8.31029" gradientUnits="userSpaceOnUse">
<stop stop-color="#1AE5FF"/>
<stop offset="0.26" stop-color="#64E8F9"/>
<stop offset="0.7" stop-color="#EAEEEE"/>
</linearGradient>
<linearGradient id="paint1_linear" x1="57.0011" y1="48.1149" x2="54.0287" y2="48.1149" gradientUnits="userSpaceOnUse">
<stop stop-color="#5155D4"/>
<stop offset="1" stop-color="#45F7FF"/>
</linearGradient>
<clipPath id="clip0">
<rect width="38" height="47" fill="white" transform="translate(19.001 15)"/>
</clipPath>
</defs>
</svg>
