<svg width="76" height="76" viewBox="0 0 76 76" fill="none" xmlns="http://www.w3.org/2000/svg">
<circle cx="38" cy="38" r="38" fill="#E4E4E4"/>
<path d="M40.5502 16.8874C38.0002 15.4274 36.5402 14.6574 33.7202 15.1474C31.4289 15.7917 29.1838 16.5902 27.0002 17.5374C27.0002 17.5374 25.2402 24.4174 25.2402 28.3574C25.2402 35.2774 34.7402 60.2774 34.7402 60.2774L40.7402 56.8674C40.7402 56.8674 53.2902 47.0674 53.2902 38.9974C53.2902 30.9274 47.5902 20.9974 40.5502 16.8874ZM40.5502 40.4374C38.3934 39.0272 36.5988 37.1292 35.3115 34.8968C34.0242 32.6645 33.2804 30.1605 33.1402 27.5874C33.1402 22.8674 35.8402 21.5874 38.7802 23.5274C42.6902 26.1874 46.3302 32.0274 46.3302 36.7474C46.3302 41.4674 44.6502 42.7974 40.5502 40.4374Z" fill="#9F332D"/>
<path d="M34.74 18.9974C27.7 14.9174 22 18.2174 22 26.3374C22 34.4574 34.74 60.2774 34.74 60.2774C34.74 60.2774 47.48 49.1674 47.48 41.0474C47.48 32.9274 41.77 23.0474 34.74 18.9974ZM34.74 42.5474C32.5772 41.1403 30.7777 39.2419 29.4882 37.007C28.1987 34.7721 27.4558 32.264 27.32 29.6874C27.32 24.9574 30.64 23.0474 34.74 25.4074C36.8961 26.816 38.6903 28.7123 39.9776 30.9429C41.2649 33.1736 42.0091 35.6758 42.15 38.2474C42.15 42.9974 38.83 44.8974 34.74 42.5274V42.5474Z" fill="#D85342"/>
</svg>
