<?xml version="1.0" encoding="utf-8"?>
<!-- Generator: Adobe Illustrator 24.0.0, SVG Export Plug-In . SVG Version: 6.00 Build 0)  -->
<svg version="1.1" id="Layer_1" xmlns="http://www.w3.org/2000/svg" xmlns:xlink="http://www.w3.org/1999/xlink" x="0px" y="0px"
	 viewBox="0 0 76 76" style="enable-background:new 0 0 76 76;" xml:space="preserve">
<style type="text/css">
	.st0{fill:#9F332D;}
	.st1{fill:#D85342;}
</style>
<path class="st0" d="M40.6,16.9c-2.6-1.5-4-2.2-6.8-1.7c-2.3,0.6-4.5,1.4-6.7,2.4c0,0-1.8,6.9-1.8,10.8c0,6.9,9.5,31.9,9.5,31.9
	l6-3.4c0,0,12.5-9.8,12.5-17.9S47.6,21,40.6,16.9z M40.6,40.4c-2.2-1.4-4-3.3-5.2-5.5c-1.3-2.2-2-4.7-2.2-7.3c0-4.7,2.7-6,5.6-4.1
	c3.9,2.7,7.5,8.5,7.5,13.2S44.7,42.8,40.6,40.4z"/>
<path class="st1" d="M34.7,19c-7-4.1-12.7-0.8-12.7,7.3s12.7,33.9,12.7,33.9S47.5,49.2,47.5,41S41.8,23,34.7,19z M34.7,42.5
	c-2.2-1.4-4-3.3-5.3-5.5c-1.3-2.2-2-4.7-2.2-7.3c0-4.7,3.3-6.6,7.4-4.3c2.2,1.4,4,3.3,5.2,5.5c1.3,2.2,2,4.7,2.2,7.3
	C42.2,43,38.8,44.9,34.7,42.5L34.7,42.5z"/>
</svg>
