<?xml version="1.0" encoding="utf-8"?>
<!-- Generator: Adobe Illustrator 24.0.0, SVG Export Plug-In . SVG Version: 6.00 Build 0)  -->
<svg version="1.1" id="Layer_1" xmlns="http://www.w3.org/2000/svg" xmlns:xlink="http://www.w3.org/1999/xlink" x="0px" y="0px"
	 viewBox="0 0 76 76" style="enable-background:new 0 0 76 76;" xml:space="preserve">
<style type="text/css">
	.st0{opacity:0.3;fill:#AFBDC4;enable-background:new    ;}
	.st1{enable-background:new    ;}
	.st2{fill:#F7941E;}
	.st3{fill:#6E420D;}
	.st4{fill:#F7C81E;}
	.st5{fill:#00A79D;}
	.st6{fill:#00423E;}
	.st7{fill:#00DBCE;}
	.st8{fill:#BE1E2D;}
	.st9{fill:#701319;}
	.st10{fill:#DB2334;}
</style>
<g>
	<g>
		<path class="st0" d="M36.1,42.6l-17.3-10c-1.2-0.7-1.1-1.9,0.3-2.7l0,0c1.4-0.8,3.5-0.9,4.8-0.2l17.3,10c1.2,0.7,1.1,1.9-0.3,2.7
			l0,0C39.5,43.2,37.4,43.3,36.1,42.6z"/>
		<g>
			<g class="st1">
				<g>
					<path class="st2" d="M20.8,19.7l3.4-2c0.7-0.4,1.8-0.4,2.9,0.3l-3.4,2C22.6,19.4,21.6,19.3,20.8,19.7z"/>
				</g>
				<g>
					<polygon class="st2" points="37,32.3 40.4,30.4 40.4,39.9 37,41.9 					"/>
				</g>
				<g>
					<polygon class="st3" points="23.7,20 27.1,18 36.3,23.3 32.9,25.3 					"/>
				</g>
				<g>
					<path class="st2" d="M32.9,25.3l3.4-2c2.3,1.3,4.1,4.5,4.1,7.1l-3.4,2C37,29.8,35.2,26.6,32.9,25.3z"/>
				</g>
				<g>
					<path class="st4" d="M32.9,25.3c2.3,1.3,4.1,4.5,4.1,7.1v9.5l-17.4-10v-9.5c0-2.6,1.8-3.6,4.1-2.4L32.9,25.3z"/>
				</g>
			</g>
			<g class="st1">
				<g>
					<path class="st2" d="M25,10.2l3.4-2c0.8-0.5,2-0.4,3.3,0.3c2.6,1.5,4.7,5.1,4.7,8c0,1.5-0.5,2.5-1.3,3l-3.4,2
						c0.8-0.5,1.3-1.5,1.3-3c0-3-2.1-6.5-4.7-8C27,9.8,25.9,9.7,25,10.2z"/>
				</g>
				<g>
					<path class="st4" d="M28.3,21.2c-2.6-1.5-4.7-5.1-4.7-8c0-3,2.1-4.2,4.7-2.7s4.7,5.1,4.7,8S30.9,22.7,28.3,21.2z"/>
				</g>
			</g>
		</g>
	</g>
	<g>
		<path class="st0" d="M61.6,58.4l-17.3-10c-1.2-0.7-1.1-1.9,0.3-2.7l0,0c1.4-0.8,3.5-0.9,4.8-0.2l17.3,10c1.2,0.7,1.1,1.9-0.3,2.7
			l0,0C64.9,59.1,62.8,59.1,61.6,58.4z"/>
		<g>
			<g class="st1">
				<g>
					<path class="st5" d="M46.2,35.6l3.4-2c0.7-0.4,1.8-0.4,2.9,0.3l-3.4,2C48,35.2,47,35.1,46.2,35.6z"/>
				</g>
				<g>
					<polygon class="st5" points="62.5,48.2 65.8,46.2 65.8,55.7 62.5,57.7 					"/>
				</g>
				<g>
					<polygon class="st6" points="49.1,35.8 52.5,33.9 61.7,39.2 58.4,41.1 					"/>
				</g>
				<g>
					<path class="st5" d="M58.4,41.1l3.4-2c2.3,1.3,4.1,4.5,4.1,7.1l-3.4,2C62.5,45.6,60.6,42.4,58.4,41.1z"/>
				</g>
				<g>
					<path class="st7" d="M58.4,41.1c2.3,1.3,4.1,4.5,4.1,7.1v9.5l-17.4-10v-9.5c0-2.6,1.8-3.6,4.1-2.4L58.4,41.1z"/>
				</g>
			</g>
			<g class="st1">
				<g>
					<path class="st5" d="M50.4,26l3.4-2c0.8-0.5,2-0.4,3.3,0.3c2.6,1.5,4.7,5.1,4.7,8c0,1.5-0.5,2.5-1.3,3l-3.4,2
						c0.8-0.5,1.3-1.5,1.3-3c0-3-2.1-6.5-4.7-8C52.5,25.6,51.3,25.5,50.4,26z"/>
				</g>
				<g>
					<path class="st7" d="M53.8,37.1c-2.6-1.5-4.7-5.1-4.7-8s2.1-4.2,4.7-2.7c2.6,1.5,4.7,5.1,4.7,8C58.4,37.3,56.3,38.5,53.8,37.1z
						"/>
				</g>
			</g>
		</g>
	</g>
	<g>
		<path class="st0" d="M37,59.6L17.4,48.3c-1.4-0.8-1.2-2.2,0.4-3.1l0,0c1.6-0.9,4-1,5.4-0.2l19.6,11.3c1.4,0.8,1.2,2.2-0.4,3.1l0,0
			C40.8,60.3,38.4,60.4,37,59.6z"/>
		<g>
			<g class="st1">
				<g>
					<path class="st8" d="M19.7,33.8l3.8-2.2c0.8-0.5,2-0.4,3.3,0.3L23,34.1C21.7,33.3,20.6,33.3,19.7,33.8z"/>
				</g>
				<g>
					<polygon class="st8" points="38,48 41.8,45.8 41.8,56.5 38,58.8 					"/>
				</g>
				<g>
					<polygon class="st9" points="23,34.1 26.8,31.8 37.2,37.8 33.4,40 					"/>
				</g>
				<g>
					<path class="st8" d="M33.4,40l3.8-2.2c2.5,1.5,4.6,5,4.6,8L38,48C38,45.1,35.9,41.5,33.4,40z"/>
				</g>
				<g>
					<path class="st10" d="M33.4,40c2.5,1.5,4.6,5,4.6,8v10.8L18.4,47.5V36.7c0-2.9,2.1-4.1,4.6-2.7L33.4,40z"/>
				</g>
			</g>
			<g class="st1">
				<g>
					<path class="st8" d="M24.4,23l3.8-2.2c1-0.6,2.3-0.5,3.7,0.4c2.9,1.7,5.3,5.7,5.3,9.1c0,1.7-0.6,2.8-1.5,3.4l-3.8,2.2
						c0.9-0.6,1.5-1.7,1.5-3.4c0-3.3-2.4-7.4-5.3-9.1C26.7,22.5,25.4,22.4,24.4,23z"/>
				</g>
				<g>
					<path class="st10" d="M28.2,35.4c-2.9-1.7-5.3-5.7-5.3-9.1c0-3.3,2.4-4.7,5.3-3c2.9,1.7,5.3,5.7,5.3,9.1
						C33.5,35.8,31.1,37.1,28.2,35.4z"/>
				</g>
			</g>
		</g>
	</g>
</g>
</svg>
