<?xml version="1.0" encoding="utf-8"?>
<!-- Generator: Adobe Illustrator 24.0.0, SVG Export Plug-In . SVG Version: 6.00 Build 0)  -->
<svg version="1.1" id="Layer_1" xmlns="http://www.w3.org/2000/svg" xmlns:xlink="http://www.w3.org/1999/xlink" x="0px" y="0px"
	 viewBox="0 0 76 103.2" style="enable-background:new 0 0 76 103.2;" xml:space="preserve">
<style type="text/css">
	.st0{fill:#121214;}
	.st1{fill:#303033;}
	.st2{fill:#FFFFFF;}
	.st3{fill:#A7A9AC;}
	.st4{fill:#C7A496;}
	.st5{fill:#BCBEC0;}
	.st6{opacity:0.3;fill:#121214;}
	.st7{fill:#E31B25;}
	.st8{fill:#F0C6B4;}
	.st9{fill:#FF8400;}
	.st10{fill:#141414;}
	.st11{fill:#212121;}
	.st12{fill:#CF7C00;}
	.st13{opacity:0.3;}
	.st14{fill:#B8B8B8;}
	.st15{fill:#6E4826;}
	.st16{fill:#915E33;}
	.st17{fill:#57391E;}
	.st18{fill:#FF9800;}
	.st19{fill:#F5B400;}
	.st20{fill:#C4C4C4;}
	.st21{fill:#A6A6A6;}
	.st22{fill:#8A8A8A;}
	.st23{fill:#242424;}
	.st24{fill:#D49C00;}
	.st25{fill:#D63A3A;}
	.st26{fill:#1C4B94;}
</style>
<g>
	<g>
		<path d="M41.8,63.3c0,0,1.7,1.5,3.8,1.9c0.9,0.2,0.8,2.1,0.6,2.3c-2.2,0.8-4.9-1.1-5.5-1.2c-0.6-0.1-2.7,0-3.1-0.6
			c-0.5-0.6-0.2-1.9-0.2-1.9L41.8,63.3z"/>
		<path class="st0" d="M37.4,45c0,0,1,4.8,0.8,6.1c-1.4,4.7-1.1,12-1.1,12.7c-0.1,1.1,4.8,1.2,4.8-0.9c-0.1-6,1.2-10.8,1.3-12.3
			c0.1-1.5,2.9-10.6,1.4-17c-0.3-0.6-8.5,4.1-8.5,4.1l-0.4,6.5L37.4,45z"/>
		<path d="M34.2,67.9c0,0,0.7,2,1.4,3.3c0.2,0.4,0.3,1.4-0.2,1.5c-0.8,0.3-2.7,0.7-3.7-0.8c-1.9-2.9-1.4-4.2-1.4-4.2L34.2,67.9z"/>
		<path class="st1" d="M32.8,37c-1,2.6-1,14.3-1.2,16.2c-2,5.4-1.7,14.1-1.6,14.7c0.6,1.4,3.9,1.4,4.7,0c0.3-0.6,0-7.7,2-13.3
			c1.4-3.9,2.6-12.2,2.6-12.2c4.8-4.9,5.4-8.8,5.4-8.8S33.3,36.2,32.8,37z"/>
		<path class="st2" d="M42.4,15.6c0,0,2.3,0.9,2.7,3c0.4,1.9,0.7,5.1,0.9,7.3c0.3,0.8,0.6,2,0.6,2.1c0.1,0.4-1,0.5-1,0.5h-1.5
			l-1.8-6.5l-1.5-5.8L42.4,15.6z"/>
		<path d="M34.2,33.9L33.9,35c0,0,1.6,4.7,10.8-1.4l0-1.2L34.2,33.9z"/>
		<polygon class="st3" points="43.3,34.2 41.6,35.1 41.6,34.1 43.3,33.2 		"/>
		<path class="st4" d="M35.8,14.4l6,2.7l-0.5,3.7c0,0-3.3-0.1-4.5-1c-1.2-1-1.1-4-1.1-4l0.1-0.4L35.8,14.4z"/>
		<path class="st2" d="M41,19.5L39.7,20c-1-0.1-2.3-0.6-3.1-1.6c-0.5-0.6-1.3-1.7-1.3-1.7s-1.6,2.1-4,3.7c-0.3,0.5,1.1,6.1,1.9,10
			c0.3,1.5-0.3,3.5,0,3.6c1.3,4.1,11-1.4,11.4-1.8c0.7-0.3,0.4-4.6,0.4-10.5c0-3.2-3.2-5.6-3.2-5.6s-1.3,0.2-2,0.1
			C41.8,17.7,41,19.5,41,19.5z"/>
		<path class="st5" d="M33.6,33.7c0.1-0.1,3.5,1.9,3.6,1.8c-0.9-1.5-2.9-2.7-2.9-2.7c0.7-3.1,0.2-7.1,0.2-7.1S33.2,33.6,33.6,33.7z"
			/>
		<path class="st3" d="M39.2,19.5l0.6,0.5c0,0-1,0.2-1.4,0c-0.1-0.1,0.2-0.3,0.2-0.3L39.2,19.5z"/>
		<path class="st3" d="M41,19.5c0,0,0.9-0.8,1.9-0.7c-0.2-1.6-2.2-2.7-2.2-2.7c-0.1,0-0.1-0.1-0.2,0.2C41.5,17.9,41,19.5,41,19.5z"
			/>
		<path class="st5" d="M41.6,18.3L41,19.5c0,0,0.1-1.5-0.4-2.1c-0.2-0.1-0.2-0.9-0.2-0.9l0.7,0l0.3,0.1L41.6,18.3z"/>
		<path class="st2" d="M41.6,18.3l1.2,0.3c-0.5-1.8-2.5-2.7-2.5-2.7c-0.1,0-0.2-0.1-0.4,0.2C41,16.7,41.6,18.3,41.6,18.3z"/>
		<path class="st6" d="M39.7,20c-0.8,0.4-1.7,1.5-1.7,1.5s-3.1-2-3.1-4.5c0.5-0.5,0.2,0.2,0.6,0.2c0.4,1.8,2.6,2.2,3.6,2.2L39.7,20z
			"/>
		<path class="st2" d="M39.2,19.5l-1.1,1.3c0,0-2.9-1.5-3.1-3.9c0.5-0.5,0.6-1.1,0.6-1.1C36.2,18.1,39.2,19.5,39.2,19.5z"/>
		<path class="st7" d="M40.5,20.5c0.8,2,0.8,11,0.8,11l1.4,0.8l0.5-1.9c0,0-0.5-6.8-2.3-10.2c0-0.2-0.5-0.3-0.5-0.3
			S40.7,20,40.5,20.5z"/>
		<polygon class="st7" points="39.7,20 40.5,20.5 41,20.3 41,19.5 		"/>
		<path class="st8" d="M42.8,11.8c0,0-0.6,5.7-0.7,6.1c-0.2,0.4-0.5,0.7-1.2,0.6c-3-0.2-4.1-3-4.1-3S36,15.4,35.8,15
			c-0.2,0.1-0.4-0.3-0.4-0.3l-0.6-1.7l0.6-1.8l1.8-1.4l3.1-0.5l2.2,1.5L42.8,11.8z"/>
		<polygon class="st9" points="44.7,23.5 43.1,24.4 43.1,23.4 44.7,22.5 		"/>
		<path class="st8" d="M44.4,36.7c0,0-0.9,0.5-1.2,0.8c-0.3,0.3-1,1.1-1,1.1l0.3,0.7c0,0,0.9-0.8,1.4-0.4c0.4,0.4-0.4,1.7-0.4,1.7
			S41.7,41.3,42,42c0.4,0.7,2.7-0.7,3.4-1.5c0.8-0.7,1-3.2,1-3.2l-0.2-1.1l-0.8-0.4l-0.7,0.1L44.4,36.7z"/>
		<path class="st8" d="M40.8,38.5c0,0,1.5-0.5,1.9-0.3c0.4,0.2,0.4,0.7,0.4,0.7s0.8,0.2,1,0.4c0.2,0.2,0.5,0.9,0.2,1.6
			C44,41.5,42.8,42.1,42,42c-1-0.1-2.5-1.2-2.5-1.2L40.8,38.5z"/>
		<path class="st2" d="M39.6,37.7c0,0,1,0.7,1.2,0.8c0.7,0.5-0.8,2.7-1.4,2.3C38.7,40.4,38,40,38,40L39.6,37.7z"/>
		<path class="st2" d="M32.2,20.4c-2.9-0.5-2.7,5.2-2.7,5.2s0,8.3,0.1,8.6C29.9,37.5,38,40,38,40c1.9-0.5,1.6-2.3,1.6-2.3
			s-3.7-3.6-5.9-4.8c0.4-1,0.7-7.1,0.7-7.1S35.6,21,32.2,20.4z"/>
		<path class="st2" d="M44.4,36.7l0-1.3l0.5-0.7l1,0.3l0.4,0.6l0,1.7C46.4,37.4,45.6,36.2,44.4,36.7z"/>
		<path class="st2" d="M45.3,27.9c0,0-1.3,4.5-0.8,7.5c0.7-0.2,1.7-0.2,1.9,0.3c0.9-0.5,0.6-5.7,0.2-7.8
			C45.9,27.2,45.3,27.9,45.3,27.9z"/>
		<path class="st5" d="M44.7,19.9c0.2,0.9,1.3,9.9,0.7,11.5c-0.3,0.8-1,1-1,1s0.5-0.5,0.7-1.2C45.3,30.6,45.4,25.2,44.7,19.9z"/>
		<path class="st1" d="M35.8,15c-0.1-0.4-0.8-1.6-0.2-1.8c0.6-0.2,1.4,1.2,1.6,1.4c0.3-1,1.5-1.5,1.9-3.1c0.7,0.3,1.2,0.1,1.9,0.1
			c0.9,0.1,1.7,0.5,2.2,0.1c0.5-0.5-0.7-2.7-3.1-3.8c-2.7-1.3-4.2,0.7-4.2,0.7s-1.7,0.3-1.9,2.8c-0.1,2.5,1.6,4,1.6,4
			S36,15.3,35.8,15z"/>
		<path class="st0" d="M36.2,8.7C35.9,9,38.5,11,38.5,11S36.5,8.5,36.2,8.7z"/>
		<path class="st5" d="M38,40c0,0,1.4-0.6,1.6-2.3C40,39.7,38,40,38,40z"/>
		<path class="st5" d="M44.5,35.4c1-0.2,1.9,0.3,1.9,0.3S45.7,34.7,44.5,35.4z"/>
	</g>
	<g>
		<path class="st10" d="M53.3,33c0,0,1.8,0.2,2.4,1.8c0.6,1.6-0.1,4.4-0.1,4.4l-3.3-3.3L53.3,33z"/>
		<path d="M55.8,38c0,0.5-1.6-2.8-1.6-2.8S55.7,35.9,55.8,38z"/>
		<path class="st4" d="M46.5,32.2c0.4,1.4-0.3,2-0.3,2l1,2.4l2.8,2.7l1.8,0.6l1.5-1l1.1-1.3L53,34.6l-2.9-2.7
			C50.1,31.9,47,32,46.5,32.2z"/>
		<polygon class="st2" points="54.4,36.7 52.7,36.9 52.3,37.3 52.3,38.1 50.9,38.7 50.7,38 48.2,37.5 47.2,38.1 49.3,43.6 
			51.2,47.1 53.9,47.9 55.9,43.6 55.7,39.3 		"/>
		<path d="M59.8,90.3c0.7,1.1,4,1.7,4.4,2.1c0.5,0.3,0.6,1.4,0.5,1.6c-0.3,0.5-2.1,0.7-3,0.6c-0.9-0.1-1.7-0.7-2.1-0.6
			c-0.4,0.1-2,0.2-2.6,0.2c-0.6-0.1-1.4-2.8-1.4-2.8S59.3,89.8,59.8,90.3z"/>
		<path class="st10" d="M57.1,60.9c0,0,0.9,9,0.7,12.4c0.1,7,1.9,14.7,2.4,16.9c0.2,0.8-5.2,2.7-6.4,0.5c-0.5-1.9-2-9.8-1.8-15.2
			c0.3-1.1-3.9-15.1-3.9-15.1l5.7-5.5l2,1.4L57.1,60.9z"/>
		<path d="M49.3,64.9c0,0,1.6,0.5,2.6-0.5c0.3-0.3,1.8-2.6,1.8-5.3c1.3,7,3.3,1.7,3.3,1.7l-0.2-1l-3.3-4.1l-1.8,1L49.3,64.9z"/>
		<path d="M36.9,83.4c0.1,1.2,2,3.7,2,4.3c0.1,0.6-0.2,1.2-0.2,1.2s-3.4,0.9-5.1-1.8c-0.9-1.4-2.3-5-2.2-5.8
			c0.1-0.8,1.5-1.8,1.5-1.8S36.8,82.7,36.9,83.4z"/>
		<path class="st11" d="M40.8,60.9c0,0-2.7,8.3-3.1,9.5c-0.4,1.2-2.4,2-2.9,3.4c-0.4,1.3-2.3,4.6-2.5,6c0,4.1,4.6,3.7,4.6,3.7
			s2.1-8.2,5.6-10.3c1.8-1.1,6.4-10.3,6.4-10.3L40.8,60.9z"/>
		<path d="M40.3,62.7c0.9,4.2,7.6,2.4,7.6,2.4S39.9,62.1,40.3,62.7z"/>
		<path class="st12" d="M51.7,39.5c0,0,1.3,5.1,1,9.9c0.3,0.1,2-0.6,2.2-1c-0.6-7.3-2.6-9.1-2.6-9.1L51.7,39.5z"/>
		<path class="st10" d="M52.7,35.1c3.1,7.8,1,11.5,1,11.5s-1.1,3.2-1.1,5.3c0,2.1,0.9,4.9,0.9,4.9s0.8,5.4,1.9,5.6
			c0.6,0.1,1.7-0.8,1.7-2.3c0-1.5-1.2-6-1.2-7.7c0-5.9,0.8-4.8,0.8-10.7c0-3.5-3.3-7.4-3.3-7.4S52.5,34.3,52.7,35.1z"/>
		<polygon class="st12" points="50.7,38.8 52.3,38.1 52.3,39.3 51.7,39.5 		"/>
		<path class="st11" d="M45.4,35.1c-0.8,0.7-3.8,3.3-3.8,3.3S40,39,41.7,53.8c-0.2,3.7-1.4,3.9-1.7,7.9c0.6,4.5,10.1,3.3,11.1,2.8
			c1.1-0.5,2.1-2.3,2.4-6.5l0.2-11.5C49.7,42.7,50.2,39,45.4,35.1z"/>
		<polygon class="st13" points="52.3,37.3 52.3,38.1 54.2,37.9 54.1,37 		"/>
		<path class="st2" d="M51.8,35.5c0.6,0.4,0.5,1.8,0.5,1.8l1.9,0.2c0,0-0.4-1.6-0.8-2.1C52.9,34.8,51.5,35.3,51.8,35.5z"/>
		<polygon class="st14" points="50.7,38 51,39 49,38.1 49.8,37.8 		"/>
		<path class="st13" d="M51,39l-1.7,0.8c0,0-4-2.8-3.9-4.7c0.1-0.1,4,2.8,5.3,2.9L51,39z"/>
		<path class="st2" d="M50.7,38c-0.4,0.4-1.4,1-1.4,1s-3.2-2.3-3.9-3.9c0-0.3,0.3-1,0.7-1C46.3,34.3,49,37.2,50.7,38z"/>
		<path class="st8" d="M54.1,28.1c0.5,1,0.3,3,0.3,3s-0.5,4.7-0.7,5.1c-0.2,0.3-1.2,0.8-1.6,0.7c-1.8-0.3-3.8-2-3.9-2.4
			c-0.1-0.4-0.4-1.2-0.4-1.2s-1.1-0.4-1.3-1.3c-0.2-0.4-0.3-1-0.3-1l0.5-2.3l2.3-1.9l2.4-0.2l1.6,0.5C52.8,27.2,53.8,27.7,54.1,28.1
			z"/>
		<path class="st15" d="M46.4,32.1c0,0-0.4-1.5,0.4-1.5c0.8,0,0.9,1,1.2,1c0.3,0,0.2-0.6,0.6-0.8c0.4-0.2,0.4-0.1,0.8-0.3
			c0.3-0.2,0.3-1,0.6-1c3.1,0,4.3-0.9,4.1-1.7c-0.1-0.5-1.8-4.1-6-2.5c-1.9,0.7-2.3,2.6-2.3,3.4C45.7,31.6,46.4,32.1,46.4,32.1z"/>
		<g>
			<path class="st16" d="M42.2,65.6c-0.2-0.2-0.5-0.2-0.9,0.1c-0.6,0.4-1.1,1.5-1,2.3l0.6,8.4l11.2,5.4L53.2,71L42.2,65.6z"/>
			<path class="st17" d="M54.4,80.3l-2.3,1.5l-0.6-8.4c-0.1-0.9,0.4-1.9,1-2.3c0.6-0.4,1.2-0.1,1.3,0.8L54.4,80.3z"/>
			<polygon class="st17" points="51.8,77.6 40.6,72.2 40.6,71.9 51.8,77.3 			"/>
			<g>
				<polygon class="st18" points="43.6,74.2 43.4,74.4 42.4,72.6 42.7,72.4 43.6,72.9 				"/>
				<polygon class="st19" points="43.4,74.4 42.5,74 42.4,72.6 43.3,73.1 				"/>
			</g>
			<g>
				<polygon class="st18" points="49.9,77.3 49.6,77.4 48.6,75.7 48.9,75.5 49.8,75.9 				"/>
				<polygon class="st19" points="49.6,77.4 48.7,77 48.6,75.7 49.5,76.1 				"/>
			</g>
			<g>
				<g>
					<polygon class="st20" points="45.2,66.2 45.5,66 45.1,65.8 44.8,66 					"/>
					<polygon class="st21" points="45.3,67.9 45.6,67.7 45.5,66 45.2,66.2 					"/>
					<polygon class="st22" points="45.3,67.9 44.9,67.7 44.8,66 45.2,66.2 					"/>
				</g>
				<g>
					<path class="st17" d="M45.7,65.9c-0.1,0-0.2,0-0.3,0c-0.2,0.1-0.4,0.5-0.3,0.7c0,0.1,0.1,0.2,0.1,0.2l-0.1-0.1
						c-0.1,0-0.1-0.1-0.1-0.2c0-0.3,0.1-0.6,0.3-0.7c0.1-0.1,0.2-0.1,0.3-0.1L45.7,65.9z"/>
					<path class="st23" d="M45.1,66.6c0-0.3,0.1-0.6,0.3-0.7c0.2-0.1,0.4,0,0.4,0.2c0,0.2-0.1,0.6-0.3,0.7
						C45.3,67,45.1,66.9,45.1,66.6z"/>
					<path class="st16" d="M48.3,68.4L48.3,68.4c0.1,0,0.1-0.1,0.2-0.1c0.2-0.1,0.4-0.5,0.3-0.7c0-0.1,0-0.1-0.1-0.2l0,0l-3.1-1.5
						c-0.1,0-0.2,0-0.3,0c-0.2,0.1-0.4,0.5-0.3,0.7c0,0.1,0.1,0.2,0.1,0.2l0,0L48.3,68.4z"/>
					<path class="st17" d="M48.8,67.4c-0.1,0-0.2,0-0.3,0c-0.2,0.1-0.4,0.5-0.3,0.7c0,0.1,0.1,0.2,0.1,0.2l-0.1-0.1
						c-0.1,0-0.1-0.1-0.1-0.2c0-0.2,0.1-0.6,0.4-0.7c0.1-0.1,0.2-0.1,0.3,0L48.8,67.4z"/>
					<path class="st17" d="M48.1,68.1c0-0.2,0.1-0.6,0.3-0.7c0.2-0.1,0.4,0,0.4,0.2c0,0.2-0.1,0.6-0.3,0.7
						C48.3,68.5,48.1,68.4,48.1,68.1z"/>
				</g>
				<g>
					<polygon class="st20" points="48.7,67.9 49,67.7 48.7,67.5 48.4,67.7 					"/>
					<polygon class="st21" points="48.8,69.6 49.2,69.4 49,67.7 48.7,67.9 					"/>
					<polygon class="st22" points="48.8,69.6 48.5,69.4 48.4,67.7 48.7,67.9 					"/>
				</g>
			</g>
		</g>
		<path class="st8" d="M44.4,64.5c0,0,0.1,2.2,0.2,2.8c0.1,0.6,0.9,1.2,1.8,1.7c1.1,0.7,1.9-0.6,1.9-0.6s-1.1-0.4-0.9-1
			C47.6,66.9,48,67,48,67l0.6,0.3c0,0,0.3-1.4-0.4-1.9c-0.7-0.6-1.4-1.4-1.4-1.4L44.4,64.5z"/>
		<path class="st2" d="M46.4,61.7c0,0,0.5,1.4,0.7,1.9C45.7,65,44.3,65,44.3,65l-1-2L46.4,61.7z"/>
		<path class="st10" d="M41.6,38.4c0,0-2.4,1.5-2.2,3.7c0.2,2.2,1.1,10.4,1,12.1C40.3,55.7,43,64.2,43,64.2s2.8,0,4.1-2.1
			c-0.2-0.9-2.2-8.8-2.2-8.8s0.1-6.9,0.1-10.3C44.9,38.8,41.6,38.4,41.6,38.4z"/>
		<path d="M55.1,50.4c0,0.2-0.2,0.5-0.4,0.7c-0.2,0.1-0.4,0-0.4-0.2c0-0.2,0.2-0.5,0.4-0.6C55,50.1,55.1,50.2,55.1,50.4z"/>
		<path d="M54.9,53.7c0,0.2-0.2,0.5-0.4,0.6c-0.2,0.1-0.4,0-0.4-0.2c0-0.2,0.2-0.5,0.4-0.6C54.8,53.4,54.9,53.5,54.9,53.7z"/>
		<path d="M52.9,51.4c0,0.2-0.2,0.5-0.4,0.6c-0.2,0.1-0.4,0-0.4-0.2c0-0.2,0.2-0.5,0.4-0.7C52.7,51.1,52.9,51.2,52.9,51.4z"/>
		<path d="M52.7,54.7c0,0.2-0.2,0.5-0.4,0.6c-0.2,0.1-0.4,0-0.4-0.2c0-0.2,0.2-0.5,0.4-0.6C52.5,54.3,52.7,54.4,52.7,54.7z"/>
	</g>
	<g>
		<path class="st8" d="M40.6,45.3c0,0,1.6-1.2,2.2-1.4c0.5-0.1,1.8,0.1,1.8,0.3c0.1,0.2-0.8,0.4-0.8,0.6c0,0.7,3.2,0.2,3.2,0.9
			c0,0.4-2.5,2.1-3.6,2c-1-0.1-2.6-0.8-2.6-0.8L40.6,45.3z"/>
		<path class="st2" d="M39,45.4c0,0,1.4-0.4,1.6-0.2c0.8,0.9,0.3,2.2,0.3,2.2L39,47.7V45.4z"/>
		<path class="st10" d="M23.7,35.5c3.6,0.5,4.7,4.5,4.7,4.5l4.2,5.8c0,0,6.1-0.4,6.7-0.5c0.4,1.4,0.3,2.8,0.3,2.8s-7.6,1.2-8.5,0.8
			c-0.8-0.4-4.5-5.5-4.5-5.5l-1.7-4.2l-1.5-2.4C23.3,36.8,23.3,35.6,23.7,35.5z"/>
		<path class="st4" d="M17.4,33.9c0.6,1.3,0,3.2,0,3.2v1.7l3.3,1.2l1.9-0.2l1.4-2.1l-2-5.4C22,32.3,17.3,33.5,17.4,33.9z"/>
		<path class="st2" d="M17.4,36.8c0,0,2.9,2.2,4.2,1.7c0.8-0.3,0.4-1.8,0.4-1.8l1.2,0.2l4.1,7.2v12.2l-4.7,1.4l0-11.8l-6-6.6
			L17.4,36.8z"/>
		<path d="M21.5,85.5c-0.2,0.6-0.3,1.2,0.1,1.6c0.6,0.8,1.9,1,1.9,1s2.1,1.7,2.8,2.1c0.7,0.3,2.3,0.7,2.8,0.3
			c0.4-0.5,0.1-1.4-0.4-1.8c-0.2-0.2-0.8-0.6-1.4-1.1L21.5,85.5z"/>
		<path class="st8" d="M27.3,87.5c-0.2-0.2-1.9-1.7-2.4-2.4c-0.5-6.1,2.6-10.8,2.7-11.5c0.1-0.7-0.3-2.5-0.3-2.5l-3.7,1.3v1.1
			c0,0-1.4,2.1-1.6,2.9c-0.2,0.8,0.1,6.9,0,7.7c0,0.4-0.3,0.9-0.4,1.4C21.5,85.5,27.7,90.2,27.3,87.5z"/>
		<path d="M17,87.3c0.1,0.3,2.3,4.3,1.1,4.8c-3.2,1.4-4.1-4.3-3.9-5.4L17,87.3z"/>
		<path class="st8" d="M14.1,86.8c0.8-5.3-1.5-9.2-1.4-11.5c0.1-1.1,1.9-3.9,1.9-4.7c0.1-0.8,3.9,1.6,3.9,1.6s-0.5,1.5-1.3,2.3
			c-1.1,2.3-0.5,12.2-0.3,12.9c0,0,0.9,2.5-0.2,2.9C15.2,90.7,14.1,86.8,14.1,86.8z"/>
		<path class="st11" d="M16.8,56.4c0,0-0.9,1.1-1.5,3.3c-0.6,2.2-0.3,7.9-1.1,10.5c0,0-0.4,1.3,2.5,2.5c4.2,1.8,10.9-0.9,10.9-0.9
			s2.1-9.9,0.7-17.5c-1.3,1.3-8,2.5-8,2.5L16.8,56.4z"/>
		<path d="M26.2,55.3c0,0-0.2,0.9,0.3,0.9c1.9-0.1,1.9-2,1.9-2L28,53.6L26.2,55.3z"/>
		<path class="st11" d="M22,36.4c0,0,3.5,4.9,4.2,8.3c0.6,3.4,0.1,8.7,0.1,10.6c0.1,1.3,2-0.6,2.3-1.2c0.2-0.6,0-8.8,0-10.3
			c-0.1-2.1-3.9-5.9-4.7-7.3C23.1,35,22,36.4,22,36.4z"/>
		<path d="M16.6,56.4c0,0,0.8,3.7,7,1.3c0.8-0.4,0.2-1.8,0.2-1.8L16.6,56.4z"/>
		<path class="st11" d="M17.4,36.8c-1.7,2.5-3.6,4.3-3.6,4.3l1.5,6.2c0,0,2.1,4.6,2,5.7c0,1.2-0.5,2.3-0.8,3c1.5,2.9,6,2,6.8,1
			c0.9-1,0.4-6.9,0.4-10.4C23.9,42.8,17.3,38.5,17.4,36.8z"/>
		<path class="st8" d="M24.1,29.3c0,0,0.6,1.7,0.5,2.6c-0.1,0.9-0.3,4.5-0.5,4.9c-0.3,0.5-1,0.8-1.9,0.6c-0.8-0.1-2.4-0.9-2.9-1.5
			c-0.6-0.7-0.7-1.5-0.7-1.5s-0.7,0.1-1.2-0.5c-0.5-0.6-0.8-0.8-0.8-0.8v-1.9l1.1-1.6l1.2-1L21,28l1.2,0.3L24.1,29.3z"/>
		<path class="st24" d="M16.1,26.3c-0.8-0.5-3.5,2-3.3,4.8c0.1,2.8,2.1,4.8,2.1,4.8s2-1.4,1.9-2.1C16.9,33,16.9,26.7,16.1,26.3z"/>
		<path class="st25" d="M18.1,27.6c0,0.8-0.7,1.4-1.5,1.4c-0.8,0-1.5-0.6-1.5-1.4c0-0.8,0.7-1.4,1.5-1.4
			C17.4,26.2,18.1,26.8,18.1,27.6z"/>
		<path class="st19" d="M17.4,33.9c0,0-0.6-1.5,0-1.6c1,0,1.6,1.5,2,1.1c0.4-0.4,0.6-0.6,0.8-1.3c0.2-0.6,0.1-1.4,0.5-1.5
			c3.6-0.1,3.4-1.5,3.4-1.5s-2.9-5.8-7.5-1.9c-2.5,2.1-1.6,4.7-1.1,5.5C16.4,34.2,17.4,33.9,17.4,33.9z"/>
		<g>
			
				<rect x="15.2" y="51.2" transform="matrix(0.2068 -0.9784 0.9784 0.2068 -37.7541 64.1805)" class="st26" width="11" height="8.3"/>
			
				<rect x="20.4" y="50.5" transform="matrix(0.2077 -0.9782 0.9782 0.2077 -34.1385 62.4062)" class="st2" width="2.1" height="3.6"/>
		</g>
		<path class="st8" d="M20.2,55.1c0,0,3.2,0,3.9,0.1c0.3,0.1,1,0.2,1.6,0.6c0.4,0.2,0.4,1.1,0.1,1.9c-0.4,1-0.9,1.5-2.1,1.1
			c-0.6-0.2-3-1.3-4-1.8C19.4,55.9,20.2,55.1,20.2,55.1z"/>
		<path class="st2" d="M18.8,54.5c0,0,1.6,0.5,1.9,0.5c-0.7,1.1-0.6,2.6-0.6,2.6L18.1,57L18.8,54.5z"/>
		<path class="st10" d="M15.7,40.5c-3.4-0.4-3.1,5.2-3.1,5.2s-1.7,7.8-1.3,8.9c0.4,1,7.5,3,7.5,3s-0.4-1.9,0.8-3
			c-2.1-0.8-4.6-2.3-4.6-2.3l2.2-8.8C17.1,43.5,18.1,40.8,15.7,40.5z"/>
	</g>
</g>
</svg>
