<?xml version="1.0" encoding="utf-8"?>
<!-- Generator: Adobe Illustrator 24.0.0, SVG Export Plug-In . SVG Version: 6.00 Build 0)  -->
<svg version="1.1" id="Layer_1" xmlns="http://www.w3.org/2000/svg" xmlns:xlink="http://www.w3.org/1999/xlink" x="0px" y="0px"
	 viewBox="0 0 76 76" style="enable-background:new 0 0 76 76;" xml:space="preserve">
<style type="text/css">
	.st0{clip-path:url(#SVGID_2_);}
	.st1{fill:#EDA234;}
	.st2{fill:#F7B554;}
	.st3{fill:#EADCF2;}
	.st4{fill:url(#SVGID_3_);}
	.st5{fill:#FFD27D;}
	.st6{fill:#B3267C;}
	.st7{fill:#CE387B;}
	.st8{fill:url(#SVGID_4_);}
	.st9{fill:#E65C9C;}
	.st10{fill:#6A3786;}
	.st11{fill:#7708B4;}
	.st12{fill:#FFFFFF;}
	.st13{fill:#9544C2;}
</style>
<g>
	<defs>
		<rect id="SVGID_1_" x="20" y="11" width="37" height="54"/>
	</defs>
	<clipPath id="SVGID_2_">
		<use xlink:href="#SVGID_1_"  style="overflow:visible;"/>
	</clipPath>
	<g class="st0">
		<path class="st1" d="M20,21.3v33.3l18.2-10.4c0.2-0.1,0.3-0.2,0.4-0.4c0.1-0.2,0.1-0.4,0.2-0.6V11.7c0-0.1,0-0.2-0.1-0.3
			c-0.1-0.1-0.1-0.2-0.3-0.2S38.2,11,38.1,11c-0.1,0-0.2,0-0.3,0.1L20,21.3z"/>
		<path class="st2" d="M20.1,21.4l17.8-10.2c0.1-0.1,0.3-0.1,0.5-0.1c0.2,0,0.3,0.1,0.4,0.2c0-0.1-0.1-0.2-0.2-0.2
			c-0.1-0.1-0.1-0.1-0.2-0.1c-0.1,0-0.2,0-0.3,0c-0.1,0-0.2,0-0.3,0.1L20,21.3v33.3l0.1-0.1V21.4z"/>
		<path class="st3" d="M26.5,25.2v30.4l-5.8-3.3V21.9L26.5,25.2z"/>
		
			<linearGradient id="SVGID_3_" gradientUnits="userSpaceOnUse" x1="48.9119" y1="91.5702" x2="30.818" y2="56.8538" gradientTransform="matrix(1 0 0 -1 0 78)">
			<stop  offset="0" style="stop-color:#D4D1D8"/>
			<stop  offset="1" style="stop-color:#FFFFFF"/>
		</linearGradient>
		<path class="st4" d="M20.7,21.9l5.8,3.3l17-9.7l-5.8-3.3L20.7,21.9z"/>
		<path class="st2" d="M26.1,24.7V58l18.2-10.4c0.2-0.1,0.3-0.2,0.4-0.4c0.1-0.2,0.1-0.4,0.1-0.5V15.1c0-0.1,0-0.2-0.1-0.3
			c-0.1-0.1-0.1-0.2-0.2-0.2c-0.1-0.1-0.2-0.1-0.3-0.1c-0.1,0-0.2,0-0.3,0.1L26.1,24.7z"/>
		<path class="st2" d="M26.4,24.7V58l-1.8-0.3c-1-0.2-1.9-0.5-2.6-1.1c-0.8-0.6-1.4-1.3-1.8-2.2l0,0V21.3h0.1c0.4,0.8,1,1.6,1.8,2.1
			c0.8,0.6,1.7,0.9,2.6,1L26.4,24.7z"/>
		<path class="st1" d="M26.3,24.8v33.3l18.2-10.4c0.2-0.1,0.3-0.2,0.4-0.4C45,47.2,45,47,45,46.8V15.2c0-0.1,0-0.2-0.1-0.3
			c-0.1-0.1-0.1-0.2-0.2-0.2c-0.1-0.1-0.2-0.1-0.3-0.1c-0.1,0-0.2,0-0.3,0.1L26.3,24.8z"/>
		<path class="st5" d="M26.3,24.8v33.3l-1.8-0.3c-1-0.2-1.9-0.5-2.6-1.1c-0.8-0.6-1.4-1.3-1.8-2.2l0,0V21.2c0.4,0.9,1.1,1.6,1.8,2.2
			c0.8,0.6,1.7,1,2.6,1.1L26.3,24.8z"/>
		<path class="st6" d="M27,24.8v34.5l13.9-7.9c0.1-0.1,0.2-0.2,0.3-0.3c0.1-0.1,0.1-0.3,0.1-0.4V17.5c0-0.1,0-0.2-0.1-0.3
			c0-0.1-0.1-0.1-0.2-0.2C41,17,40.9,17,40.9,17s-0.2,0-0.3,0.1L27,24.8z"/>
		<path class="st7" d="M27.1,24.9l13.5-7.8c0.1-0.1,0.2-0.1,0.3-0.1c0.1,0,0.2,0.1,0.3,0.2c0-0.1-0.1-0.1-0.1-0.2
			C41.1,17.1,41.1,17,41,17c-0.1,0-0.1,0-0.2,0c-0.1,0-0.1,0-0.2,0.1l-13.5,7.8v34.5l0.1,0L27.1,24.9z"/>
		<path class="st3" d="M30.4,26.9v32.3l-2.8-1.6V25.3L30.4,26.9z"/>
		
			<linearGradient id="SVGID_4_" gradientUnits="userSpaceOnUse" x1="184.6616" y1="552.562" x2="5.7517" y2="-43.383" gradientTransform="matrix(1 0 0 -1 0 78)">
			<stop  offset="0" style="stop-color:#D4D1D8"/>
			<stop  offset="1" style="stop-color:#FFFFFF"/>
		</linearGradient>
		<path class="st8" d="M27.6,25.3l2.8,1.6l12.9-7.4l-2.8-1.6L27.6,25.3z"/>
		<path class="st7" d="M30.1,26.5V61L44,53c0.1-0.1,0.2-0.2,0.3-0.3c0.1-0.1,0.1-0.3,0.1-0.4V19.2c0-0.1,0-0.2-0.1-0.3
			c0-0.1-0.1-0.1-0.2-0.2c-0.1,0-0.2-0.1-0.3-0.1c-0.1,0-0.2,0-0.3,0.1L30.1,26.5z"/>
		<path class="st7" d="M30.3,26.5V61c0,0-2.5-0.5-3.2-1.8V24.8h0.1C27.9,26.2,30.3,26.5,30.3,26.5z"/>
		<path class="st6" d="M30.2,26.6v34.5l13.9-8c0.1-0.1,0.2-0.2,0.3-0.3c0.1-0.1,0.1-0.3,0.1-0.4V19.3c0-0.1,0-0.2-0.1-0.2
			c0-0.1-0.1-0.1-0.2-0.2c-0.1,0-0.2-0.1-0.2-0.1c-0.1,0-0.2,0-0.2,0.1L30.2,26.6z"/>
		<path class="st9" d="M30.3,26.6v34.5c0,0-2.5-0.5-3.2-1.8V24.8C27.7,26.1,30.3,26.6,30.3,26.6z"/>
		<path class="st10" d="M31,26.8v34.5l18.9-10.8c0.2-0.1,0.3-0.2,0.4-0.4c0.1-0.2,0.2-0.4,0.2-0.6V16.8c0-0.1,0-0.2-0.1-0.3
			c-0.1-0.1-0.1-0.2-0.3-0.3c-0.1-0.1-0.2-0.1-0.3-0.1c-0.1,0-0.2,0-0.3,0.1L31,26.8z"/>
		<path class="st11" d="M31.1,26.9l18.4-10.5c0.1-0.1,0.3-0.1,0.5-0.1c0.2,0,0.3,0.1,0.4,0.3c0-0.1-0.1-0.2-0.2-0.2
			c-0.1-0.1-0.2-0.1-0.3-0.2c-0.1,0-0.2,0-0.3,0c-0.1,0-0.2,0-0.3,0.1L31,26.8v34.5l0.1-0.1V26.9z"/>
		<path class="st3" d="M37.8,30.9v31.5l-6-3.5V27.4L37.8,30.9z"/>
		<path class="st12" d="M31.8,27.4l6,3.4l17.6-10.1l-6-3.5L31.8,27.4z"/>
		<path class="st11" d="M37.4,30.3v34.5l18.9-10.8c0.2-0.1,0.3-0.2,0.4-0.4c0.1-0.2,0.2-0.4,0.2-0.6V20.4c0-0.1,0-0.2-0.1-0.3
			c-0.1-0.1-0.2-0.2-0.3-0.2c-0.1-0.1-0.2-0.1-0.3-0.1c-0.1,0-0.2,0-0.3,0.1L37.4,30.3z"/>
		<path class="st11" d="M37.6,30.3v34.6l-1.9-0.3c-1-0.2-1.9-0.6-2.8-1.2c-0.8-0.6-1.5-1.4-1.9-2.3l0,0V26.8h0.1
			c0.4,0.9,1.1,1.6,1.9,2.2c0.8,0.6,1.7,0.9,2.7,1.1L37.6,30.3z"/>
		<path class="st10" d="M37.5,30.4V65l18.9-10.8c0.2-0.1,0.3-0.2,0.4-0.4c0.1-0.2,0.2-0.4,0.2-0.6V20.5c0-0.1,0-0.2-0.1-0.3
			c-0.1-0.1-0.1-0.2-0.3-0.3c-0.1-0.1-0.2-0.1-0.4-0.1c-0.1,0-0.2,0-0.3,0.1L37.5,30.4z"/>
		<path class="st13" d="M37.6,30.4V65l-1.9-0.3c-1-0.2-1.9-0.6-2.8-1.2c-0.8-0.6-1.5-1.4-1.9-2.3l0,0V26.7c0.5,0.9,1.1,1.7,1.9,2.3
			c0.8,0.6,1.8,1,2.7,1.2L37.6,30.4z"/>
	</g>
</g>
</svg>
