<svg width="76" height="76" viewBox="0 0 76 76" fill="none" xmlns="http://www.w3.org/2000/svg">
<circle cx="38" cy="38" r="38" fill="#E4E4E4"/>
<g clip-path="url(#clip0)">
<path d="M20 21.2592V54.597L38.2082 44.1523C38.3764 44.0547 38.5161 43.9153 38.6135 43.7478C38.711 43.5802 38.7628 43.3903 38.7638 43.1969V11.6586C38.7638 11.54 38.7321 11.4234 38.6718 11.321C38.6115 11.2186 38.5248 11.134 38.4207 11.0759C38.3166 11.0178 38.1988 10.9884 38.0794 10.9905C37.9599 10.9926 37.8433 11.0263 37.7413 11.0881L20 21.2592Z" fill="#EDA234"/>
<path d="M20.1027 21.4308L37.8627 11.2597C38 11.1825 38.1605 11.1564 38.3154 11.1862C38.4702 11.2159 38.6094 11.2996 38.7078 11.4221C38.673 11.3355 38.6202 11.2573 38.5527 11.1925C38.4853 11.1277 38.4048 11.0779 38.3165 11.0464C38.2283 11.0148 38.1343 11.0022 38.0408 11.0094C37.9472 11.0166 37.8563 11.0434 37.774 11.0881L20 21.2592V54.597L20.1027 54.5367V21.4308Z" fill="#F7B554"/>
<path d="M26.499 25.2247V55.6313L20.7144 52.2966V21.9039L26.499 25.2247Z" fill="#EADCF2"/>
<path d="M20.7144 21.9039L26.499 25.2247L43.4699 15.4989L37.6527 12.1595L20.7144 21.9039Z" fill="url(#paint0_linear)"/>
<path d="M26.1255 24.7145V58.0338L44.3337 47.6076C44.5016 47.5113 44.641 47.3726 44.7377 47.2057C44.8344 47.0388 44.8851 46.8494 44.8846 46.6568V15.1185C44.885 15.0017 44.8543 14.8869 44.7956 14.7856C44.737 14.6844 44.6524 14.6003 44.5505 14.5419C44.4487 14.4836 44.3331 14.453 44.2155 14.4532C44.0979 14.4535 43.9824 14.4846 43.8808 14.5434L26.1255 24.7145Z" fill="#F7B554"/>
<path d="M26.3591 24.7284V58.0477L24.5663 57.7462C23.6087 57.5861 22.7029 57.203 21.923 56.6282C21.1432 56.0534 20.5115 55.3033 20.0796 54.4393V54.4393V21.2731H20.1916C20.6023 22.1187 21.2162 22.8509 21.9791 23.405C22.7421 23.9591 23.6306 24.318 24.5663 24.4501L26.3591 24.7284Z" fill="#F7B554"/>
<path d="M26.2749 24.8305V58.1497L44.4831 47.7235C44.6511 47.6261 44.7904 47.4866 44.887 47.3189C44.9837 47.1513 45.0344 46.9613 45.034 46.7681V15.2298C45.0328 15.1138 45.0009 15.0001 44.9415 14.9002C44.8822 14.8002 44.7975 14.7175 44.6959 14.6602C44.5943 14.6029 44.4794 14.5731 44.3626 14.5738C44.2457 14.5745 44.1312 14.6056 44.0302 14.664L26.2749 24.8305Z" fill="#EDA234"/>
<path d="M26.2888 24.8305V58.1497L24.496 57.8436C23.5379 57.6851 22.6312 57.3037 21.8498 56.7306C21.0684 56.1575 20.4345 55.4089 20 54.546V54.546V21.2036C20.4325 22.0693 21.0655 22.8209 21.8471 23.3965C22.6286 23.9722 23.5364 24.3555 24.496 24.5151L26.2888 24.8305Z" fill="#FFD27D"/>
<path d="M27.0498 24.798V59.286L40.9347 51.3504C41.0631 51.2774 41.1699 51.1721 41.2445 51.0451C41.319 50.9181 41.3587 50.7739 41.3596 50.6269V17.4932C41.3646 17.4019 41.3447 17.311 41.3019 17.2301C41.259 17.1492 41.1949 17.0814 41.1164 17.0338C41.0378 16.9862 40.9478 16.9607 40.8558 16.9599C40.7638 16.9591 40.6733 16.9831 40.5939 17.0294L27.0498 24.798Z" fill="#B3267C"/>
<path d="M27.1294 24.9139L40.6688 17.1592C40.7733 17.0993 40.8961 17.0789 41.0146 17.1019C41.133 17.125 41.2391 17.1898 41.3131 17.2845C41.287 17.2173 41.2466 17.1566 41.1947 17.1064C41.1428 17.0561 41.0806 17.0176 41.0124 16.9934C40.9442 16.9692 40.8715 16.9599 40.7993 16.9661C40.7271 16.9723 40.6571 16.9939 40.5941 17.0294L27.0547 24.7841V59.2721L27.1341 59.2257L27.1294 24.9139Z" fill="#CE387B"/>
<path d="M30.4206 26.8804V59.1469L27.5913 57.5468V25.2896L30.4206 26.8804Z" fill="#EADCF2"/>
<path d="M27.5913 25.2896L30.4206 26.8805L43.3577 19.4643L40.5098 17.8596L27.5913 25.2896Z" fill="url(#paint1_linear)"/>
<path d="M30.1313 26.4909V60.9789L44.0163 53.0294C44.1453 52.9559 44.2526 52.8499 44.3272 52.722C44.4018 52.5942 44.4411 52.449 44.4411 52.3012V19.1768C44.4404 19.088 44.4165 19.0009 44.3715 18.9242C44.3266 18.8474 44.2623 18.7837 44.185 18.7392C44.1077 18.6947 44.02 18.671 43.9306 18.6704C43.8413 18.6699 43.7533 18.6926 43.6754 18.7362L30.1313 26.4909Z" fill="#CE387B"/>
<path d="M30.3131 26.5001V60.9881C30.3131 60.9881 27.778 60.5243 27.1104 59.1793V24.8073H27.2037C27.862 26.1523 30.3131 26.5001 30.3131 26.5001Z" fill="#CE387B"/>
<path d="M30.2432 26.579V61.0902L44.1328 53.1175C44.261 53.0434 44.3673 52.9371 44.441 52.8093C44.5148 52.6815 44.5534 52.5366 44.5529 52.3893V19.2649C44.5502 19.1794 44.5259 19.0959 44.4823 19.0222C44.4386 18.9485 44.377 18.8868 44.303 18.8429C44.2291 18.7991 44.1453 18.7744 44.0592 18.7711C43.9732 18.7678 43.8877 18.7861 43.8106 18.8243L30.2432 26.579Z" fill="#B3267C"/>
<path d="M30.2711 26.579V61.0902C30.2711 61.0902 27.7407 60.6264 27.0684 59.2814V24.7702C27.7173 26.1105 30.2711 26.579 30.2711 26.579Z" fill="#E65C9C"/>
<path d="M31.0415 26.7691V61.3175L49.922 50.4831C50.0966 50.383 50.2415 50.239 50.3423 50.0656C50.4431 49.8922 50.4962 49.6955 50.4963 49.4952V16.7975C50.4966 16.6764 50.4647 16.5573 50.4037 16.4524C50.3428 16.3476 50.255 16.2606 50.1493 16.2003C50.0435 16.14 49.9236 16.1085 49.8017 16.1092C49.6798 16.1098 49.5602 16.1425 49.4551 16.2038L31.0415 26.7691Z" fill="#6A3786"/>
<path d="M31.1489 26.9222L49.5625 16.3801C49.7066 16.3002 49.875 16.275 50.0364 16.3091C50.1979 16.3432 50.3413 16.4343 50.4402 16.5656C50.4044 16.4736 50.349 16.3905 50.2777 16.3219C50.2064 16.2534 50.121 16.201 50.0273 16.1683C49.9337 16.1357 49.8341 16.1236 49.7353 16.133C49.6365 16.1423 49.5409 16.1728 49.4551 16.2224L31.0415 26.7691V61.3174L31.1489 61.2571V26.9222Z" fill="#7708B4"/>
<path d="M37.7833 30.8552V62.3842L31.7793 58.9243V27.4138L37.7833 30.8552Z" fill="#EADCF2"/>
<path d="M31.7793 27.4138L37.7833 30.8552L55.3753 20.7722L49.3432 17.3123L31.7793 27.4138Z" fill="white"/>
<path d="M37.3911 30.3311V64.8794L56.2716 54.0683C56.4462 53.9682 56.5912 53.8242 56.692 53.6508C56.7928 53.4774 56.8458 53.2806 56.8459 53.0804V20.3826C56.8422 20.2635 56.8073 20.1474 56.7448 20.0457C56.6822 19.944 56.594 19.8602 56.489 19.8027C56.3839 19.7451 56.2655 19.7157 56.1456 19.7174C56.0256 19.719 55.9081 19.7517 55.8047 19.8122L37.3911 30.3311Z" fill="#7708B4"/>
<path d="M37.6339 30.3404V64.8933L35.7664 64.5779C34.7702 64.4158 33.8272 64.0204 33.0153 63.4244C32.2035 62.8284 31.5461 62.0489 31.0977 61.1505V61.1505V26.7691H31.2237C31.6569 27.6364 32.2967 28.3855 33.0876 28.9513C33.8784 29.5171 34.7964 29.8825 35.7618 30.0157L37.6339 30.3404Z" fill="#7708B4"/>
<path d="M37.5454 30.447V65L56.4166 54.1889C56.5916 54.0896 56.7375 53.9467 56.8398 53.7742C56.9422 53.6018 56.9974 53.4058 57.0002 53.2056V20.5032C57.0009 20.3809 56.9689 20.2606 56.9074 20.1546C56.846 20.0486 56.7574 19.9606 56.6505 19.8998C56.5437 19.839 56.4226 19.8074 56.2994 19.8083C56.1763 19.8092 56.0556 19.8425 55.9497 19.9049L37.5454 30.447Z" fill="#6A3786"/>
<path d="M37.5636 30.4471V65L35.6961 64.6846C34.7002 64.5218 33.7575 64.1261 32.9457 63.5301C32.134 62.9342 31.4764 62.1552 31.0273 61.2572V61.2572V26.7089C31.4774 27.6066 32.1351 28.3856 32.9466 28.9822C33.7581 29.5787 34.7004 29.9758 35.6961 30.141L37.5636 30.4471Z" fill="#9544C2"/>
</g>
<defs>
<linearGradient id="paint0_linear" x1="49.0865" y1="-13.4792" x2="30.9926" y2="21.2372" gradientUnits="userSpaceOnUse">
<stop stop-color="#D4D1D8"/>
<stop offset="1" stop-color="white"/>
</linearGradient>
<linearGradient id="paint1_linear" x1="984.456" y1="-234.454" x2="805.546" y2="361.491" gradientUnits="userSpaceOnUse">
<stop stop-color="#D4D1D8"/>
<stop offset="1" stop-color="white"/>
</linearGradient>
<clipPath id="clip0">
<rect width="37" height="54" fill="white" transform="translate(20 11)"/>
</clipPath>
</defs>
</svg>
