<?xml version="1.0" encoding="UTF-8" standalone="no"?>
<!DOCTYPE svg PUBLIC "-//W3C//DTD SVG 1.1//EN" "http://www.w3.org/Graphics/SVG/1.1/DTD/svg11.dtd">
<svg width="100%" height="100%" viewBox="0 0 102 102" version="1.1" xmlns="http://www.w3.org/2000/svg" xmlns:xlink="http://www.w3.org/1999/xlink" xml:space="preserve" xmlns:serif="http://www.serif.com/" style="fill-rule:evenodd;clip-rule:evenodd;stroke-linejoin:round;stroke-miterlimit:2;">
    <g transform="matrix(1.33333,0,0,1.33333,0,0)">
        <g transform="matrix(0.551351,0,0,0.551351,117.776,141.96)">
            <g transform="matrix(0.855936,0,0,0.855936,-584.7,-383.802)">
                <path d="M536.521,236.311C536.74,236.019 536.223,235.906 536.066,235.579C535.73,234.884 535.878,234.112 534.831,233.295C534.698,233.191 534.544,233.072 534.418,232.964C534.309,232.875 533.722,232.413 533.599,232.388C533.431,232.353 533.361,232.64 533.374,232.775C533.435,233.368 534.333,233.702 534.338,234.172C533.224,233.796 530.592,231.017 530.396,232.055C530.301,232.556 532.179,233.677 532.489,234.015L531.8,233.624C531.485,233.426 530.896,233.078 530.78,233.556C530.675,233.991 530.978,234.112 531.243,234.317L531.641,234.645C531.322,234.53 530.792,234.123 530.677,234.713C530.634,234.931 530.779,235.087 530.93,235.217L531.35,235.557C530.875,235.411 530.525,235.89 530.995,236.255C533.058,237.856 534.686,237.824 535.085,238.006L535.161,238.031L535.21,237.944L535.305,237.774C535.404,237.604 535.465,237.663 535.566,237.496C535.774,237.15 536.28,236.633 536.521,236.311Z" style="fill:rgb(253,213,191);fill-rule:nonzero;"/>
            </g>
            <g transform="matrix(0.855936,0,0,0.855936,-584.7,-383.802)">
                <path d="M553.357,228.194C552.963,227.764 553.143,227.55 552.57,227.661C550.949,227.975 549.544,228.96 548.855,230.507C548.451,231.414 546.801,238.994 545.705,239.267C543.619,239.785 536.391,235.08 536.391,235.08C536.283,234.99 533.92,237.858 534.114,238.02C534.114,238.02 545.198,248.167 549.541,244.185C552.193,241.753 551.999,234.906 552.853,232.358C553.191,231.349 553.576,230.336 553.631,229.273C553.651,228.892 553.615,228.475 553.357,228.194Z" style="fill:rgb(204,212,221);fill-rule:nonzero;"/>
            </g>
            <g transform="matrix(0.855936,0,0,0.855936,-584.7,-383.802)">
                <path d="M558.813,290.992C558.526,291.71 558.073,292.389 557.706,293.065L557.623,293.221C557.425,293.587 557.238,293.96 557.135,294.362C557.022,294.823 557.037,295.333 557.273,295.744C557.523,296.167 557.99,296.435 558.474,296.511C558.959,296.592 559.457,296.496 559.913,296.324C560.823,295.98 561.6,295.311 562.103,294.48C562.441,293.917 562.601,293.277 562.768,292.644C562.915,292.093 562.942,291.499 563.211,290.992L558.813,290.992Z" style="fill:rgb(204,212,221);fill-rule:nonzero;"/>
            </g>
            <g transform="matrix(0.855936,0,0,0.855936,-584.7,-383.802)">
                <path d="M553.458,286.843C553.458,286.843 556.201,285.62 556.484,289.244C556.557,290.187 555.376,290.561 554.844,290.618C554.612,290.643 554.266,290.599 553.945,290.879C553.54,291.236 553.403,291.554 553.281,291.693C552.022,293.159 549.521,293.171 548.763,292.535C547.676,291.625 549.4,290.241 551.084,288.935C552.842,287.571 553.458,286.843 553.458,286.843Z" style="fill:rgb(204,212,221);fill-rule:nonzero;"/>
            </g>
            <g transform="matrix(0.855936,0,0,0.855936,-584.7,-383.802)">
                <path d="M557.312,254.908C557.368,257.871 557.469,259.797 557.551,266.903C557.551,266.903 557.067,272.563 557.067,273.117C557.067,275.462 558.205,284.742 556.4,288.095C555.992,288.855 552.791,288.627 551.771,288.353C551.43,288.262 549.951,265.607 550.216,254.83C550.236,254.063 550.25,253.629 550.25,253.629C551.884,253.482 557.282,253.243 557.312,254.908Z" style="fill:rgb(12,124,146);fill-rule:nonzero;"/>
            </g>
            <g transform="matrix(0.855936,0,0,0.855936,-584.7,-383.802)">
                <path d="M564.288,275.721C564.233,279.888 565.634,285.119 563.2,291.397C562.75,292.556 558.866,291.751 558.763,290.884C558.491,288.583 557.86,281.766 557.663,275.102C557.641,274.348 557.601,267.706 557.359,265.797L557.359,265.795C557.228,264.753 555.795,260.453 555.591,258.974C555.429,257.806 555.368,256.586 555.312,255.271C555.359,255.349 565.477,254.257 565.746,255.047C567.262,259.495 564.301,274.768 564.288,275.721Z" style="fill:rgb(12,145,171);fill-rule:nonzero;"/>
            </g>
            <g transform="matrix(0.855936,0,0,0.855936,-584.7,-383.802)">
                <path d="M561.485,233.902L565.33,233.69C565.409,232.085 565.258,231.196 564.635,230.269C563.813,229.046 558.946,227.483 557.785,227.377C555.779,227.193 554.09,226.354 552.063,228.881C551.029,230.169 550.649,232.622 550.532,234.252L551.248,234.212L552.234,252.106L561.345,251.604L560.81,241.894L561.922,241.832L561.485,233.902Z" style="fill:url(#_Linear1);"/>
            </g>
            <g transform="matrix(0.855936,0,0,0.855936,-584.7,-383.802)">
                <path d="M558.472,228.888C559.182,228.673 560.034,228.274 560.024,227.815C559.999,226.574 560.091,224.056 560.091,224.056L555.647,225.766C555.647,225.766 555.476,227.89 555.579,228.423C555.702,229.069 557.405,229.212 558.472,228.888Z" style="fill:rgb(252,198,167);fill-rule:nonzero;"/>
            </g>
            <g transform="matrix(0.855936,0,0,0.855936,-584.7,-383.802)">
                <path d="M556.133,235.76C555.553,234.025 554.401,233.878 554.637,228.05C554.664,227.399 555.318,226.939 555.318,226.929C555.037,227.006 554.457,227.12 553.806,227.283C553.426,227.378 553.025,227.494 552.655,227.63C552.053,227.843 551.521,228.117 551.248,228.454C549.872,230.177 550.366,234.556 550.384,235.714C550.396,236.443 550.505,237.463 550.632,238.662C550.741,239.702 550.869,240.881 550.956,242.121C551.078,243.759 550.532,247.399 550.297,249.916C550.123,251.78 548.978,268.857 548.995,269.147C548.995,269.147 549.257,270.527 552.837,270.934C554.986,271.179 554.832,261.969 555.393,262.007C555.393,262.007 555.958,241.921 556.133,235.76Z" style="fill:rgb(225,231,237);fill-rule:nonzero;"/>
            </g>
            <g transform="matrix(0.855936,0,0,0.855936,-584.7,-383.802)">
                <path d="M565.529,252.577C564.566,249.79 564.577,248.051 564.361,245.772C564.028,242.293 565.201,239.583 565.653,237.431C565.821,236.624 567.004,232.13 566.537,230.993C566.191,230.153 564.966,229.556 564.419,229.341C564.28,229.289 562.297,228.519 560.385,227.036C558.552,233.371 556.133,235.76 556.133,235.76C555.908,240.051 554.647,257.893 554.975,263.399C555.128,263.845 555.026,270.622 555.823,271.072C557.617,272.086 564.021,272.56 566.106,270.285C566.236,270.143 567.44,258.108 565.529,252.577Z" style="fill:rgb(235,240,245);fill-rule:nonzero;"/>
            </g>
            <g transform="matrix(0.855936,0,0,0.855936,-584.7,-383.802)">
                <path d="M555.662,258.731C555.662,258.272 555.291,257.901 554.832,257.901C554.374,257.901 554.002,258.272 554.002,258.731C554.002,259.189 554.374,259.56 554.832,259.56C555.291,259.56 555.662,259.189 555.662,258.731Z" style="fill:rgb(254,254,253);fill-rule:nonzero;"/>
            </g>
            <g transform="matrix(0.855936,0,0,0.855936,-584.7,-383.802)">
                <path d="M556.256,228.626C556.047,228.43 555.861,228.241 555.809,227.89C555.739,227.42 555.784,226.844 555.784,226.844C555.784,226.844 555.717,226.853 555.377,226.92L555.024,227.34L554.645,227.361L554.701,228.382L554.327,228.402C554.388,228.724 555.121,230.332 555.356,230.726C555.446,230.665 556.903,229.125 557.096,229.054C556.826,228.926 556.475,228.833 556.256,228.626Z" style="fill:url(#_Linear2);"/>
            </g>
            <g transform="matrix(0.855936,0,0,0.855936,-584.7,-383.802)">
                <path d="M553.129,229.055L554.144,230.611L553.422,232.815L556.133,235.76C556.133,235.76 554.783,228.681 556.003,226.466C557.223,224.252 553.129,229.055 553.129,229.055Z" style="fill:rgb(254,254,253);fill-rule:nonzero;"/>
            </g>
            <g transform="matrix(0.855936,0,0,0.855936,-584.7,-383.802)">
                <path d="M560.694,227.928L560.385,227.036C560.327,226.898 560.027,226.621 560.027,226.621C559.964,226.888 559.896,227.163 559.758,227.398C559.621,227.629 559.412,227.848 559.222,228.029C558.922,228.315 558.581,228.547 558.221,228.738C557.616,229.06 557.092,229.05 557.096,229.054L558.759,230.981C558.876,230.749 561.057,228.759 560.694,227.928Z" style="fill:url(#_Linear3);"/>
            </g>
            <g transform="matrix(0.855936,0,0,0.855936,-584.7,-383.802)">
                <path d="M559.264,231.056L561.966,229.055C561.966,229.055 560.942,226.929 560.027,226.621C560.163,226.839 556.173,235.448 556.133,235.76L560.091,233.334L559.264,231.056Z" style="fill:rgb(254,254,253);fill-rule:nonzero;"/>
            </g>
            <g transform="matrix(0.855936,0,0,0.855936,-584.7,-383.802)">
                <path d="M554.383,227.42C554.949,227.881 555.723,228.007 556.509,227.912C557.536,227.797 558.604,227.315 559.327,226.708L559.525,226.498L559.557,226.478C560.29,225.629 561.358,223.556 561.578,222.655C561.61,222.487 561.641,222.32 561.673,222.162C562.049,219.397 559.557,218.727 557.651,217.261C556.572,216.423 555.347,216.151 554.394,216.591C553.576,216.968 552.98,217.879 552.854,219.377C552.592,222.644 552.634,226.027 554.383,227.42Z" style="fill:rgb(253,213,191);fill-rule:nonzero;"/>
            </g>
            <g transform="matrix(0.855936,0,0,0.855936,-584.7,-383.802)">
                <path d="M552.867,219.229C553.042,219.229 552.879,217.946 555.198,218.761C556.834,219.336 557.56,218.592 558.009,219.212C558.405,219.758 558.51,220.858 558.372,221.802C558.304,222.254 557.946,224.8 558.768,224.149C559.287,223.737 559.097,224.203 559.278,224.509C559.764,225.318 559.635,226.107 559.491,226.552C560.147,226.11 562.598,223.697 562.892,221.417C563.445,217.118 560.972,216.704 560.972,216.704C560.972,216.704 558.55,213.435 555.094,215.222C552.196,216.72 552.562,219.229 552.867,219.229Z" style="fill:rgb(68,28,46);fill-rule:nonzero;"/>
            </g>
            <g transform="matrix(0.855936,0,0,0.855936,-584.7,-383.802)">
                <path d="M560.972,216.704L560.88,216.588C559.76,217.413 558.773,218.453 558.241,219.683C558.441,220.27 558.477,221.081 558.372,221.802C558.304,222.254 557.946,224.8 558.768,224.149C559.287,223.737 559.097,224.203 559.278,224.509C559.764,225.318 559.635,226.107 559.491,226.552C560.147,226.11 562.598,223.697 562.892,221.417C563.445,217.118 560.972,216.704 560.972,216.704Z" style="fill:rgb(55,22,35);fill-rule:nonzero;"/>
            </g>
            <g transform="matrix(0.855936,0,0,0.855936,-584.7,-383.802)">
                <path d="M558.449,225.736C558.828,226.06 559.561,225.823 560.086,225.207C560.611,224.591 560.729,223.83 560.349,223.506C559.97,223.183 559.237,223.42 558.713,224.036C558.188,224.651 558.07,225.413 558.449,225.736Z" style="fill:rgb(253,213,191);fill-rule:nonzero;"/>
            </g>
            <g transform="matrix(0.855936,0,0,0.855936,-584.7,-383.802)">
                <path d="M558.954,225.144C559.132,225.295 559.475,225.184 559.721,224.896C559.967,224.607 560.023,224.25 559.844,224.099C559.667,223.947 559.323,224.058 559.078,224.347C558.831,224.635 558.776,224.992 558.954,225.144Z" style="fill:rgb(246,195,166);fill-rule:nonzero;"/>
            </g>
            <g transform="matrix(0.855936,0,0,0.855936,-584.7,-383.802)">
                <path d="M553.84,256.905C554.199,256.494 554.572,256.093 554.943,255.666C554.491,256.15 554.008,256.589 553.498,257.003C553.382,257.09 553.162,257.275 553.012,257.151C552.71,256.895 553.882,255.71 554.097,255.475C554.289,255.268 554.482,255.073 554.662,254.867C554.195,255.202 553.596,255.601 553.141,255.07L553.076,254.926C553.142,254.707 553.77,254.468 553.948,254.375C554.554,254.038 555.04,253.513 555.647,253.189C555.742,253.141 556.323,252.933 556.469,252.893C556.493,252.891 556.805,252.686 557.007,252.443L557.183,252.694L558.019,252.106C558.535,252.485 559.011,252.908 559.417,253.379L559.101,254.132C558.897,254.466 558.677,254.777 558.511,254.994C558.254,255.308 558.054,255.566 557.813,255.904C557.628,256.186 557.267,256.586 557.028,256.823C556.431,257.373 556.075,257.697 555.48,258.257C555.389,258.354 555.273,258.442 555.136,258.455C555.024,258.466 554.995,258.419 555.022,258.317L555.033,258.302C555.097,257.945 555.74,257.103 555.888,256.712C555.469,257.281 555.054,257.761 554.552,258.25C554.425,258.363 554.157,258.567 554.009,258.343C553.879,258.168 554.041,257.913 554.141,257.791C554.339,257.507 554.537,257.236 554.736,256.966C554.402,257.388 554.052,257.774 553.647,258.103C553.554,258.175 553.43,258.188 553.348,258.121C553.047,257.875 553.671,257.098 553.84,256.905Z" style="fill:rgb(253,213,191);fill-rule:nonzero;"/>
            </g>
            <g transform="matrix(0.855936,0,0,0.855936,-584.7,-383.802)">
                <path d="M565.063,229.639C564.868,229.609 564.119,229.993 564.119,232.868C564.119,237.742 564.511,239.247 564.026,242.822C562.065,245.985 559.359,247.79 556.457,252.331C556.399,253.525 558.398,254.604 558.964,254.927C558.964,254.927 567.857,246.003 567.94,245.52C569.921,241.68 569.186,233.921 568.721,232.449C568.252,230.966 566.84,229.913 565.063,229.639Z" style="fill:rgb(254,254,253);fill-rule:nonzero;"/>
            </g>
            <g transform="matrix(0.855936,0,0,0.855936,-584.7,-383.802)">
                <path d="M556.713,240.288C556.713,239.83 556.341,239.458 555.882,239.458C555.424,239.458 555.053,239.83 555.053,240.288C555.053,240.746 555.424,241.118 555.882,241.118C556.341,241.118 556.713,240.746 556.713,240.288Z" style="fill:rgb(254,254,253);fill-rule:nonzero;"/>
            </g>
            <g transform="matrix(0.855936,0,0,0.855936,-584.7,-383.802)">
                <path d="M556.371,247.253C556.371,246.795 555.999,246.423 555.541,246.423C555.082,246.423 554.711,246.795 554.711,247.253C554.711,247.711 555.082,248.083 555.541,248.083C555.999,248.083 556.371,247.711 556.371,247.253Z" style="fill:rgb(254,254,253);fill-rule:nonzero;"/>
            </g>
            <g transform="matrix(0.855936,0,0,0.855936,-584.7,-383.802)">
                <path d="M544.441,278.909L530.73,270.993L544.441,263.077L544.441,278.909ZM528.731,269.839L460.861,230.655L460.861,214.747L473.43,207.49L544.441,248.488L544.441,260.771L528.731,269.839ZM544.441,246.173L475.43,206.33L505.583,188.924L544.441,211.358L544.441,239.176C541.589,238.464 536.391,235.08 536.391,235.08C536.39,235.079 536.387,235.078 536.385,235.078C536.346,235.078 536.201,235.217 536.003,235.434C535.745,234.777 535.805,234.056 534.831,233.295C534.698,233.191 534.544,233.072 534.418,232.964C534.309,232.875 533.722,232.413 533.599,232.388C533.589,232.386 533.58,232.385 533.571,232.385C533.423,232.385 533.361,232.648 533.374,232.775C533.435,233.368 534.333,233.702 534.338,234.172C533.397,233.855 531.375,231.824 530.65,231.824C530.516,231.824 530.426,231.893 530.396,232.055C530.301,232.556 532.179,233.677 532.489,234.015L531.8,233.624C531.602,233.499 531.295,233.315 531.066,233.315C530.931,233.315 530.823,233.379 530.78,233.556C530.675,233.991 530.978,234.112 531.243,234.317L531.641,234.645C531.449,234.576 531.181,234.401 530.973,234.401C530.835,234.401 530.723,234.478 530.677,234.713C530.634,234.931 530.779,235.087 530.93,235.217L531.35,235.557C531.29,235.539 531.232,235.53 531.177,235.53C530.799,235.53 530.584,235.936 530.995,236.255C532.293,237.262 533.42,237.623 534.175,237.798C534.112,237.917 534.086,237.996 534.114,238.02C534.114,238.02 539.659,243.096 544.441,244.659L544.441,246.173ZM460.861,212.432L460.861,200.228L471.43,206.33L460.861,212.432ZM473.43,205.17L460.861,197.914L460.861,163.104L503.576,187.765L473.43,205.17Z" style="fill:url(#_Linear4);"/>
            </g>
            <g transform="matrix(0.855936,0,0,0.855936,-584.7,-383.802)">
                <path d="M530.73,270.993L528.731,269.839L544.441,260.771L544.441,263.077L530.73,270.993Z" style="fill:url(#_Linear5);"/>
            </g>
            <g transform="matrix(0.855936,0,0,0.855936,-584.7,-383.802)">
                <path d="M460.861,214.747L460.861,212.432L471.43,206.33L473.43,207.49L460.861,214.747ZM475.43,206.33L473.43,205.17L503.576,187.765L505.583,188.924L475.43,206.33Z" style="fill:url(#_Linear6);"/>
            </g>
            <g transform="matrix(0.855936,0,0,0.855936,-584.7,-383.802)">
                <path d="M544.441,248.488L473.43,207.49L471.43,206.33L460.861,200.228L460.861,197.914L473.43,205.17L475.43,206.33L544.441,246.173L544.441,248.488Z" style="fill:url(#_Linear7);"/>
            </g>
            <g transform="matrix(0.855936,0,0,0.855936,-584.7,-383.802)">
                <path d="M534.175,237.798C533.42,237.623 532.293,237.262 530.995,236.255C530.584,235.936 530.799,235.53 531.177,235.53C531.232,235.53 531.29,235.539 531.35,235.557L530.93,235.217C530.779,235.087 530.634,234.931 530.677,234.713C530.723,234.478 530.835,234.401 530.973,234.401C531.181,234.401 531.449,234.576 531.641,234.645L531.243,234.317C530.978,234.112 530.675,233.991 530.78,233.556C530.823,233.379 530.931,233.315 531.066,233.315C531.295,233.315 531.602,233.499 531.8,233.624L532.489,234.015C532.179,233.677 530.301,232.556 530.396,232.055C530.426,231.893 530.516,231.824 530.65,231.824C531.375,231.824 533.397,233.855 534.338,234.172C534.333,233.702 533.435,233.368 533.374,232.775C533.361,232.648 533.423,232.385 533.571,232.385C533.58,232.385 533.589,232.386 533.599,232.388C533.722,232.413 534.309,232.875 534.418,232.964C534.544,233.072 534.698,233.191 534.831,233.295C535.805,234.056 535.745,234.777 536.003,235.434C535.443,236.048 534.451,237.286 534.175,237.798Z" style="fill:rgb(254,224,206);fill-rule:nonzero;"/>
            </g>
            <g transform="matrix(0.855936,0,0,0.855936,-584.7,-383.802)">
                <path d="M544.441,244.659C539.659,243.096 534.114,238.02 534.114,238.02C534.086,237.996 534.112,237.917 534.175,237.798C534.451,237.286 535.443,236.048 536.003,235.434C536.201,235.217 536.346,235.078 536.385,235.078C536.387,235.078 536.39,235.079 536.391,235.08C536.391,235.08 541.589,238.464 544.441,239.176L544.441,244.659Z" style="fill:rgb(215,222,228);fill-rule:nonzero;"/>
            </g>
            <g transform="matrix(0.855936,0,0,0.855936,-584.7,-383.802)">
                <path d="M527.175,208.234C527.273,207.86 527.721,207.811 528.633,208.453C529.256,208.893 530.128,210.277 530.221,211.131C530.884,211.208 532.021,212.219 532.552,213.06C532.893,213.604 533.145,214.23 533.278,214.821C533.36,215.193 533.389,215.637 533.315,215.962C534.247,216.244 535.205,217.606 535.598,218.897C535.824,219.643 535.89,220.381 535.739,220.95C535.693,221.132 535.586,221.345 535.443,221.518C535.735,221.686 537.349,223.316 537.325,225.504C537.302,227.373 536.226,227.494 536.077,227.581C537.669,229.701 536.936,232.201 535.469,231.411L535.511,231.546C536.633,234.068 534.657,235.179 533.134,233.574C533.035,234.025 532.801,234.384 532.509,234.584C531.914,234.986 530.768,234.622 530.125,233.572C529.984,233.66 529.843,233.721 529.731,233.751C529.039,233.937 527.975,233.569 527.36,232.342C527.242,232.112 527.167,231.708 527.119,231.341L527.119,209.652C527.119,209.652 527.1,208.529 527.175,208.234Z" style="fill:rgb(221,220,220);fill-rule:nonzero;"/>
            </g>
            <g transform="matrix(0.855936,0,0,0.855936,-584.7,-383.802)">
                <path d="M527.303,231.43C527.38,232.001 527.467,232.223 527.502,232.291C527.731,232.748 528.043,233.092 528.426,233.314C528.818,233.541 529.255,233.615 529.621,233.516C529.736,233.487 529.87,233.424 529.992,233.349C530.061,233.302 530.177,233.364 530.25,233.487C530.505,233.902 530.82,234.14 531.04,234.269C531.523,234.547 532.045,234.581 532.372,234.361C532.652,234.17 532.865,233.827 532.955,233.424L533.05,233.336L533.205,233.419C533.377,233.6 533.56,233.748 533.752,233.858C534.418,234.243 535.121,234.129 535.459,233.582C535.631,233.302 535.845,232.672 535.359,231.58L535.308,231.426L535.3,231.397L535.314,231.206L535.464,231.193C536.026,231.496 536.515,231.249 536.71,230.56C536.888,229.929 536.802,228.801 535.977,227.702L535.894,227.496L535.946,227.356L536.054,227.312C536.346,227.211 537.121,226.938 537.141,225.393C537.148,224.595 536.928,223.796 536.487,223.021C536.046,222.251 535.54,221.786 535.443,221.729L535.28,221.526L535.289,221.312C535.413,221.162 535.516,220.968 535.562,220.793C535.695,220.285 535.646,219.606 535.426,218.882C535.094,217.787 534.372,216.739 533.67,216.334C533.565,216.273 533.459,216.226 533.357,216.196L533.186,216.039L533.134,215.811C533.196,215.542 533.183,215.147 533.101,214.781C532.973,214.211 532.734,213.635 532.43,213.15C532.066,212.573 531.366,211.892 530.802,211.567C530.602,211.451 530.43,211.385 530.291,211.367L530.129,211.26L530.039,211.053C529.956,210.302 529.14,209.024 528.613,208.653C527.912,208.162 527.439,208.065 527.354,208.392C527.298,208.614 527.298,209.45 527.303,209.754L527.303,231.43ZM528.426,233.741C527.934,233.456 527.516,232.992 527.216,232.395C527.097,232.156 527.005,231.787 526.937,231.27L526.934,231.235L526.934,209.545C526.933,209.432 526.916,208.388 526.997,208.078C527.052,207.868 527.285,207.438 528.268,208.006C528.389,208.076 528.518,208.158 528.653,208.253C529.274,208.691 530.13,209.967 530.357,210.937C530.492,210.98 530.641,211.046 530.802,211.141C531.466,211.523 532.235,212.277 532.673,212.969C533.029,213.535 533.306,214.209 533.455,214.863C533.529,215.199 533.558,215.543 533.535,215.835C534.418,216.264 535.357,217.563 535.767,218.913C536.018,219.741 536.072,220.52 535.918,221.108C535.88,221.252 535.814,221.401 535.73,221.54C536.01,221.808 536.405,222.275 536.748,222.875C537.256,223.761 537.519,224.708 537.508,225.613C537.491,227.202 536.737,227.606 536.377,227.744C537.184,228.973 537.261,230.184 537.065,230.88C536.859,231.613 536.361,231.931 535.759,231.747C536.102,232.628 536.115,233.43 535.785,233.966C535.38,234.625 534.565,234.753 533.752,234.284C533.583,234.186 533.419,234.066 533.26,233.923C533.139,234.302 532.919,234.617 532.645,234.806C532.245,235.079 531.63,235.035 531.04,234.694C530.698,234.497 530.389,234.212 530.138,233.866C530.038,233.919 529.933,233.961 529.838,233.987C529.41,234.099 528.895,234.012 528.426,233.741Z" style="fill:rgb(249,250,252);fill-rule:nonzero;"/>
            </g>
            <g transform="matrix(0.855936,0,0,0.855936,-584.7,-383.802)">
                <path d="M531.362,217.331C531.276,217.282 531.198,217.167 531.181,217.057C531.161,216.929 531.227,216.854 531.327,216.89C533.139,217.517 533.173,215.547 533.173,215.465C533.173,215.347 533.256,215.3 533.357,215.36L533.36,215.36C533.46,215.419 533.542,215.561 533.542,215.678C533.542,215.702 533.511,218.082 531.399,217.349L531.362,217.331Z" style="fill:rgb(249,250,252);fill-rule:nonzero;"/>
            </g>
            <g transform="matrix(0.855936,0,0,0.855936,-584.7,-383.802)">
                <path d="M533.065,234.026L533.01,233.985C532.913,233.894 532.859,233.745 532.89,233.652L532.891,233.646C532.949,233.473 533.433,231.914 532.716,230.378C532.317,229.524 531.604,228.801 530.597,228.237L530.596,228.236C530.493,228.177 530.41,228.036 530.41,227.918C530.409,227.799 530.489,227.75 530.592,227.807C531.72,228.441 532.538,229.282 533.014,230.296C533.822,232.03 533.346,233.667 533.242,233.979L533.065,234.026Z" style="fill:rgb(249,250,252);fill-rule:nonzero;"/>
            </g>
            <g transform="matrix(0.855936,0,0,0.855936,-584.7,-383.802)">
                <path d="M531.515,225.55L531.412,225.458C531.327,225.344 531.304,225.197 531.361,225.131C531.618,224.83 531.63,223.78 531.202,222.614C530.985,222.027 530.479,220.958 529.5,220.393C527.67,219.336 527.316,221.658 527.301,221.758C527.285,221.865 527.191,221.891 527.09,221.814C526.991,221.74 526.921,221.591 526.937,221.484C526.94,221.455 527.35,218.727 529.5,219.967C530.366,220.468 531.086,221.401 531.527,222.6C531.973,223.818 532.037,225.112 531.668,225.543L531.515,225.55Z" style="fill:rgb(249,250,252);fill-rule:nonzero;"/>
            </g>
            <g transform="matrix(0.855936,0,0,0.855936,-584.7,-383.802)">
                <path d="M531.316,222.532L531.191,222.404C531.116,222.281 531.111,222.142 531.178,222.096C532.022,221.517 532.951,221.501 533.939,222.046C535.498,222.903 536.623,224.834 536.67,224.917C536.741,225.041 536.741,225.174 536.67,225.217C536.6,225.259 536.482,225.191 536.408,225.067C536.398,225.049 535.347,223.244 533.944,222.475C533.062,221.988 532.223,222.012 531.452,222.542L531.316,222.532Z" style="fill:rgb(249,250,252);fill-rule:nonzero;"/>
            </g>
            <g transform="matrix(0.855936,0,0,0.855936,-584.7,-383.802)">
                <path d="M530.125,233.784C530.025,233.728 529.943,233.59 529.941,233.473L529.969,233.295C530.038,233.007 530.18,232.408 529.728,231.705C529.651,231.585 529.641,231.445 529.706,231.395C529.773,231.341 529.89,231.398 529.967,231.518C530.592,232.491 530.399,233.297 530.328,233.602L530.31,233.684C530.307,233.794 530.229,233.84 530.13,233.788L530.125,233.784Z" style="fill:rgb(249,250,252);fill-rule:nonzero;"/>
            </g>
            <g transform="matrix(0.855936,0,0,0.855936,-584.7,-383.802)">
                <path d="M530.37,218.715L530.366,218.712C529.362,218.095 528.331,216.726 527.962,215.525C527.649,214.509 527.821,213.702 528.441,213.249C528.897,212.917 529.09,212.449 529.009,211.856C528.875,210.89 528.049,209.875 528.041,209.865C527.953,209.757 527.92,209.608 527.97,209.534C528.018,209.46 528.13,209.486 528.219,209.594C528.26,209.643 529.208,210.801 529.372,211.992C529.474,212.729 529.254,213.302 528.718,213.691C528.189,214.076 528.044,214.719 528.3,215.552C528.615,216.58 529.508,217.759 530.377,218.292C530.478,218.355 530.557,218.5 530.553,218.615C530.551,218.728 530.469,218.772 530.37,218.715Z" style="fill:rgb(249,250,252);fill-rule:nonzero;"/>
            </g>
            <g transform="matrix(0.855936,0,0,0.855936,-584.7,-383.802)">
                <path d="M527.339,229.17C527.185,229.081 527.078,228.986 527.069,228.978C526.97,228.89 526.914,228.739 526.942,228.641C526.969,228.545 527.07,228.537 527.167,228.625C527.173,228.629 527.48,228.897 527.756,228.848C527.998,228.804 528.154,228.538 528.223,228.057C528.239,227.949 528.331,227.922 528.434,228C528.534,228.076 528.603,228.225 528.588,228.332C528.503,228.932 528.287,229.265 527.952,229.322C527.734,229.359 527.507,229.268 527.339,229.17Z" style="fill:rgb(249,250,252);fill-rule:nonzero;"/>
            </g>
            <g transform="matrix(0.855936,0,0,0.855936,-584.7,-383.802)">
                <path d="M533.926,229.434C533.842,229.386 533.768,229.273 533.747,229.165C533.724,229.036 533.788,228.957 533.886,228.988C534.151,229.072 534.32,229.037 534.39,228.889C534.513,228.626 534.325,228.027 534.242,227.82C534.19,227.689 534.218,227.574 534.304,227.563C534.639,227.522 534.813,227.373 534.826,227.121C534.849,226.72 534.464,226.148 534.462,226.143L534.39,225.948L534.441,225.815C534.818,225.585 534.731,225.192 534.649,224.98C534.546,224.714 534.38,224.544 534.319,224.527C534.221,224.499 534.121,224.372 534.096,224.244C534.07,224.116 534.129,224.034 534.229,224.062C534.48,224.132 534.798,224.513 534.97,224.95C535.17,225.465 535.117,225.91 534.83,226.171C534.99,226.454 535.217,226.938 535.197,227.356C535.179,227.709 534.992,227.929 534.641,228.012C534.743,228.332 534.889,228.911 534.731,229.251C534.611,229.506 534.356,229.573 533.97,229.452L533.926,229.434Z" style="fill:rgb(249,250,252);fill-rule:nonzero;"/>
            </g>
            <g transform="matrix(0.855936,0,0,0.855936,-584.7,-383.802)">
                <path d="M531.827,226.57C531.745,226.524 531.671,226.418 531.649,226.31L531.643,226.268C531.628,226.143 531.566,225.708 531.343,225.403C531.22,225.234 531.063,225.126 530.863,225.065C530.763,225.036 530.664,224.909 530.641,224.782C530.616,224.653 530.676,224.572 530.775,224.6C531.076,224.69 531.338,224.883 531.55,225.17C531.891,225.636 531.983,226.199 532.009,226.421L532.008,226.421C532.027,226.542 531.968,226.616 531.876,226.59L531.827,226.57Z" style="fill:rgb(249,250,252);fill-rule:nonzero;"/>
            </g>
            <g transform="matrix(0.855936,0,0,0.855936,-584.7,-383.802)">
                <path d="M534.402,220.453C534.304,220.395 534.222,220.261 534.218,220.143L534.228,220.064C534.324,219.679 534.299,219.288 534.158,218.995C534.047,218.764 533.853,218.565 533.58,218.403C533.479,218.342 533.399,218.198 533.4,218.082C533.401,217.967 533.483,217.921 533.583,217.978L533.587,217.979C533.978,218.213 534.27,218.525 534.451,218.905C534.664,219.348 534.711,219.871 534.585,220.375L534.585,220.374C534.572,220.466 534.5,220.504 534.411,220.457L534.402,220.453Z" style="fill:rgb(249,250,252);fill-rule:nonzero;"/>
            </g>
            <g transform="matrix(0.855936,0,0,0.855936,-584.7,-383.802)">
                <path d="M528.541,226.242L528.411,226.105C528.093,225.554 527.953,225.119 527.998,224.808C528.026,224.611 528.144,224.372 528.546,224.362C528.614,224.349 528.708,224.407 528.77,224.508C528.848,224.631 528.857,224.769 528.79,224.819L528.718,224.839C528.451,224.845 528.377,224.974 528.362,225.082C528.331,225.306 528.513,225.679 528.672,225.954C528.744,226.077 528.744,226.211 528.672,226.253L528.541,226.242Z" style="fill:rgb(249,250,252);fill-rule:nonzero;"/>
            </g>
            <g transform="matrix(0.855936,0,0,0.855936,-584.7,-383.802)">
                <path d="M531.302,215.129C530.933,214.917 530.661,214.644 530.495,214.317C530.374,214.081 530.253,213.707 530.361,213.26L530.52,213.168C530.621,213.212 530.712,213.348 530.728,213.471L530.718,213.568C530.647,213.863 530.711,214.078 530.776,214.207C530.912,214.472 531.207,214.661 531.43,214.773C531.53,214.822 531.62,214.963 531.626,215.083C531.632,215.205 531.555,215.263 531.454,215.211L531.302,215.129Z" style="fill:rgb(249,250,252);fill-rule:nonzero;"/>
            </g>
            <g transform="matrix(0.855936,0,0,0.855936,-584.7,-383.802)">
                <path d="M525.953,207.529C525.855,207.042 525.409,206.477 524.496,206.065C523.87,205.783 523.002,206.163 522.906,206.907C522.244,206.22 521.107,205.917 520.577,206.148C520.234,206.295 519.984,206.632 519.851,207.07C519.768,207.345 519.739,207.756 519.813,208.17C518.88,207.373 517.925,207.628 517.531,208.468C517.305,208.952 517.24,209.616 517.388,210.356C517.435,210.596 517.543,210.928 517.685,211.267C517.395,211.099 515.779,210.864 515.804,213.078C515.825,214.974 516.905,216.339 517.051,216.597C515.459,216.88 516.192,220.225 517.658,221.126L517.617,221.217C516.494,222.44 518.472,225.836 519.992,225.987C520.093,226.553 520.328,227.181 520.62,227.72C521.214,228.812 522.36,229.768 523.004,229.46C523.143,229.71 523.284,229.934 523.398,230.096C524.09,231.08 525.154,231.94 525.769,231.426C525.886,231.329 525.961,231.012 526.01,230.701L526.01,209.011C526.01,209.011 526.031,207.911 525.953,207.529Z" style="fill:rgb(221,220,220);fill-rule:nonzero;"/>
            </g>
            <g transform="matrix(0.855936,0,0,0.855936,-584.7,-383.802)">
                <path d="M523.004,229.246L523.137,229.391C523.258,229.606 523.393,229.824 523.507,229.987C523.874,230.508 524.309,230.936 524.702,231.163C525.085,231.385 525.396,231.4 525.627,231.208C525.66,231.179 525.75,231.06 525.825,230.578L525.827,208.905C525.831,208.604 525.832,207.768 525.775,207.479C525.691,207.056 525.217,206.604 524.516,206.288C523.989,206.051 523.174,206.386 523.089,207.042L523,207.145L522.838,207.066C522.7,206.919 522.526,206.789 522.327,206.672C521.763,206.348 521.064,206.22 520.7,206.376C520.395,206.509 520.156,206.813 520.029,207.232C519.945,207.504 519.932,207.884 519.992,208.226L519.945,208.396L519.77,208.352C519.669,208.265 519.565,208.191 519.46,208.129C518.758,207.724 518.034,207.937 517.702,208.65C517.482,209.119 517.435,209.744 517.568,210.405C517.612,210.631 517.715,210.944 517.841,211.24L517.848,211.462L517.685,211.479C517.589,211.423 517.083,211.303 516.643,211.564C516.198,211.827 515.979,212.372 515.989,213.183C516.007,214.747 516.784,215.916 517.075,216.357L517.181,216.524L517.235,216.726L517.153,216.834C516.327,216.98 516.241,218.01 516.419,218.846C516.612,219.759 517.102,220.571 517.664,220.917L517.815,221.102L517.827,221.309L517.818,221.328L517.771,221.424C517.284,221.955 517.499,222.834 517.671,223.311C518.007,224.249 518.709,225.173 519.378,225.559C519.568,225.668 519.752,225.733 519.924,225.751L520.078,225.848L520.172,226.045C520.263,226.553 520.474,227.139 520.757,227.654C521.081,228.253 521.604,228.819 522.086,229.099C522.307,229.225 522.624,229.353 522.88,229.229L523.004,229.246ZM524.702,231.59C524.232,231.318 523.719,230.814 523.289,230.206C523.193,230.07 523.089,229.909 522.989,229.737C522.737,229.795 522.431,229.724 522.086,229.524C521.498,229.183 520.882,228.517 520.485,227.786C520.208,227.279 519.989,226.711 519.867,226.189C519.71,226.151 519.546,226.082 519.378,225.984C518.565,225.515 517.748,224.445 517.343,223.32C517.015,222.406 517.026,221.619 517.37,221.13C516.766,220.619 516.271,219.728 516.064,218.756C515.866,217.832 515.943,216.709 516.75,216.414C516.392,215.86 515.638,214.586 515.62,212.974C515.61,212.059 515.873,211.415 516.379,211.114C516.722,210.911 517.117,210.901 517.399,210.957C517.314,210.721 517.248,210.495 517.21,210.307C517.057,209.542 517.111,208.824 517.362,208.287C517.771,207.41 518.706,207.194 519.593,207.787C519.572,207.469 519.598,207.155 519.675,206.907C519.82,206.423 520.101,206.071 520.456,205.916C520.893,205.728 521.663,205.864 522.327,206.247C522.487,206.339 522.636,206.443 522.771,206.558C523,205.849 523.854,205.561 524.476,205.842C524.611,205.902 524.74,205.969 524.861,206.038C525.843,206.604 526.077,207.304 526.132,207.578C526.211,207.982 526.196,209.007 526.196,209.123L526.196,230.808L526.19,230.84C526.123,231.28 526.032,231.541 525.913,231.644C525.612,231.892 525.194,231.875 524.702,231.59Z" style="fill:rgb(249,250,252);fill-rule:nonzero;"/>
            </g>
            <g transform="matrix(0.855936,0,0,0.855936,-584.7,-383.802)">
                <path d="M521.767,211.792L521.731,211.766C519.616,210.058 519.586,207.645 519.586,207.622C519.586,207.504 519.669,207.455 519.77,207.514C519.875,207.573 519.955,207.717 519.955,207.833C519.956,207.918 519.989,209.925 521.802,211.392C521.903,211.472 521.968,211.621 521.945,211.726C521.931,211.816 521.854,211.843 521.767,211.792Z" style="fill:rgb(249,250,252);fill-rule:nonzero;"/>
            </g>
            <g transform="matrix(0.855936,0,0,0.855936,-584.7,-383.802)">
                <path d="M519.888,226.274L520.063,226.311L519.885,226.268C519.783,225.836 519.306,223.649 520.116,222.85C520.59,222.382 521.406,222.486 522.537,223.157C522.638,223.216 522.721,223.361 522.719,223.478C522.718,223.595 522.632,223.636 522.533,223.58C521.523,222.983 520.81,222.881 520.412,223.275C519.695,223.981 520.18,226.1 520.236,226.339L520.063,226.311L519.888,226.274Z" style="fill:rgb(249,250,252);fill-rule:nonzero;"/>
            </g>
            <g transform="matrix(0.855936,0,0,0.855936,-584.7,-383.802)">
                <path d="M521.612,219.835L521.459,219.651C521.091,218.792 521.154,217.572 521.601,216.87C522.041,216.18 522.761,216.076 523.63,216.578C525.778,217.818 526.188,221.022 526.19,221.053C526.206,221.179 526.137,221.248 526.037,221.207C525.937,221.167 525.842,221.032 525.827,220.907C525.814,220.792 525.46,218.062 523.63,217.003C522.651,216.439 522.143,216.921 521.926,217.259C521.498,217.931 521.51,218.993 521.768,219.594C521.823,219.725 521.801,219.843 521.716,219.858L521.612,219.835Z" style="fill:rgb(249,250,252);fill-rule:nonzero;"/>
            </g>
            <g transform="matrix(0.855936,0,0,0.855936,-584.7,-383.802)">
                <path d="M521.813,217.047L521.677,216.898C520.904,215.475 520.065,214.483 519.181,213.951L519.117,213.914C517.748,213.122 516.729,213.693 516.719,213.699C516.648,213.74 516.53,213.674 516.458,213.549C516.387,213.423 516.387,213.289 516.458,213.248C516.505,213.22 517.632,212.589 519.188,213.53C520.177,214.126 521.104,215.217 521.948,216.767C522.018,216.892 522.013,217.026 521.937,217.062L521.813,217.047Z" style="fill:rgb(249,250,252);fill-rule:nonzero;"/>
            </g>
            <g transform="matrix(0.855936,0,0,0.855936,-584.7,-383.802)">
                <path d="M523.004,229.673L522.997,229.669C522.898,229.609 522.82,229.473 522.818,229.359L522.8,229.256C522.728,228.868 522.536,227.84 523.161,227.589C523.239,227.558 523.356,227.638 523.422,227.766C523.487,227.894 523.478,228.022 523.4,228.053C522.948,228.232 523.09,228.996 523.159,229.363C523.179,229.465 523.188,229.524 523.187,229.573C523.184,229.686 523.102,229.731 523.004,229.673Z" style="fill:rgb(249,250,252);fill-rule:nonzero;"/>
            </g>
            <g transform="matrix(0.855936,0,0,0.855936,-584.7,-383.802)">
                <path d="M522.758,214.322C522.659,214.263 522.578,214.125 522.576,214.009C522.572,213.889 522.651,213.837 522.753,213.891C523.62,214.359 524.512,214.211 524.827,213.548C525.085,213.01 524.94,212.199 524.412,211.206C523.875,210.195 523.655,209.369 523.757,208.75C523.921,207.75 524.87,207.686 524.909,207.683C524.999,207.678 525.11,207.781 525.16,207.911C525.209,208.043 525.176,208.152 525.086,208.159C525.073,208.16 524.253,208.222 524.12,209.034C524.039,209.531 524.229,210.221 524.689,211.083C525.309,212.251 525.478,213.256 525.168,213.912C524.799,214.686 523.766,214.865 522.766,214.325L522.758,214.322Z" style="fill:rgb(249,250,252);fill-rule:nonzero;"/>
            </g>
            <g transform="matrix(0.855936,0,0,0.855936,-584.7,-383.802)">
                <path d="M525.79,228.276C525.62,228.179 525.396,228.009 525.176,227.72C524.841,227.276 524.628,226.694 524.541,225.995C524.526,225.87 524.594,225.803 524.695,225.843C524.797,225.882 524.89,226.018 524.907,226.142C524.974,226.702 525.132,227.151 525.373,227.471C525.65,227.84 525.958,227.927 525.958,227.927C526.059,227.953 526.16,228.08 526.188,228.208C526.214,228.337 526.158,228.419 526.06,228.396C526.05,228.393 525.945,228.366 525.79,228.276Z" style="fill:rgb(249,250,252);fill-rule:nonzero;"/>
            </g>
            <g transform="matrix(0.855936,0,0,0.855936,-584.7,-383.802)">
                <path d="M519.201,220.931L519.159,220.904C518.773,220.576 518.517,220.213 518.396,219.822C518.24,219.3 518.386,218.89 518.487,218.687C518.137,218.198 517.95,217.762 517.932,217.389C517.912,216.948 518.14,216.726 518.299,216.626C518.012,216.034 517.958,215.528 518.159,215.246C518.33,215.006 518.649,214.992 518.901,215.211C518.999,215.299 519.059,215.45 519.034,215.55C519.008,215.648 518.906,215.659 518.809,215.573C518.747,215.519 518.581,215.499 518.478,215.645C518.396,215.761 518.312,216.056 518.685,216.719L518.737,216.913L518.667,217.024C518.663,217.026 518.279,217.154 518.302,217.58C518.314,217.849 518.491,218.2 518.823,218.625C518.911,218.736 518.94,218.884 518.886,218.954C518.804,219.065 518.614,219.446 518.737,219.853C518.809,220.081 518.978,220.312 519.242,220.535C519.341,220.619 519.404,220.768 519.38,220.871L519.201,220.931Z" style="fill:rgb(249,250,252);fill-rule:nonzero;"/>
            </g>
            <g transform="matrix(0.855936,0,0,0.855936,-584.7,-383.802)">
                <path d="M521.301,220.494L521.254,220.46C521.161,220.376 521.104,220.238 521.12,220.139C521.145,219.939 521.239,219.484 521.578,219.414C521.789,219.369 522.051,219.479 522.354,219.739C522.453,219.825 522.513,219.974 522.489,220.075C522.464,220.175 522.364,220.188 522.265,220.102C522.067,219.932 521.909,219.86 521.787,219.887C521.562,219.933 521.5,220.294 521.485,220.405L521.479,220.438L521.301,220.494Z" style="fill:rgb(249,250,252);fill-rule:nonzero;"/>
            </g>
            <g transform="matrix(0.855936,0,0,0.855936,-584.7,-383.802)">
                <path d="M518.727,211.402L518.718,211.397C518.63,211.341 518.56,211.227 518.544,211.123C518.417,210.462 518.466,209.997 518.677,209.798C518.862,209.629 519.151,209.652 519.542,209.872L519.544,209.872C519.646,209.931 519.727,210.072 519.729,210.189C519.732,210.308 519.65,210.357 519.547,210.3C519.276,210.149 519.081,210.123 518.969,210.226C518.828,210.357 518.804,210.718 518.901,211.215L518.911,211.308C518.906,211.418 518.823,211.459 518.727,211.402Z" style="fill:rgb(249,250,252);fill-rule:nonzero;"/>
            </g>
            <g transform="matrix(0.855936,0,0,0.855936,-584.7,-383.802)">
                <path d="M524.586,223.958L524.456,223.82C524.384,223.696 524.385,223.56 524.457,223.52C524.615,223.429 524.798,223.266 524.766,223.006C524.75,222.881 524.676,222.665 524.411,222.352L524.34,222.251C524.271,222.124 524.281,221.994 524.358,221.963L524.576,222.066C524.985,222.551 525.101,222.924 525.131,223.152C525.176,223.516 525.036,223.789 524.717,223.972L524.586,223.958Z" style="fill:rgb(249,250,252);fill-rule:nonzero;"/>
            </g>
            <g transform="matrix(0.855936,0,0,0.855936,-584.7,-383.802)">
                <path d="M521.826,209.66L521.674,209.565C521.572,209.498 521.495,209.352 521.503,209.239C521.508,209.126 521.597,209.085 521.698,209.155C521.921,209.301 522.215,209.452 522.354,209.342C522.418,209.29 522.482,209.15 522.409,208.772L522.401,208.666C522.414,208.557 522.51,208.529 522.61,208.604C522.692,208.662 522.755,208.773 522.766,208.87C522.877,209.452 522.755,209.685 522.635,209.78C522.468,209.913 522.195,209.872 521.826,209.66Z" style="fill:rgb(249,250,252);fill-rule:nonzero;"/>
            </g>
            <g transform="matrix(0.855936,0,0,0.855936,-584.7,-383.802)">
                <path d="M521.727,225.446L521.69,225.42C520.306,224.298 520.229,222.862 520.229,222.847C520.224,222.727 520.302,222.673 520.405,222.727C520.503,222.78 520.591,222.919 520.598,223.038C520.601,223.085 520.667,224.157 521.763,225.045C521.862,225.126 521.927,225.276 521.908,225.38L521.727,225.446Z" style="fill:rgb(249,250,252);fill-rule:nonzero;"/>
            </g>
            <g transform="matrix(0.855936,0,0,0.855936,-584.7,-383.802)">
                <path d="M476.033,197.478L468.975,193.402C468.852,193.494 468.727,193.587 468.608,193.685C468.179,194.042 467.802,194.461 467.48,194.931L477.484,200.708C477.081,199.641 476.6,198.565 476.033,197.478Z" style="fill:white;fill-rule:nonzero;"/>
            </g>
            <g transform="matrix(0.855936,0,0,0.855936,-584.7,-383.802)">
                <path d="M475.619,222.973C475.394,222.57 475.163,222.171 474.928,221.771L470.093,218.979C469.732,219.169 469.388,219.379 469.055,219.611L475.955,223.597C475.844,223.389 475.733,223.178 475.619,222.973Z" style="fill:white;fill-rule:nonzero;"/>
            </g>
            <g transform="matrix(0.855936,0,0,0.855936,-584.7,-383.802)">
                <path d="M477.484,226.971C477.335,226.576 477.17,226.175 476.999,225.777L467.974,220.565C467.798,220.764 467.633,220.974 467.48,221.194C467.206,221.594 466.976,222.039 466.781,222.518L478.178,229.094C477.982,228.393 477.754,227.686 477.484,226.971Z" style="fill:white;fill-rule:nonzero;"/>
            </g>
            <g transform="matrix(0.855936,0,0,0.855936,-584.7,-383.802)">
                <path d="M478.918,208.032C478.919,207.844 478.915,207.657 478.909,207.473L466.06,200.054C466.05,200.662 466.08,201.305 466.153,201.969C466.181,202.217 466.213,202.468 466.25,202.719L478.744,209.93C478.85,209.336 478.909,208.701 478.918,208.032Z" style="fill:white;fill-rule:nonzero;"/>
            </g>
            <g transform="matrix(0.855936,0,0,0.855936,-584.7,-383.802)">
                <path d="M468.069,208.718C468.482,209.659 468.947,210.619 469.481,211.597L475.53,215.09C476.072,214.747 476.542,214.326 476.96,213.853L468.069,208.718Z" style="fill:white;fill-rule:nonzero;"/>
            </g>
            <g transform="matrix(0.855936,0,0,0.855936,-584.7,-383.802)">
                <path d="M476.962,187.388C477.247,187.062 477.501,186.704 477.729,186.324L467.297,180.301C467.528,180.941 467.779,181.594 468.069,182.257L468.111,182.349L476.92,187.434L476.962,187.388Z" style="fill:white;fill-rule:nonzero;"/>
            </g>
            <g transform="matrix(0.855936,0,0,0.855936,-584.7,-383.802)">
                <path d="M469.579,185.309C469.911,185.902 470.266,186.514 470.642,187.126C471.238,188.089 471.866,189.058 472.488,190.001C473.461,189.646 474.452,189.272 475.33,188.752L475.436,188.689L469.579,185.309Z" style="fill:white;fill-rule:nonzero;"/>
            </g>
            <g transform="matrix(0.855936,0,0,0.855936,-584.7,-383.802)">
                <path d="M466.153,201.969C465.748,198.274 466.621,195.334 468.608,193.685C469.736,192.744 471.124,192.176 472.495,191.657C473.576,193.301 474.662,194.988 475.62,196.707C477.821,200.677 478.962,204.591 478.918,208.032C478.878,211.366 477.637,213.853 475.33,215.214C474.452,215.736 473.461,216.108 472.488,216.466C471.866,215.517 471.238,214.551 470.642,213.59C468.047,209.391 466.536,205.482 466.153,201.969ZM473.449,217.928C474.386,217.585 475.332,217.216 476.196,216.703C478.727,215.203 480.087,212.456 480.135,208.753C480.184,204.946 478.928,200.619 476.505,196.258C475.554,194.544 474.497,192.895 473.451,191.297C474.168,191.02 474.892,190.731 475.579,190.385C478.594,188.851 480.126,185.972 480.126,181.824L478.907,181.12C478.907,184.864 477.507,187.475 474.745,188.879C474.027,189.246 473.254,189.546 472.494,189.834C471.448,188.245 470.39,186.606 469.455,184.945C467.27,181.057 466.067,177.067 466.067,173.71L464.852,173.009C464.852,176.73 466.174,181.138 468.575,185.412C469.504,187.062 470.523,188.652 471.537,190.195C470.182,190.714 468.816,191.297 467.665,192.252C465.463,194.077 464.495,197.348 464.949,201.458C465.369,205.335 467.014,209.61 469.827,214.164C470.381,215.056 470.955,215.941 471.526,216.812C470.34,217.257 469.145,217.747 468.119,218.529C465.822,220.285 464.664,223.383 464.863,227.254L466.077,227.868C465.898,224.381 466.95,221.578 469.04,219.979C470.055,219.204 471.275,218.716 472.487,218.278C473.867,220.383 475.261,222.546 476.388,224.796C478.192,228.396 479.079,232.102 478.893,235.238L480.107,236.028C480.315,232.556 479.328,228.443 477.329,224.456C476.183,222.166 474.813,220.014 473.449,217.928Z" style="fill:white;fill-rule:nonzero;"/>
            </g>
            <g transform="matrix(0.855936,0,0,0.855936,-584.7,-383.802)">
                <path d="M532.414,260.106L531.261,248.319L530.054,255.301L528.381,248.523L526.947,252.247L525.776,248.831L524.24,252.035L522.401,244.168L520.895,253.1L519.554,246.313L513.354,242.734L512.431,239.065L510.882,246.852L508.732,237.19L506.988,242.546L504.76,232.863L502.082,242.528L499.903,233.898L499.134,236.34L497.158,230.407L495.108,235.36L493.521,231.284L491.454,230.09C491.361,230.036 491.329,229.917 491.383,229.824C491.437,229.73 491.556,229.698 491.65,229.752L493.835,231.014L495.119,234.312L497.197,229.291L499.124,235.074L499.945,232.467L502.1,241.003L504.795,231.274L507.053,241.086L508.803,235.711L510.861,244.959L512.387,237.288L513.692,242.478L519.901,246.064L520.865,250.934L522.34,242.188L524.368,250.866L525.836,247.802L526.968,251.105L528.463,247.225L529.987,253.398L531.369,245.408L532.575,257.737L534.303,250.449L535.261,254.931L536.654,255.735C536.747,255.789 536.779,255.908 536.725,256.001C536.672,256.095 536.552,256.128 536.459,256.073L534.915,255.182L534.283,252.224L532.414,260.106Z" style="fill:white;fill-rule:nonzero;"/>
            </g>
            <g transform="matrix(0.855936,0,0,0.855936,-584.7,-383.802)">
                <path d="M535.887,267.633L535.066,265.188L534.088,267.48L532.845,263.736L531.422,264.957L530.196,262.215L528.808,263.954L528.656,263.759C528.53,263.598 527.57,261.477 527.18,260.611L525.71,261.031L524.588,258.876L522.914,261.034L521.577,256.878L520.563,260.651L519.406,256.742L518.339,258.505L517.617,255.256L517.096,258.124L515.417,253.47L514.015,255.569L512.708,252.393L511.342,253.801L509.385,250.295L508.23,251.448L506.694,248.867L505.441,249.326L504.334,247.646L502.612,248.789L500.956,245.363L499.548,247.058L498.349,243.988L497.176,244.905L496.326,242.717L495.336,243.548L494.361,241.742L493.6,243.308L492.418,240.509L491.655,240.985C491.564,241.042 491.443,241.015 491.386,240.923C491.329,240.831 491.357,240.711 491.449,240.654L492.6,239.936L493.625,242.364L494.342,240.887L495.452,242.941L496.492,242.068L497.349,244.274L498.522,243.358L499.67,246.299L501.043,244.647L502.768,248.216L504.444,247.104L505.597,248.853L506.864,248.388L508.309,250.817L509.474,249.654L511.427,253.153L512.843,251.694L514.097,254.743L515.521,252.61L516.971,256.628L517.58,253.283L518.508,257.47L519.529,255.784L520.544,259.215L521.544,255.498L523.059,260.21L524.652,258.155L525.909,260.568L527.398,260.143L527.467,260.297C527.897,261.253 528.56,262.71 528.842,263.285L530.291,261.472L531.565,264.32L533.031,263.061L534.134,266.379L535.11,264.092L536.073,266.96L536.429,266.654L536.704,266.675L536.683,266.95L535.887,267.633Z" style="fill:white;fill-rule:nonzero;"/>
            </g>
            <g transform="matrix(0.855936,0,0,0.855936,-584.7,-383.802)">
                <path d="M498.772,199.027L498.675,199.001L484.719,190.944L475.53,195.982C475.435,196.034 475.317,196 475.265,195.905C475.213,195.81 475.247,195.692 475.342,195.64L484.724,190.496L484.819,190.551L498.87,198.663C498.964,198.716 498.995,198.836 498.941,198.929L498.772,199.027Z" style="fill:white;fill-rule:nonzero;"/>
            </g>
            <g transform="matrix(0.855936,0,0,0.855936,-584.7,-383.802)">
                <path d="M496.814,219.122L496.716,219.096L482.763,211.04L477.058,214.334C476.965,214.388 476.845,214.356 476.792,214.263C476.738,214.169 476.769,214.05 476.863,213.996L482.763,210.589L482.861,210.646L496.912,218.758C497.005,218.812 497.037,218.931 496.983,219.024L496.814,219.122Z" style="fill:white;fill-rule:nonzero;"/>
            </g>
            <g transform="matrix(0.855936,0,0,0.855936,-584.7,-383.802)">
                <path d="M486.313,190.084L499.598,197.754L499.598,193.499L486.313,185.829L486.313,190.084Z" style="fill:white;fill-rule:nonzero;"/>
            </g>
            <g transform="matrix(0.855936,0,0,0.855936,-584.7,-383.802)">
                <path d="M499.972,205.782L513.257,213.452L513.257,209.196L499.972,201.527L499.972,205.782Z" style="fill:white;fill-rule:nonzero;"/>
            </g>
            <g transform="matrix(0.855936,0,0,0.855936,-584.7,-383.802)">
                <path d="M501.745,224.722L515.03,232.392L515.03,228.136L501.745,220.467L501.745,224.722Z" style="fill:white;fill-rule:nonzero;"/>
            </g>
            <g transform="matrix(0.855936,0,0,0.855936,-584.7,-383.802)">
                <path d="M484.355,209.886L497.64,217.556L497.64,213.301L484.355,205.631L484.355,209.886Z" style="fill:white;fill-rule:nonzero;"/>
            </g>
            <g transform="matrix(0.855936,0,0,0.855936,-584.7,-383.802)">
                <path d="M517.112,222.482L516.947,222.391L512.399,215.208L499.098,207.529C499.004,207.475 498.972,207.355 499.026,207.262C499.08,207.168 499.2,207.137 499.293,207.191L512.677,214.918L512.703,214.958L517.276,222.182C517.334,222.273 517.307,222.394 517.216,222.451L517.112,222.482Z" style="fill:white;fill-rule:nonzero;"/>
            </g>
            <g transform="matrix(0.855936,0,0,0.855936,-584.7,-383.802)">
                <path d="M514.294,233.981L514.214,233.934L500.871,226.231C500.778,226.177 500.746,226.058 500.799,225.964C500.854,225.87 500.973,225.839 501.066,225.893L514.328,233.549L521.431,230.763C521.531,230.724 521.645,230.773 521.684,230.874C521.723,230.974 521.674,231.087 521.573,231.127L514.294,233.981Z" style="fill:white;fill-rule:nonzero;"/>
            </g>
            <g transform="matrix(0.855936,0,0,0.855936,-584.7,-383.802)">
                <path d="M458.884,159.679L458.884,231.796L459.36,232.071L544.991,281.51L546.419,282.335L546.419,210.217L545.943,209.942L460.313,160.503L458.884,159.679ZM459.836,161.328L545.467,210.767L545.467,280.685L459.836,231.246L459.836,161.328Z" style="fill:white;fill-rule:nonzero;"/>
            </g>
        </g>
    </g>
    <defs>
        <linearGradient id="_Linear1" x1="0" y1="0" x2="1" y2="0" gradientUnits="userSpaceOnUse" gradientTransform="matrix(14.8173,0,0,14.8173,550.532,239.601)"><stop offset="0" style="stop-color:rgb(79,104,177);stop-opacity:1"/><stop offset="1" style="stop-color:rgb(71,144,205);stop-opacity:1"/></linearGradient>
        <linearGradient id="_Linear2" x1="0" y1="0" x2="1" y2="0" gradientUnits="userSpaceOnUse" gradientTransform="matrix(2.76964,0,0,2.76964,554.327,228.785)"><stop offset="0" style="stop-color:rgb(79,104,177);stop-opacity:1"/><stop offset="1" style="stop-color:rgb(71,144,205);stop-opacity:1"/></linearGradient>
        <linearGradient id="_Linear3" x1="0" y1="0" x2="1" y2="0" gradientUnits="userSpaceOnUse" gradientTransform="matrix(3.63858,0,0,3.63858,557.096,228.801)"><stop offset="0" style="stop-color:rgb(79,104,177);stop-opacity:1"/><stop offset="1" style="stop-color:rgb(71,144,205);stop-opacity:1"/></linearGradient>
        <linearGradient id="_Linear4" x1="0" y1="0" x2="1" y2="0" gradientUnits="userSpaceOnUse" gradientTransform="matrix(-292.883,681.293,-681.293,-292.883,484.567,-189.333)"><stop offset="0" style="stop-color:rgb(122,202,181);stop-opacity:1"/><stop offset="0.8" style="stop-color:rgb(55,191,211);stop-opacity:1"/><stop offset="1" style="stop-color:rgb(59,173,210);stop-opacity:1"/></linearGradient>
        <linearGradient id="_Linear5" x1="0" y1="0" x2="1" y2="0" gradientUnits="userSpaceOnUse" gradientTransform="matrix(-292.883,681.293,-681.293,-292.883,484.567,-189.333)"><stop offset="0" style="stop-color:rgb(130,205,188);stop-opacity:1"/><stop offset="0.8" style="stop-color:rgb(79,197,214);stop-opacity:1"/><stop offset="1" style="stop-color:rgb(80,181,216);stop-opacity:1"/></linearGradient>
        <linearGradient id="_Linear6" x1="0" y1="0" x2="1" y2="0" gradientUnits="userSpaceOnUse" gradientTransform="matrix(-292.883,681.293,-681.293,-292.883,484.567,-189.333)"><stop offset="0" style="stop-color:rgb(130,205,188);stop-opacity:1"/><stop offset="0.8" style="stop-color:rgb(79,197,214);stop-opacity:1"/><stop offset="1" style="stop-color:rgb(80,181,216);stop-opacity:1"/></linearGradient>
        <linearGradient id="_Linear7" x1="0" y1="0" x2="1" y2="0" gradientUnits="userSpaceOnUse" gradientTransform="matrix(-292.883,681.293,-681.293,-292.883,484.567,-189.333)"><stop offset="0" style="stop-color:rgb(130,205,188);stop-opacity:1"/><stop offset="0.8" style="stop-color:rgb(79,197,214);stop-opacity:1"/><stop offset="1" style="stop-color:rgb(80,181,216);stop-opacity:1"/></linearGradient>
    </defs>
</svg>
