<svg width="76" height="76" viewBox="0 0 76 76" fill="none" xmlns="http://www.w3.org/2000/svg">
<circle cx="38" cy="38" r="38" fill="#E4E4E4"/>
<path d="M5 34.94L44.24 57.74L71.85 41.81L32.61 19L5 34.94Z" fill="white"/>
<path d="M38.3499 29.26L32.1799 32.85L24.3599 30.55C26.5399 28.05 31.8099 27.06 36.1299 28.33C36.9061 28.5452 37.652 28.8577 38.3499 29.26Z" fill="#B391FF"/>
<path d="M39.77 29.73C43.92 32.12 43.94 36.01 39.77 38.41C37.4466 39.592 34.8767 40.2082 32.27 40.2082C29.6632 40.2082 27.0933 39.592 24.77 38.41C21.45 36.49 20.67 33.7 22.77 31.28L32.22 34.07L39.77 29.73Z" fill="#05CCFF"/>
<path d="M34.09 46.78C33.75 46.98 33.75 47.3 34.09 47.49C34.2801 47.5882 34.491 47.6395 34.705 47.6395C34.919 47.6395 35.1298 47.5882 35.32 47.49L52.84 37.38C52.9167 37.3575 52.984 37.3107 53.0319 37.2467C53.0798 37.1827 53.1057 37.1049 53.1057 37.025C53.1057 36.9451 53.0798 36.8673 53.0319 36.8033C52.984 36.7393 52.9167 36.6925 52.84 36.67C52.6498 36.5718 52.439 36.5205 52.225 36.5205C52.011 36.5205 51.8001 36.5718 51.61 36.67L34.09 46.78Z" fill="#ADCDFC"/>
<path d="M46.2002 42.13C46.1249 42.1555 46.0595 42.2039 46.0132 42.2685C45.9668 42.333 45.9419 42.4105 45.9419 42.49C45.9419 42.5695 45.9668 42.647 46.0132 42.7116C46.0595 42.7761 46.1249 42.8246 46.2002 42.85C46.3935 42.9438 46.6055 42.9925 46.8202 42.9925C47.035 42.9925 47.247 42.9438 47.4402 42.85L54.8702 38.56C55.2202 38.36 55.2102 38.04 54.8702 37.84C54.6794 37.7441 54.4688 37.6942 54.2552 37.6942C54.0417 37.6942 53.8311 37.7441 53.6402 37.84L46.2002 42.13Z" fill="#D4D9DF"/>
<path d="M43.8902 45.66C43.8135 45.6825 43.7462 45.7293 43.6983 45.7933C43.6504 45.8573 43.6245 45.9351 43.6245 46.015C43.6245 46.0949 43.6504 46.1727 43.6983 46.2367C43.7462 46.3007 43.8135 46.3475 43.8902 46.37C44.0821 46.4683 44.2946 46.5195 44.5102 46.5195C44.7258 46.5195 44.9383 46.4683 45.1302 46.37L56.7602 39.65C57.1002 39.45 57.1102 39.14 56.7602 38.94C56.5701 38.8418 56.3592 38.7905 56.1452 38.7905C55.9312 38.7905 55.7204 38.8418 55.5302 38.94L43.8902 45.66Z" fill="#05CCFF"/>
</svg>
