<?xml version="1.0" encoding="utf-8"?>
<!-- Generator: Adobe Illustrator 24.0.0, SVG Export Plug-In . SVG Version: 6.00 Build 0)  -->
<svg version="1.1" id="Layer_1" xmlns="http://www.w3.org/2000/svg" xmlns:xlink="http://www.w3.org/1999/xlink" x="0px" y="0px"
	 viewBox="0 0 76 76" style="enable-background:new 0 0 76 76;" xml:space="preserve">
<style type="text/css">
	.st0{fill:#FFFFFF;}
	.st1{fill:#B391FF;}
	.st2{fill:#05CCFF;}
	.st3{fill:#ADCDFC;}
	.st4{fill:#D4D9DF;}
</style>
<path class="st0" d="M5,34.9l39.2,22.8l27.6-15.9L32.6,19L5,34.9z"/>
<path class="st1" d="M38.3,29.3l-6.2,3.6l-7.8-2.3c2.2-2.5,7.5-3.5,11.8-2.2C36.9,28.5,37.7,28.9,38.3,29.3z"/>
<path class="st2" d="M39.8,29.7c4.1,2.4,4.2,6.3,0,8.7c-2.3,1.2-4.9,1.8-7.5,1.8c-2.6,0-5.2-0.6-7.5-1.8c-3.3-1.9-4.1-4.7-2-7.1
	l9.5,2.8L39.8,29.7z"/>
<path class="st3" d="M34.1,46.8c-0.3,0.2-0.3,0.5,0,0.7c0.2,0.1,0.4,0.1,0.6,0.1c0.2,0,0.4-0.1,0.6-0.1l17.5-10.1
	c0.1,0,0.1-0.1,0.2-0.1c0-0.1,0.1-0.1,0.1-0.2c0-0.1,0-0.2-0.1-0.2c0-0.1-0.1-0.1-0.2-0.1c-0.2-0.1-0.4-0.1-0.6-0.1
	c-0.2,0-0.4,0.1-0.6,0.1L34.1,46.8z"/>
<path class="st4" d="M46.2,42.1c-0.1,0-0.1,0.1-0.2,0.1c0,0.1-0.1,0.1-0.1,0.2c0,0.1,0,0.2,0.1,0.2c0,0.1,0.1,0.1,0.2,0.1
	c0.2,0.1,0.4,0.1,0.6,0.1c0.2,0,0.4,0,0.6-0.1l7.4-4.3c0.3-0.2,0.3-0.5,0-0.7c-0.2-0.1-0.4-0.1-0.6-0.1c-0.2,0-0.4,0-0.6,0.1
	L46.2,42.1z"/>
<path class="st2" d="M43.9,45.7c-0.1,0-0.1,0.1-0.2,0.1s-0.1,0.1-0.1,0.2s0,0.2,0.1,0.2c0,0.1,0.1,0.1,0.2,0.1
	c0.2,0.1,0.4,0.1,0.6,0.1s0.4-0.1,0.6-0.1l11.6-6.7c0.3-0.2,0.3-0.5,0-0.7c-0.2-0.1-0.4-0.1-0.6-0.1s-0.4,0.1-0.6,0.1L43.9,45.7z"/>
</svg>
