<svg width="76" height="76" viewBox="0 0 76 76" fill="none" xmlns="http://www.w3.org/2000/svg">
<circle cx="38" cy="38" r="38" fill="#E4E4E4"/>
<path d="M16 45.1354L33.0526 35.1402L58.4292 50.017L41.4919 59.8957L16 45.1354Z" fill="#4B7DFF"/>
<path d="M41.4917 59.8957V61L15.9998 46.1817V45.1353L41.4917 59.8957Z" fill="#0021DD"/>
<path d="M58.4292 50.017V51.1571L41.4919 61V59.8957L58.4292 50.017Z" fill="#0017B8"/>
<path d="M26.3273 49.7457L30.1664 47.5179L37.6387 51.9735L33.8767 54.2007L26.3273 49.7457Z" fill="#0E269E"/>
<path d="M31.6094 37.0977L32.7174 36.4442L34.8652 37.6952L33.7798 38.3603L31.6094 37.0977Z" fill="#303033"/>
<path d="M33.7797 38.3603L33.7827 38.5791L34.8677 37.9085L34.8652 37.6952L33.7797 38.3603Z" fill="#0E0E0F"/>
<path d="M31.6093 37.0977L31.6118 37.2883L33.7827 38.5791L33.7797 38.3603L31.6093 37.0977Z" fill="#1C1C1E"/>
<path d="M35.1049 39.1948L36.21 38.5368L38.3628 39.7797L37.2799 40.4489L35.1049 39.1948Z" fill="#303033"/>
<path d="M37.2798 40.4489L37.2833 40.6677L38.3662 39.9931L38.3627 39.7798L37.2798 40.4489Z" fill="#0E0E0F"/>
<path d="M35.1048 39.1948L35.1078 39.3854L37.2832 40.6677L37.2797 40.4489L35.1048 39.1948Z" fill="#1C1C1E"/>
<path d="M37.5171 40.584L38.6226 39.926L40.7749 41.1689L39.692 41.8381L37.5171 40.584Z" fill="#303033"/>
<path d="M39.6924 41.8381L39.6964 42.0569L40.7788 41.3822L40.7753 41.1689L39.6924 41.8381Z" fill="#0E0E0F"/>
<path d="M37.5174 40.584L37.5204 40.7746L39.6963 42.0569L39.6923 41.8381L37.5174 40.584Z" fill="#1C1C1E"/>
<path d="M39.9419 42.01L41.0474 41.3515L43.1997 42.5949L42.1173 43.2636L39.9419 42.01Z" fill="#303033"/>
<path d="M42.1177 43.2636L42.1212 43.4824L43.2036 42.8082L43.2001 42.5949L42.1177 43.2636Z" fill="#0E0E0F"/>
<path d="M39.9422 42.01L39.9452 42.2006L42.1211 43.4824L42.1176 43.2636L39.9422 42.01Z" fill="#1C1C1E"/>
<path d="M42.3584 43.4184L43.4639 42.7603L45.6162 44.0033L44.5333 44.6724L42.3584 43.4184Z" fill="#303033"/>
<path d="M44.5332 44.6725L44.5372 44.8913L45.6196 44.2166L45.6161 44.0033L44.5332 44.6725Z" fill="#0E0E0F"/>
<path d="M42.3582 43.4184L42.3612 43.609L44.5371 44.8913L44.5331 44.6725L42.3582 43.4184Z" fill="#1C1C1E"/>
<path d="M44.8427 44.8515L45.9482 44.1934L48.1011 45.4364L47.0181 46.1055L44.8427 44.8515Z" fill="#303033"/>
<path d="M47.0185 46.1055L47.022 46.3244L48.105 45.6497L48.1015 45.4364L47.0185 46.1055Z" fill="#0E0E0F"/>
<path d="M44.8431 44.8515L44.8466 45.0421L47.022 46.3244L47.0185 46.1055L44.8431 44.8515Z" fill="#1C1C1E"/>
<path d="M47.2807 46.2755L48.3857 45.6174L50.5386 46.8609L49.4556 47.5295L47.2807 46.2755Z" fill="#303033"/>
<path d="M49.4555 47.5295L49.4591 47.7484L50.542 47.0737L50.5385 46.8609L49.4555 47.5295Z" fill="#0E0E0F"/>
<path d="M47.2811 46.2755L47.2841 46.4661L49.4595 47.7484L49.456 47.5295L47.2811 46.2755Z" fill="#1C1C1E"/>
<path d="M49.7265 47.7136L50.832 47.0555L52.9844 48.299L51.9019 48.9677L49.7265 47.7136Z" fill="#303033"/>
<path d="M51.9018 48.9676L51.9054 49.1865L52.9878 48.5118L52.9843 48.299L51.9018 48.9676Z" fill="#0E0E0F"/>
<path d="M49.7264 47.7136L49.7299 47.9047L51.9053 49.1865L51.9018 48.9676L49.7264 47.7136Z" fill="#1C1C1E"/>
<path d="M52.1933 49.1471L53.2988 48.4891L55.4512 49.7321L54.3687 50.4012L52.1933 49.1471Z" fill="#303033"/>
<path d="M54.3686 50.4012L54.3721 50.6201L55.4551 49.9454L55.4511 49.7321L54.3686 50.4012Z" fill="#0E0E0F"/>
<path d="M52.1936 49.1472L52.1972 49.3378L54.3726 50.6201L54.369 50.4012L52.1936 49.1472Z" fill="#1C1C1E"/>
<path d="M29.9687 38.1132L31.0737 37.4547L33.2266 38.6981L32.1436 39.3668L29.9687 38.1132Z" fill="#303033"/>
<path d="M32.1435 39.3668L32.147 39.5856L33.23 38.9109L33.2265 38.6982L32.1435 39.3668Z" fill="#0E0E0F"/>
<path d="M29.969 38.1132L29.9721 38.3038L32.1475 39.5856L32.1439 39.3668L29.969 38.1132Z" fill="#1C1C1E"/>
<path d="M32.3818 39.5024L33.4873 38.8438L35.6396 40.0873L34.5572 40.7565L32.3818 39.5024Z" fill="#303033"/>
<path d="M34.5571 40.7565L34.5606 40.9748L35.6436 40.3006L35.6395 40.0873L34.5571 40.7565Z" fill="#0E0E0F"/>
<path d="M32.3816 39.5024L32.3851 39.693L34.5605 40.9748L34.557 40.7565L32.3816 39.5024Z" fill="#1C1C1E"/>
<path d="M34.8066 40.9279L35.9121 40.2699L38.0649 41.5128L36.982 42.182L34.8066 40.9279Z" fill="#303033"/>
<path d="M36.9819 42.182L36.9854 42.4008L38.0684 41.7261L38.0648 41.5128L36.9819 42.182Z" fill="#0E0E0F"/>
<path d="M34.806 40.9279L34.8095 41.1185L36.9849 42.4008L36.9814 42.182L34.806 40.9279Z" fill="#1C1C1E"/>
<path d="M37.2226 42.3363L38.3281 41.6783L40.4805 42.9217L39.398 43.5904L37.2226 42.3363Z" fill="#303033"/>
<path d="M39.3979 43.5904L39.4015 43.8092L40.4839 43.1345L40.4804 42.9217L39.3979 43.5904Z" fill="#0E0E0F"/>
<path d="M37.2225 42.3363L37.2255 42.5269L39.4014 43.8092L39.3979 43.5903L37.2225 42.3363Z" fill="#1C1C1E"/>
<path d="M39.708 43.7693L40.813 43.1113L42.9658 44.3548L41.8829 45.0234L39.708 43.7693Z" fill="#303033"/>
<path d="M41.8828 45.0234L41.8863 45.2422L42.9692 44.5676L42.9657 44.3548L41.8828 45.0234Z" fill="#0E0E0F"/>
<path d="M39.7078 43.7693L39.7108 43.9605L41.8862 45.2423L41.8827 45.0234L39.7078 43.7693Z" fill="#1C1C1E"/>
<path d="M42.145 45.1939L43.25 44.5358L45.4028 45.7788L44.3199 46.4479L42.145 45.1939Z" fill="#303033"/>
<path d="M44.3198 46.4479L44.3233 46.6663L45.4062 45.9921L45.4027 45.7788L44.3198 46.4479Z" fill="#0E0E0F"/>
<path d="M42.1448 45.1938L42.1478 45.3845L44.3232 46.6663L44.3197 46.4479L42.1448 45.1938Z" fill="#1C1C1E"/>
<path d="M44.5908 46.6319L45.6963 45.9739L47.8491 47.2169L46.7662 47.886L44.5908 46.6319Z" fill="#303033"/>
<path d="M46.7661 47.886L46.7696 48.1049L47.8521 47.4302L47.849 47.2169L46.7661 47.886Z" fill="#0E0E0F"/>
<path d="M44.5911 46.632L44.5946 46.8226L46.77 48.1049L46.7665 47.886L44.5911 46.632Z" fill="#1C1C1E"/>
<path d="M47.0576 48.065L48.1631 47.407L50.3159 48.6505L49.233 49.3191L47.0576 48.065Z" fill="#303033"/>
<path d="M49.2329 49.3191L49.2364 49.538L50.3193 48.8633L50.3158 48.6505L49.2329 49.3191Z" fill="#0E0E0F"/>
<path d="M47.0574 48.0651L47.0609 48.2557L49.2363 49.538L49.2328 49.3191L47.0574 48.0651Z" fill="#1C1C1E"/>
<path d="M49.5707 49.5032L50.6762 48.8451L53.8799 50.7058L52.7969 51.3744L49.5707 49.5032Z" fill="#303033"/>
<path d="M52.7949 51.3734L52.7984 51.5922L53.8813 50.9175L53.8778 50.7043L52.7949 51.3734Z" fill="#0E0E0F"/>
<path d="M49.5706 49.5031L49.5741 49.6938L52.7983 51.5933L52.7958 51.3729L49.5706 49.5031Z" fill="#1C1C1E"/>
<path d="M42.1338 51.2867L43.2393 50.6286L45.3916 51.8716L44.3092 52.5407L42.1338 51.2867Z" fill="#303033"/>
<path d="M44.3091 52.5408L44.3126 52.7596L45.395 52.0849L45.3915 51.8716L44.3091 52.5408Z" fill="#0E0E0F"/>
<path d="M42.1336 51.2867L42.1371 51.4773L44.3125 52.7596L44.309 52.5407L42.1336 51.2867Z" fill="#1C1C1E"/>
<path d="M44.6464 52.7248L45.7519 52.0663L48.9551 53.9269L47.8726 54.5961L44.6464 52.7248Z" fill="#303033"/>
<path d="M47.8706 54.5951L47.8741 54.8139L48.957 54.1392L48.9535 53.9259L47.8706 54.5951Z" fill="#0E0E0F"/>
<path d="M44.6468 52.7248L44.6498 52.9154L47.8745 54.8149L47.872 54.5945L44.6468 52.7248Z" fill="#1C1C1E"/>
<path d="M28.3305 39.161L29.4355 38.503L31.5884 39.746L30.5054 40.4151L28.3305 39.161Z" fill="#303033"/>
<path d="M30.5053 40.4151L30.5089 40.6339L31.5918 39.9592L31.5883 39.7459L30.5053 40.4151Z" fill="#0E0E0F"/>
<path d="M28.3309 39.161L28.3339 39.3516L30.5093 40.6339L30.5058 40.4151L28.3309 39.161Z" fill="#1C1C1E"/>
<path d="M30.7431 40.5502L31.8486 39.8922L34.001 41.1352L32.9185 41.8043L30.7431 40.5502Z" fill="#303033"/>
<path d="M32.9184 41.8043L32.922 42.0231L34.0044 41.3485L34.0009 41.1352L32.9184 41.8043Z" fill="#0E0E0F"/>
<path d="M30.7434 40.5502L30.747 40.7408L32.9224 42.0231L32.9189 41.8043L30.7434 40.5502Z" fill="#1C1C1E"/>
<path d="M24.9497 41.2985L26.0552 40.6405L28.208 41.884L27.1251 42.5526L24.9497 41.2985Z" fill="#303033"/>
<path d="M27.1255 42.5526L27.129 42.7715L28.2119 42.0968L28.2084 41.884L27.1255 42.5526Z" fill="#0E0E0F"/>
<path d="M24.95 41.2986L24.9535 41.4897L27.1289 42.7715L27.1254 42.5526L24.95 41.2986Z" fill="#1C1C1E"/>
<path d="M27.3628 42.6882L28.4683 42.0297L30.6206 43.2732L29.5377 43.9418L27.3628 42.6882Z" fill="#303033"/>
<path d="M29.5381 43.9418L29.5421 44.1606L30.6245 43.486L30.621 43.2732L29.5381 43.9418Z" fill="#0E0E0F"/>
<path d="M27.3631 42.6882L27.3661 42.8788L29.542 44.1606L29.538 43.9418L27.3631 42.6882Z" fill="#1C1C1E"/>
<path d="M26.6583 40.226L27.7638 39.568L32.2671 42.182L31.1842 42.8511L26.6583 40.226Z" fill="#303033"/>
<path d="M31.1841 42.8511L31.1866 43.0695L32.27 42.3953L32.2665 42.182L31.1841 42.8511Z" fill="#0E0E0F"/>
<path d="M26.6581 40.226L26.6612 40.4171L31.1865 43.0694L31.184 42.8506L26.6581 40.226Z" fill="#1C1C1E"/>
<path d="M29.843 44.1521L30.948 43.494L42.8994 50.4068L41.817 51.0759L29.843 44.1521Z" fill="#303033"/>
<path d="M41.8135 51.0764L41.816 51.2952L42.8994 50.6206L42.8959 50.4073L41.8135 51.0764Z" fill="#0E0E0F"/>
<path d="M29.8428 44.1521L29.8458 44.3427L41.8203 51.2952L41.8178 51.0759L29.8428 44.1521Z" fill="#1C1C1E"/>
<path d="M47.9385 50.553L49.0435 49.895L52.2251 51.7602L51.1422 52.4293L47.9385 50.553Z" fill="#303033"/>
<path d="M51.1421 52.4293L51.1456 52.6481L52.228 51.9735L52.2245 51.7602L51.1421 52.4293Z" fill="#0E0E0F"/>
<path d="M47.9383 50.553L47.9413 50.7436L51.1455 52.6477L51.142 52.4293L47.9383 50.553Z" fill="#1C1C1E"/>
<path d="M33.1679 41.9762L34.2734 41.3177L36.4258 42.5612L35.3433 43.2303L33.1679 41.9762Z" fill="#303033"/>
<path d="M35.3433 43.2303L35.3468 43.4487L36.4292 42.774L36.4257 42.5612L35.3433 43.2303Z" fill="#0E0E0F"/>
<path d="M33.1678 41.9763L33.1713 42.1669L35.3467 43.4487L35.3432 43.2303L33.1678 41.9763Z" fill="#1C1C1E"/>
<path d="M35.5839 43.3846L36.6895 42.7266L38.8418 43.9695L37.7594 44.6387L35.5839 43.3846Z" fill="#303033"/>
<path d="M37.7593 44.6387L37.7628 44.8575L38.8452 44.1828L38.8417 43.9695L37.7593 44.6387Z" fill="#0E0E0F"/>
<path d="M35.5843 43.3846L35.5873 43.5752L37.7632 44.8575L37.7597 44.6387L35.5843 43.3846Z" fill="#1C1C1E"/>
<path d="M38.0698 44.8177L39.1748 44.1596L41.3276 45.4026L40.2447 46.0717L38.0698 44.8177Z" fill="#303033"/>
<path d="M40.2446 46.0717L40.2481 46.2906L41.3311 45.6159L41.3275 45.4026L40.2446 46.0717Z" fill="#0E0E0F"/>
<path d="M38.0696 44.8177L38.0726 45.0083L40.248 46.2906L40.2445 46.0718L38.0696 44.8177Z" fill="#1C1C1E"/>
<path d="M40.5068 46.2417L41.6118 45.5836L43.7646 46.8266L42.6817 47.4957L40.5068 46.2417Z" fill="#303033"/>
<path d="M42.6816 47.4957L42.6851 47.7146L43.7681 47.0399L43.7646 46.8266L42.6816 47.4957Z" fill="#0E0E0F"/>
<path d="M40.5066 46.2417L40.5097 46.4323L42.6851 47.7146L42.6815 47.4957L40.5066 46.2417Z" fill="#1C1C1E"/>
<path d="M42.9526 47.6798L44.0581 47.0217L46.2104 48.2652L45.128 48.9338L42.9526 47.6798Z" fill="#303033"/>
<path d="M45.1279 48.9339L45.1314 49.1527L46.2139 48.478L46.2104 48.2652L45.1279 48.9339Z" fill="#0E0E0F"/>
<path d="M42.9529 47.6798L42.9564 47.8709L45.1318 49.1527L45.1283 48.9338L42.9529 47.6798Z" fill="#1C1C1E"/>
<path d="M45.4194 49.1134L46.5249 48.4553L48.6777 49.6983L47.5948 50.3674L45.4194 49.1134Z" fill="#303033"/>
<path d="M47.5947 50.3674L47.5982 50.5863L48.6812 49.9116L48.6776 49.6983L47.5947 50.3674Z" fill="#0E0E0F"/>
<path d="M45.4192 49.1134L45.4227 49.304L47.5981 50.5863L47.5946 50.3674L45.4192 49.1134Z" fill="#1C1C1E"/>
<path d="M46.2837 51.6356L47.3887 50.9776L50.5703 52.8428L49.4874 53.5119L46.2837 51.6356Z" fill="#303033"/>
<path d="M49.4873 53.5119L49.4908 53.7308L50.5732 53.0561L50.5697 52.8433L49.4873 53.5119Z" fill="#0E0E0F"/>
<path d="M46.2835 51.6356L46.2866 51.8262L49.4907 53.7308L49.4872 53.5119L46.2835 51.6356Z" fill="#1C1C1E"/>
<path d="M31.5132 43.0589L32.6187 42.4008L34.771 43.6438L33.6886 44.3129L31.5132 43.0589Z" fill="#303033"/>
<path d="M33.6889 44.3129L33.6924 44.5318L34.7754 43.8571L34.7714 43.6438L33.6889 44.3129Z" fill="#0E0E0F"/>
<path d="M31.5135 43.0589L31.517 43.2495L33.6924 44.5318L33.6889 44.3129L31.5135 43.0589Z" fill="#1C1C1E"/>
<path d="M33.9292 44.4672L35.0347 43.8092L37.187 45.0527L36.1046 45.7213L33.9292 44.4672Z" fill="#303033"/>
<path d="M36.105 45.7213L36.1085 45.9401L37.1909 45.2655L37.1874 45.0527L36.105 45.7213Z" fill="#0E0E0F"/>
<path d="M33.9295 44.4672L33.933 44.6578L36.1084 45.9401L36.1049 45.7213L33.9295 44.4672Z" fill="#1C1C1E"/>
<path d="M36.415 45.9003L37.52 45.2422L39.6729 46.4857L38.5899 47.1544L36.415 45.9003Z" fill="#303033"/>
<path d="M38.5898 47.1544L38.5933 47.3732L39.6763 46.6985L39.6728 46.4857L38.5898 47.1544Z" fill="#0E0E0F"/>
<path d="M36.4148 45.9003L36.4179 46.0914L38.5933 47.3732L38.5898 47.1544L36.4148 45.9003Z" fill="#1C1C1E"/>
<path d="M38.852 47.3248L39.957 46.6663L42.1099 47.9097L41.0269 48.5784L38.852 47.3248Z" fill="#303033"/>
<path d="M41.0273 48.5784L41.0308 48.7972L42.1138 48.123L42.1103 47.9097L41.0273 48.5784Z" fill="#0E0E0F"/>
<path d="M38.8519 47.3248L38.8549 47.5154L41.0303 48.7972L41.0268 48.5784L38.8519 47.3248Z" fill="#1C1C1E"/>
<path d="M41.2978 48.7629L42.4033 48.1049L44.5557 49.3478L43.4732 50.017L41.2978 48.7629Z" fill="#303033"/>
<path d="M43.4731 50.017L43.4766 50.2353L44.5591 49.5611L44.5556 49.3478L43.4731 50.017Z" fill="#0E0E0F"/>
<path d="M41.2981 48.7629L41.3011 48.9535L43.4771 50.2353L43.4735 50.017L41.2981 48.7629Z" fill="#1C1C1E"/>
<path d="M43.7646 50.196L44.8701 49.5379L47.0229 50.7814L45.94 51.45L43.7646 50.196Z" fill="#303033"/>
<path d="M45.9399 51.4501L45.9434 51.6689L47.0264 50.9942L47.0229 50.7814L45.9399 51.4501Z" fill="#0E0E0F"/>
<path d="M43.7644 50.196L43.768 50.3866L45.9434 51.6689L45.9398 51.4501L43.7644 50.196Z" fill="#1C1C1E"/>
<path d="M36.7334 38.322L37.6072 37.8001L53.458 47.0026L52.5903 47.5094L36.7334 38.322Z" fill="#0E269E"/>
<path d="M36.7335 38.322V38.3986L52.5913 47.5905L52.5893 47.5094L36.7335 38.322Z" fill="#9B9B9B"/>
<path d="M53.458 47.0026V47.0863L52.5923 47.5905L52.5903 47.5094L53.458 47.0026Z" fill="#848484"/>
<path d="M33.0466 15.3353V35.1376L58.4292 50.017V30.317L33.0466 15.3353Z" fill="#061433"/>
<path d="M34.1508 17.3851V34.4428L57.2441 47.9032V30.9887L34.1508 17.3851Z" fill="#131314"/>
<path d="M58.4292 50.017C58.4292 50.017 59 49.7795 59 48.8451V29.9681L58.4292 30.317V50.017Z" fill="#0A1C4F"/>
<path d="M59 29.9686L33.653 15L33.0466 15.3353L58.4292 30.317L59 29.9686Z" fill="#0B206D"/>
<path d="M53.2831 28.6555L50.8799 44.1934L57.2441 47.9032V30.9887L53.2831 28.6555Z" fill="#29292B"/>
<path d="M49.542 26.4515L46.9172 41.884L43.2495 39.7459L46.0233 24.379L49.542 26.4515Z" fill="#29292B"/>
<path d="M43.6465 22.9787L41.0211 38.4107L37.3535 36.2732L40.1278 20.9058L43.6465 22.9787Z" fill="#29292B"/>
</svg>
