<?xml version="1.0" encoding="utf-8"?>
<!-- Generator: Adobe Illustrator 24.0.0, SVG Export Plug-In . SVG Version: 6.00 Build 0)  -->
<svg version="1.1" id="Layer_1" xmlns="http://www.w3.org/2000/svg" xmlns:xlink="http://www.w3.org/1999/xlink" x="0px" y="0px"
	 viewBox="0 0 76 76" style="enable-background:new 0 0 76 76;" xml:space="preserve">
<style type="text/css">
	.st0{fill:#4B7DFF;}
	.st1{fill:#0021DD;}
	.st2{fill:#0017B8;}
	.st3{fill:#0E269E;}
	.st4{fill:#303033;}
	.st5{fill:#0E0E0F;}
	.st6{fill:#1C1C1E;}
	.st7{fill:#9B9B9B;}
	.st8{fill:#848484;}
	.st9{fill:#061433;}
	.st10{fill:#131314;}
	.st11{fill:#0A1C4F;}
	.st12{fill:#0B206D;}
	.st13{fill:#29292B;}
</style>
<path class="st0" d="M16,45.1l17.1-10L58.4,50l-16.9,9.9L16,45.1z"/>
<path class="st1" d="M41.5,59.9V61L16,46.2v-1L41.5,59.9z"/>
<path class="st2" d="M58.4,50v1.1L41.5,61v-1.1L58.4,50z"/>
<path class="st3" d="M26.3,49.7l3.8-2.2l7.5,4.5l-3.8,2.2L26.3,49.7z"/>
<path class="st4" d="M31.6,37.1l1.1-0.7l2.1,1.3l-1.1,0.7L31.6,37.1z"/>
<path class="st5" d="M33.8,38.4l0,0.2l1.1-0.7l0-0.2L33.8,38.4z"/>
<path class="st6" d="M31.6,37.1l0,0.2l2.2,1.3l0-0.2L31.6,37.1z"/>
<path class="st4" d="M35.1,39.2l1.1-0.7l2.2,1.2l-1.1,0.7L35.1,39.2z"/>
<path class="st5" d="M37.3,40.4l0,0.2l1.1-0.7l0-0.2L37.3,40.4z"/>
<path class="st6" d="M35.1,39.2l0,0.2l2.2,1.3l0-0.2L35.1,39.2z"/>
<path class="st4" d="M37.5,40.6l1.1-0.7l2.2,1.2l-1.1,0.7L37.5,40.6z"/>
<path class="st5" d="M39.7,41.8l0,0.2l1.1-0.7l0-0.2L39.7,41.8z"/>
<path class="st6" d="M37.5,40.6l0,0.2l2.2,1.3l0-0.2L37.5,40.6z"/>
<path class="st4" d="M39.9,42l1.1-0.7l2.2,1.2l-1.1,0.7L39.9,42z"/>
<path class="st5" d="M42.1,43.3l0,0.2l1.1-0.7l0-0.2L42.1,43.3z"/>
<path class="st6" d="M39.9,42l0,0.2l2.2,1.3l0-0.2L39.9,42z"/>
<path class="st4" d="M42.4,43.4l1.1-0.7l2.2,1.2l-1.1,0.7L42.4,43.4z"/>
<path class="st5" d="M44.5,44.7l0,0.2l1.1-0.7l0-0.2L44.5,44.7z"/>
<path class="st6" d="M42.4,43.4l0,0.2l2.2,1.3l0-0.2L42.4,43.4z"/>
<path class="st4" d="M44.8,44.9l1.1-0.7l2.2,1.2L47,46.1L44.8,44.9z"/>
<path class="st5" d="M47,46.1l0,0.2l1.1-0.7l0-0.2L47,46.1z"/>
<path class="st6" d="M44.8,44.9l0,0.2l2.2,1.3l0-0.2L44.8,44.9z"/>
<path class="st4" d="M47.3,46.3l1.1-0.7l2.2,1.2l-1.1,0.7L47.3,46.3z"/>
<path class="st5" d="M49.5,47.5l0,0.2l1.1-0.7l0-0.2L49.5,47.5z"/>
<path class="st6" d="M47.3,46.3l0,0.2l2.2,1.3l0-0.2L47.3,46.3z"/>
<path class="st4" d="M49.7,47.7l1.1-0.7l2.2,1.2L51.9,49L49.7,47.7z"/>
<path class="st5" d="M51.9,49l0,0.2l1.1-0.7l0-0.2L51.9,49z"/>
<path class="st6" d="M49.7,47.7l0,0.2l2.2,1.3l0-0.2L49.7,47.7z"/>
<path class="st4" d="M52.2,49.1l1.1-0.7l2.2,1.2l-1.1,0.7L52.2,49.1z"/>
<path class="st5" d="M54.4,50.4l0,0.2l1.1-0.7l0-0.2L54.4,50.4z"/>
<path class="st6" d="M52.2,49.1l0,0.2l2.2,1.3l0-0.2L52.2,49.1z"/>
<path class="st4" d="M30,38.1l1.1-0.7l2.2,1.2l-1.1,0.7L30,38.1z"/>
<path class="st5" d="M32.1,39.4l0,0.2l1.1-0.7l0-0.2L32.1,39.4z"/>
<path class="st6" d="M30,38.1l0,0.2l2.2,1.3l0-0.2L30,38.1z"/>
<path class="st4" d="M32.4,39.5l1.1-0.7l2.2,1.2l-1.1,0.7L32.4,39.5z"/>
<path class="st5" d="M34.6,40.8l0,0.2l1.1-0.7l0-0.2L34.6,40.8z"/>
<path class="st6" d="M32.4,39.5l0,0.2l2.2,1.3l0-0.2L32.4,39.5z"/>
<path class="st4" d="M34.8,40.9l1.1-0.7l2.2,1.2L37,42.2L34.8,40.9z"/>
<path class="st5" d="M37,42.2l0,0.2l1.1-0.7l0-0.2L37,42.2z"/>
<path class="st6" d="M34.8,40.9l0,0.2l2.2,1.3l0-0.2L34.8,40.9z"/>
<path class="st4" d="M37.2,42.3l1.1-0.7l2.2,1.2l-1.1,0.7L37.2,42.3z"/>
<path class="st5" d="M39.4,43.6l0,0.2l1.1-0.7l0-0.2L39.4,43.6z"/>
<path class="st6" d="M37.2,42.3l0,0.2l2.2,1.3l0-0.2L37.2,42.3z"/>
<path class="st4" d="M39.7,43.8l1.1-0.7l2.2,1.2L41.9,45L39.7,43.8z"/>
<path class="st5" d="M41.9,45l0,0.2l1.1-0.7l0-0.2L41.9,45z"/>
<path class="st6" d="M39.7,43.8l0,0.2l2.2,1.3l0-0.2L39.7,43.8z"/>
<path class="st4" d="M42.1,45.2l1.1-0.7l2.2,1.2l-1.1,0.7L42.1,45.2z"/>
<path class="st5" d="M44.3,46.4l0,0.2l1.1-0.7l0-0.2L44.3,46.4z"/>
<path class="st6" d="M42.1,45.2l0,0.2l2.2,1.3l0-0.2L42.1,45.2z"/>
<path class="st4" d="M44.6,46.6l1.1-0.7l2.2,1.2l-1.1,0.7L44.6,46.6z"/>
<path class="st5" d="M46.8,47.9l0,0.2l1.1-0.7l0-0.2L46.8,47.9z"/>
<path class="st6" d="M44.6,46.6l0,0.2l2.2,1.3l0-0.2L44.6,46.6z"/>
<path class="st4" d="M47.1,48.1l1.1-0.7l2.2,1.2l-1.1,0.7L47.1,48.1z"/>
<path class="st5" d="M49.2,49.3l0,0.2l1.1-0.7l0-0.2L49.2,49.3z"/>
<path class="st6" d="M47.1,48.1l0,0.2l2.2,1.3l0-0.2L47.1,48.1z"/>
<path class="st4" d="M49.6,49.5l1.1-0.7l3.2,1.9l-1.1,0.7L49.6,49.5z"/>
<path class="st5" d="M52.8,51.4l0,0.2l1.1-0.7l0-0.2L52.8,51.4z"/>
<path class="st6" d="M49.6,49.5l0,0.2l3.2,1.9l0-0.2L49.6,49.5z"/>
<path class="st4" d="M42.1,51.3l1.1-0.7l2.2,1.2l-1.1,0.7L42.1,51.3z"/>
<path class="st5" d="M44.3,52.5l0,0.2l1.1-0.7l0-0.2L44.3,52.5z"/>
<path class="st6" d="M42.1,51.3l0,0.2l2.2,1.3l0-0.2L42.1,51.3z"/>
<path class="st4" d="M44.6,52.7l1.1-0.7l3.2,1.9l-1.1,0.7L44.6,52.7z"/>
<path class="st5" d="M47.9,54.6l0,0.2l1.1-0.7l0-0.2L47.9,54.6z"/>
<path class="st6" d="M44.6,52.7l0,0.2l3.2,1.9l0-0.2L44.6,52.7z"/>
<path class="st4" d="M28.3,39.2l1.1-0.7l2.2,1.2l-1.1,0.7L28.3,39.2z"/>
<path class="st5" d="M30.5,40.4l0,0.2l1.1-0.7l0-0.2L30.5,40.4z"/>
<path class="st6" d="M28.3,39.2l0,0.2l2.2,1.3l0-0.2L28.3,39.2z"/>
<path class="st4" d="M30.7,40.6l1.1-0.7l2.2,1.2l-1.1,0.7L30.7,40.6z"/>
<path class="st5" d="M32.9,41.8l0,0.2l1.1-0.7l0-0.2L32.9,41.8z"/>
<path class="st6" d="M30.7,40.6l0,0.2l2.2,1.3l0-0.2L30.7,40.6z"/>
<path class="st4" d="M24.9,41.3l1.1-0.7l2.2,1.2l-1.1,0.7L24.9,41.3z"/>
<path class="st5" d="M27.1,42.6l0,0.2l1.1-0.7l0-0.2L27.1,42.6z"/>
<path class="st6" d="M25,41.3l0,0.2l2.2,1.3l0-0.2L25,41.3z"/>
<path class="st4" d="M27.4,42.7l1.1-0.7l2.2,1.2l-1.1,0.7L27.4,42.7z"/>
<path class="st5" d="M29.5,43.9l0,0.2l1.1-0.7l0-0.2L29.5,43.9z"/>
<path class="st6" d="M27.4,42.7l0,0.2l2.2,1.3l0-0.2L27.4,42.7z"/>
<path class="st4" d="M26.7,40.2l1.1-0.7l4.5,2.6l-1.1,0.7L26.7,40.2z"/>
<path class="st5" d="M31.2,42.9l0,0.2l1.1-0.7l0-0.2L31.2,42.9z"/>
<path class="st6" d="M26.7,40.2l0,0.2l4.5,2.7l0-0.2L26.7,40.2z"/>
<path class="st4" d="M29.8,44.2l1.1-0.7l12,6.9l-1.1,0.7L29.8,44.2z"/>
<path class="st5" d="M41.8,51.1l0,0.2l1.1-0.7l0-0.2L41.8,51.1z"/>
<path class="st6" d="M29.8,44.2l0,0.2l12,7l0-0.2L29.8,44.2z"/>
<path class="st4" d="M47.9,50.6l1.1-0.7l3.2,1.9l-1.1,0.7L47.9,50.6z"/>
<path class="st5" d="M51.1,52.4l0,0.2l1.1-0.7l0-0.2L51.1,52.4z"/>
<path class="st6" d="M47.9,50.6l0,0.2l3.2,1.9l0-0.2L47.9,50.6z"/>
<path class="st4" d="M33.2,42l1.1-0.7l2.2,1.2l-1.1,0.7L33.2,42z"/>
<path class="st5" d="M35.3,43.2l0,0.2l1.1-0.7l0-0.2L35.3,43.2z"/>
<path class="st6" d="M33.2,42l0,0.2l2.2,1.3l0-0.2L33.2,42z"/>
<path class="st4" d="M35.6,43.4l1.1-0.7l2.2,1.2l-1.1,0.7L35.6,43.4z"/>
<path class="st5" d="M37.8,44.6l0,0.2l1.1-0.7l0-0.2L37.8,44.6z"/>
<path class="st6" d="M35.6,43.4l0,0.2l2.2,1.3l0-0.2L35.6,43.4z"/>
<path class="st4" d="M38.1,44.8l1.1-0.7l2.2,1.2l-1.1,0.7L38.1,44.8z"/>
<path class="st5" d="M40.2,46.1l0,0.2l1.1-0.7l0-0.2L40.2,46.1z"/>
<path class="st6" d="M38.1,44.8l0,0.2l2.2,1.3l0-0.2L38.1,44.8z"/>
<path class="st4" d="M40.5,46.2l1.1-0.7l2.2,1.2l-1.1,0.7L40.5,46.2z"/>
<path class="st5" d="M42.7,47.5l0,0.2l1.1-0.7l0-0.2L42.7,47.5z"/>
<path class="st6" d="M40.5,46.2l0,0.2l2.2,1.3l0-0.2L40.5,46.2z"/>
<path class="st4" d="M43,47.7l1.1-0.7l2.2,1.2l-1.1,0.7L43,47.7z"/>
<path class="st5" d="M45.1,48.9l0,0.2l1.1-0.7l0-0.2L45.1,48.9z"/>
<path class="st6" d="M43,47.7l0,0.2l2.2,1.3l0-0.2L43,47.7z"/>
<path class="st4" d="M45.4,49.1l1.1-0.7l2.2,1.2l-1.1,0.7L45.4,49.1z"/>
<path class="st5" d="M47.6,50.4l0,0.2l1.1-0.7l0-0.2L47.6,50.4z"/>
<path class="st6" d="M45.4,49.1l0,0.2l2.2,1.3l0-0.2L45.4,49.1z"/>
<path class="st4" d="M46.3,51.6l1.1-0.7l3.2,1.9l-1.1,0.7L46.3,51.6z"/>
<path class="st5" d="M49.5,53.5l0,0.2l1.1-0.7l0-0.2L49.5,53.5z"/>
<path class="st6" d="M46.3,51.6l0,0.2l3.2,1.9l0-0.2L46.3,51.6z"/>
<path class="st4" d="M31.5,43.1l1.1-0.7l2.2,1.2l-1.1,0.7L31.5,43.1z"/>
<path class="st5" d="M33.7,44.3l0,0.2l1.1-0.7l0-0.2L33.7,44.3z"/>
<path class="st6" d="M31.5,43.1l0,0.2l2.2,1.3l0-0.2L31.5,43.1z"/>
<path class="st4" d="M33.9,44.5l1.1-0.7l2.2,1.2l-1.1,0.7L33.9,44.5z"/>
<path class="st5" d="M36.1,45.7l0,0.2l1.1-0.7l0-0.2L36.1,45.7z"/>
<path class="st6" d="M33.9,44.5l0,0.2l2.2,1.3l0-0.2L33.9,44.5z"/>
<path class="st4" d="M36.4,45.9l1.1-0.7l2.2,1.2l-1.1,0.7L36.4,45.9z"/>
<path class="st5" d="M38.6,47.2l0,0.2l1.1-0.7l0-0.2L38.6,47.2z"/>
<path class="st6" d="M36.4,45.9l0,0.2l2.2,1.3l0-0.2L36.4,45.9z"/>
<path class="st4" d="M38.9,47.3l1.1-0.7l2.2,1.2L41,48.6L38.9,47.3z"/>
<path class="st5" d="M41,48.6l0,0.2l1.1-0.7l0-0.2L41,48.6z"/>
<path class="st6" d="M38.9,47.3l0,0.2l2.2,1.3l0-0.2L38.9,47.3z"/>
<path class="st4" d="M41.3,48.8l1.1-0.7l2.2,1.2L43.5,50L41.3,48.8z"/>
<path class="st5" d="M43.5,50l0,0.2l1.1-0.7l0-0.2L43.5,50z"/>
<path class="st6" d="M41.3,48.8l0,0.2l2.2,1.3l0-0.2L41.3,48.8z"/>
<path class="st4" d="M43.8,50.2l1.1-0.7l2.2,1.2l-1.1,0.7L43.8,50.2z"/>
<path class="st5" d="M45.9,51.5l0,0.2L47,51l0-0.2L45.9,51.5z"/>
<path class="st6" d="M43.8,50.2l0,0.2l2.2,1.3l0-0.2L43.8,50.2z"/>
<path class="st3" d="M36.7,38.3l0.9-0.5L53.5,47l-0.9,0.5L36.7,38.3z"/>
<path class="st7" d="M36.7,38.3L36.7,38.3l15.9,9.3l0-0.1L36.7,38.3z"/>
<path class="st8" d="M53.5,47L53.5,47l-0.9,0.6l0-0.1L53.5,47z"/>
<path class="st9" d="M33,15.3v19.8L58.4,50V30.3L33,15.3z"/>
<path class="st10" d="M34.2,17.4v17.1l23.1,13.5V31L34.2,17.4z"/>
<path class="st11" d="M58.4,50c0,0,0.6-0.2,0.6-1.2V30l-0.6,0.3V50z"/>
<path class="st12" d="M59,30L33.7,15L33,15.3l25.4,15L59,30z"/>
<path class="st13" d="M53.3,28.7l-2.4,15.5l6.4,3.7V31L53.3,28.7z"/>
<path class="st13" d="M49.5,26.5l-2.6,15.4l-3.7-2.1L46,24.4L49.5,26.5z"/>
<path class="st13" d="M43.6,23L41,38.4l-3.7-2.1l2.8-15.4L43.6,23z"/>
</svg>
