<?xml version="1.0" encoding="UTF-8" standalone="no"?>
<!DOCTYPE svg PUBLIC "-//W3C//DTD SVG 1.1//EN" "http://www.w3.org/Graphics/SVG/1.1/DTD/svg11.dtd">
<svg width="100%" height="100%" viewBox="0 0 76 76" version="1.1" xmlns="http://www.w3.org/2000/svg" xmlns:xlink="http://www.w3.org/1999/xlink" xml:space="preserve" xmlns:serif="http://www.serif.com/" style="fill-rule:evenodd;clip-rule:evenodd;stroke-linejoin:round;stroke-miterlimit:2;">
    <g transform="matrix(0.183607,0,0,0.183607,-15.366,-1.5746)">
        <g>
            <g transform="matrix(1,0,0,1,-60.0043,-23.1267)">
                <path d="M277.973,351.027L169.491,288.207C165.928,286.142 164.267,283.36 164.385,280.466L164.361,280.474L164.405,264.732L170.438,271.8C170.829,271.541 171.223,271.284 171.652,271.037L393.57,143.323C402.38,138.253 415.698,137.719 423.316,142.131L530.274,204.069C532.438,201.699 536.977,196.694 536.977,196.694L536.926,212.092L536.923,212.089C537.083,215.56 534.613,219.258 529.638,222.121L307.719,349.836C298.908,354.906 285.591,355.439 277.973,351.027Z" style="fill:rgb(56,109,171);fill-rule:nonzero;"/>
            </g>
            <g transform="matrix(1,0,0,1,-60.0043,-23.1267)">
                <path d="M219.313,312.488L225.561,316.096C226.39,316.575 227.063,316.066 227.063,314.96C227.063,313.853 226.39,312.568 225.561,312.089L219.313,308.482C218.483,308.003 217.81,308.512 217.81,309.618C217.81,310.724 218.483,312.01 219.313,312.488Z" style="fill:rgb(31,62,121);fill-rule:nonzero;"/>
            </g>
            <g transform="matrix(1,0,0,1,-60.0043,-23.1267)">
                <path d="M393.57,143.323C402.38,138.252 415.698,137.719 423.316,142.131L530.274,204.069C532.438,201.699 536.977,196.694 536.977,196.694L536.926,212.092L536.923,212.089C537.083,215.56 534.613,219.258 529.638,222.121L307.719,349.836C303.122,352.48 297.302,353.879 291.702,353.996L291.913,201.826L393.57,143.323Z" style="fill:rgb(85,147,206);fill-rule:nonzero;"/>
            </g>
            <g transform="matrix(1,0,0,1,-60.0043,-23.1267)">
                <path d="M531.842,189.125L423.362,126.305C415.743,121.892 402.426,122.427 393.615,127.497L171.697,255.211C162.886,260.281 161.919,267.969 169.537,272.381L278.019,335.201C285.636,339.613 298.954,339.08 307.765,334.01L529.683,206.295C538.493,201.225 539.46,193.537 531.842,189.125Z" style="fill:rgb(212,235,250);fill-rule:nonzero;"/>
            </g>
            <g transform="matrix(1,0,0,1,-60.0043,-23.1267)">
                <path d="M277.936,336.881L169.454,274.06C165.527,271.786 163.899,268.639 164.435,265.43C164.627,268.036 166.299,270.506 169.537,272.381L278.019,335.201C285.636,339.613 298.954,339.08 307.765,334.01L529.683,206.295C533.95,203.84 536.359,200.77 536.863,197.757C537.122,201.282 534.665,205.06 529.601,207.975L307.682,335.689C298.871,340.76 285.554,341.294 277.936,336.881Z" style="fill:white;fill-rule:nonzero;"/>
            </g>
            <g transform="matrix(1,0,0,1,-60.0043,-23.1267)">
                <path d="M523.487,191.6L419.248,131.238C413.586,127.959 403.688,128.355 397.139,132.124L178.372,258.024C171.824,261.793 171.106,267.507 176.768,270.786L281.006,331.149C286.668,334.429 296.567,334.032 303.115,330.264L521.882,204.363C528.431,200.594 529.149,194.881 523.487,191.6Z" style="fill:rgb(31,62,121);fill-rule:nonzero;"/>
            </g>
            <g transform="matrix(1,0,0,1,-60.0043,-23.1267)">
                <path d="M307.263,299.798L233.707,257.33L238.403,254.62L311.958,297.088L307.263,299.798Z" style="fill:rgb(212,235,250);fill-rule:nonzero;"/>
            </g>
            <g transform="matrix(1,0,0,1,-60.0043,-23.1267)">
                <path d="M256.084,287.417L218.84,265.914L223.535,263.203L260.78,284.706L256.084,287.417Z" style="fill:rgb(212,235,250);fill-rule:nonzero;"/>
            </g>
            <g transform="matrix(1,0,0,1,-60.0043,-23.1267)">
                <path d="M274.158,297.852L262.079,290.878L266.774,288.168L278.854,295.141L274.158,297.852Z" style="fill:rgb(56,237,178);fill-rule:nonzero;"/>
            </g>
            <g transform="matrix(1,0,0,1,-60.0043,-23.1267)">
                <path d="M292.396,308.382L280.317,301.407L285.011,298.697L297.091,305.671L292.396,308.382Z" style="fill:white;fill-rule:nonzero;"/>
            </g>
            <g transform="matrix(1,0,0,1,-60.0043,-23.1267)">
                <path d="M256.501,279.074L226.274,261.623L230.969,258.912L261.196,276.363L256.501,279.074Z" style="fill:white;fill-rule:nonzero;"/>
            </g>
            <g transform="matrix(1,0,0,1,-60.0043,-23.1267)">
                <path d="M293.399,300.377L263.171,282.925L267.866,280.215L298.094,297.666L293.399,300.377Z" style="fill:rgb(212,235,250);fill-rule:nonzero;"/>
            </g>
            <g transform="matrix(1,0,0,1,-60.0043,-23.1267)">
                <path d="M271.021,263.072C269.508,263.945 267.056,263.945 265.543,263.072C264.031,262.198 264.031,260.783 265.543,259.909C267.055,259.037 269.508,259.037 271.021,259.909C272.532,260.783 272.532,262.198 271.021,263.072Z" style="fill:rgb(56,237,178);fill-rule:nonzero;"/>
            </g>
            <g transform="matrix(1,0,0,1,-60.0043,-23.1267)">
                <path d="M279.204,267.797C277.693,268.671 275.24,268.671 273.728,267.797C272.215,266.924 272.215,265.508 273.727,264.635C275.24,263.762 277.693,263.762 279.204,264.635C280.717,265.508 280.717,266.924 279.204,267.797Z" style="fill:white;fill-rule:nonzero;"/>
            </g>
            <g transform="matrix(1,0,0,1,-60.0043,-23.1267)">
                <path d="M287.389,272.522C285.877,273.395 283.424,273.395 281.911,272.522C280.4,271.649 280.4,270.233 281.911,269.36C283.424,268.486 285.876,268.487 287.389,269.36C288.902,270.233 288.902,271.649 287.389,272.522Z" style="fill:rgb(212,235,250);fill-rule:nonzero;"/>
            </g>
            <g transform="matrix(1,0,0,1,-60.0043,-23.1267)">
                <path d="M295.573,277.248C294.061,278.121 291.609,278.121 290.096,277.248C288.583,276.375 288.583,274.959 290.096,274.085C291.609,273.212 294.061,273.212 295.573,274.085C297.086,274.959 297.086,276.375 295.573,277.248Z" style="fill:rgb(56,237,178);fill-rule:nonzero;"/>
            </g>
            <g transform="matrix(1,0,0,1,-60.0043,-23.1267)">
                <path d="M303.758,281.974C302.245,282.847 299.793,282.847 298.281,281.973C296.768,281.099 296.768,279.683 298.281,278.81C299.793,277.937 302.245,277.937 303.758,278.81C305.271,279.683 305.271,281.099 303.758,281.974Z" style="fill:white;fill-rule:nonzero;"/>
            </g>
            <g transform="matrix(1,0,0,1,-60.0043,-23.1267)">
                <path d="M468.269,192.066L455.884,184.916L460.698,182.137L473.082,189.287L468.269,192.066Z" style="fill:rgb(56,237,178);fill-rule:nonzero;"/>
            </g>
            <g transform="matrix(1,0,0,1,-60.0043,-23.1267)">
                <path d="M485.514,202.022L473.129,194.872L477.943,192.094L490.327,199.243L485.514,202.022Z" style="fill:white;fill-rule:nonzero;"/>
            </g>
            <g transform="matrix(1,0,0,1,-60.0043,-23.1267)">
                <path d="M465.508,199.272L448.262,189.316L453.076,186.537L470.322,196.493L465.508,199.272Z" style="fill:white;fill-rule:nonzero;"/>
            </g>
            <g transform="matrix(1,0,0,1,-60.0043,-23.1267)">
                <path d="M477.892,206.423L470.325,202.054L475.139,199.275L482.706,203.643L477.892,206.423Z" style="fill:rgb(212,235,250);fill-rule:nonzero;"/>
            </g>
            <g transform="matrix(1,0,0,1,-60.0043,-23.1267)">
                <path d="M370.059,190.248L360.927,184.975L363.737,183.352L372.869,188.626L370.059,190.248Z" style="fill:rgb(85,147,206);fill-rule:nonzero;"/>
            </g>
            <g transform="matrix(1,0,0,1,-60.0043,-23.1267)">
                <path d="M399.565,201.604L365.844,182.136L368.654,180.514L402.375,199.982L399.565,201.604Z" style="fill:rgb(85,147,206);fill-rule:nonzero;"/>
            </g>
            <g transform="matrix(1,0,0,1,-60.0043,-23.1267)">
                <path d="M416.425,211.339L403.781,204.038L406.59,202.416L419.236,209.717L416.425,211.339Z" style="fill:rgb(85,147,206);fill-rule:nonzero;"/>
            </g>
            <g transform="matrix(1,0,0,1,-60.0043,-23.1267)">
                <path d="M391.837,202.821L373.572,192.275L376.382,190.653L394.648,201.199L391.837,202.821Z" style="fill:rgb(85,147,206);fill-rule:nonzero;"/>
            </g>
            <g transform="matrix(1,0,0,1,-60.0043,-23.1267)">
                <path d="M422.202,219.856L429.774,224.227L437.344,219.856L429.773,215.486L422.202,219.856ZM429.774,226.843L417.673,219.856L429.773,212.871L441.873,219.856L429.774,226.843Z" style="fill:white;fill-rule:nonzero;"/>
            </g>
            <g transform="matrix(1,0,0,1,-60.0043,-23.1267)">
                <path d="M353.902,199.576L344.769,194.304L347.579,192.682L356.712,197.954L353.902,199.576Z" style="fill:rgb(85,147,206);fill-rule:nonzero;"/>
            </g>
            <g transform="matrix(1,0,0,1,-60.0043,-23.1267)">
                <path d="M364.44,199.171L350.389,191.058L353.199,189.436L367.249,197.549L364.44,199.171Z" style="fill:rgb(85,147,206);fill-rule:nonzero;"/>
            </g>
            <g transform="matrix(1,0,0,1,-60.0043,-23.1267)">
                <path d="M387.622,212.556L368.655,201.604L371.464,199.982L390.433,210.933L387.622,212.556Z" style="fill:rgb(85,147,206);fill-rule:nonzero;"/>
            </g>
            <g transform="matrix(1,0,0,1,-60.0043,-23.1267)">
                <path d="M388.325,219.451L357.414,201.604L360.225,199.982L391.135,217.828L388.325,219.451Z" style="fill:rgb(85,147,206);fill-rule:nonzero;"/>
            </g>
            <g transform="matrix(1,0,0,1,-60.0043,-23.1267)">
                <path d="M406.045,229.185L413.615,233.556L421.187,229.185L413.615,224.814L406.045,229.185ZM413.615,236.171L401.516,229.185L413.615,222.199L425.716,229.185L413.615,236.171Z" style="fill:white;fill-rule:nonzero;"/>
            </g>
            <g transform="matrix(1,0,0,1,-60.0043,-23.1267)">
                <path d="M351.092,215.8L329.314,203.226L332.124,201.604L353.903,214.178L351.092,215.8Z" style="fill:rgb(85,147,206);fill-rule:nonzero;"/>
            </g>
            <g transform="matrix(1,0,0,1,-60.0043,-23.1267)">
                <path d="M344.77,206.472L334.232,200.388L337.041,198.765L347.579,204.849L344.77,206.472Z" style="fill:rgb(85,147,206);fill-rule:nonzero;"/>
            </g>
            <g transform="matrix(1,0,0,1,-60.0043,-23.1267)">
                <path d="M365.845,218.64L348.985,208.905L351.794,207.282L368.655,217.016L365.845,218.64Z" style="fill:rgb(85,147,206);fill-rule:nonzero;"/>
            </g>
            <g transform="matrix(1,0,0,1,-60.0043,-23.1267)">
                <path d="M380.598,227.157L369.358,220.667L372.167,219.045L383.407,225.534L380.598,227.157Z" style="fill:rgb(85,147,206);fill-rule:nonzero;"/>
            </g>
            <g transform="matrix(1,0,0,1,-60.0043,-23.1267)">
                <path d="M372.87,228.374L354.605,217.828L357.414,216.206L375.68,226.751L372.87,228.374Z" style="fill:rgb(85,147,206);fill-rule:nonzero;"/>
            </g>
            <g transform="matrix(1,0,0,1,-60.0043,-23.1267)">
                <path d="M389.888,238.514L397.458,242.885L405.029,238.514L397.458,234.142L389.888,238.514ZM397.458,245.5L385.359,238.514L397.458,231.527L409.558,238.514L397.458,245.5Z" style="fill:white;fill-rule:nonzero;"/>
            </g>
            <g transform="matrix(1,0,0,1,-60.0043,-23.1267)">
                <path d="M322.289,217.828L313.156,212.555L315.967,210.933L325.1,216.205L322.289,217.828Z" style="fill:rgb(85,147,206);fill-rule:nonzero;"/>
            </g>
            <g transform="matrix(1,0,0,1,-60.0043,-23.1267)">
                <path d="M342.662,223.912L318.074,209.716L320.884,208.094L345.472,222.29L342.662,223.912Z" style="fill:rgb(85,147,206);fill-rule:nonzero;"/>
            </g>
            <g transform="matrix(1,0,0,1,-60.0043,-23.1267)">
                <path d="M361.63,234.863L346.175,225.939L348.985,224.317L364.441,233.241L361.63,234.863Z" style="fill:rgb(85,147,206);fill-rule:nonzero;"/>
            </g>
            <g transform="matrix(1,0,0,1,-60.0043,-23.1267)">
                <path d="M373.731,247.842L381.301,252.213L388.871,247.843L381.301,243.472L373.731,247.842ZM381.301,254.828L369.201,247.842L381.301,240.856L393.401,247.843L381.301,254.828Z" style="fill:white;fill-rule:nonzero;"/>
            </g>
            <g transform="matrix(1,0,0,1,-60.0043,-23.1267)">
                <path d="M306.132,227.156L296.999,221.884L299.809,220.261L308.942,225.534L306.132,227.156Z" style="fill:rgb(85,147,206);fill-rule:nonzero;"/>
            </g>
            <g transform="matrix(1,0,0,1,-60.0043,-23.1267)">
                <path d="M322.289,230.807L301.916,219.045L304.727,217.422L325.1,229.184L322.289,230.807Z" style="fill:rgb(85,147,206);fill-rule:nonzero;"/>
            </g>
            <g transform="matrix(1,0,0,1,-60.0043,-23.1267)">
                <path d="M343.365,242.975L327.207,233.646L330.018,232.023L346.175,241.352L343.365,242.975Z" style="fill:rgb(85,147,206);fill-rule:nonzero;"/>
            </g>
            <g transform="matrix(1,0,0,1,-60.0043,-23.1267)">
                <path d="M317.372,233.645L308.942,228.778L311.752,227.156L320.182,232.023L317.372,233.645Z" style="fill:rgb(85,147,206);fill-rule:nonzero;"/>
            </g>
            <g transform="matrix(1,0,0,1,-60.0043,-23.1267)">
                <path d="M357.573,257.171L365.144,261.541L372.714,257.171L365.143,252.8L357.573,257.171ZM365.144,264.156L353.043,257.171L365.143,250.184L377.243,257.171L365.144,264.156Z" style="fill:white;fill-rule:nonzero;"/>
            </g>
            <g transform="matrix(1,0,0,1,-60.0043,-23.1267)">
                <path d="M289.975,236.485L280.842,231.212L283.652,229.59L292.784,234.862L289.975,236.485Z" style="fill:rgb(85,147,206);fill-rule:nonzero;"/>
            </g>
            <g transform="matrix(1,0,0,1,-60.0043,-23.1267)">
                <path d="M307.537,240.946L285.759,228.373L288.57,226.751L310.347,239.324L307.537,240.946Z" style="fill:rgb(85,147,206);fill-rule:nonzero;"/>
            </g>
            <g transform="matrix(1,0,0,1,-60.0043,-23.1267)">
                <path d="M318.075,247.03L311.752,243.38L314.563,241.758L320.885,245.408L318.075,247.03Z" style="fill:rgb(85,147,206);fill-rule:nonzero;"/>
            </g>
            <g transform="matrix(1,0,0,1,-60.0043,-23.1267)">
                <path d="M327.91,252.709L321.588,249.058L324.398,247.436L330.72,251.087L327.91,252.709Z" style="fill:rgb(85,147,206);fill-rule:nonzero;"/>
            </g>
            <g transform="matrix(1,0,0,1,-60.0043,-23.1267)">
                <path d="M301.215,242.975L293.487,238.513L296.297,236.891L304.025,241.352L301.215,242.975Z" style="fill:rgb(85,147,206);fill-rule:nonzero;"/>
            </g>
            <g transform="matrix(1,0,0,1,-60.0043,-23.1267)">
                <path d="M342.118,266.094L349.689,270.465L357.259,266.094L349.689,261.723L342.118,266.094ZM349.689,273.08L337.589,266.094L349.689,259.107L361.788,266.094L349.689,273.08Z" style="fill:white;fill-rule:nonzero;"/>
            </g>
            <g transform="matrix(1,0,0,1,-60.0043,-23.1267)">
                <path d="M352.176,267.389L360.738,267.389C361.976,267.389 362.98,266.808 362.98,266.094C362.98,265.379 361.976,264.8 360.738,264.8L352.176,264.8L352.176,259.856C352.176,259.141 351.172,258.561 349.934,258.561C348.696,258.561 347.692,259.141 347.692,259.856L347.692,264.8L339.131,264.799C337.893,264.8 336.889,265.379 336.889,266.094C336.889,266.808 337.893,267.388 339.13,267.389L347.692,267.389L347.692,272.331C347.693,273.046 348.697,273.626 349.935,273.626C351.172,273.626 352.176,273.046 352.176,272.331L352.176,267.389Z" style="fill:rgb(56,237,178);fill-rule:nonzero;"/>
            </g>
            <g transform="matrix(1,0,0,1,-60.0043,-23.1267)">
                <path d="M384.645,248.73L393.206,248.73C394.445,248.73 395.448,248.151 395.448,247.436C395.448,246.722 394.445,246.141 393.206,246.141L384.645,246.141L384.645,241.199C384.645,240.484 383.641,239.904 382.403,239.904C381.164,239.904 380.16,240.484 380.16,241.199L380.16,246.141L371.6,246.141C370.362,246.141 369.358,246.722 369.358,247.436C369.358,248.151 370.362,248.73 371.6,248.73L380.16,248.73L380.161,253.674C380.161,254.389 381.165,254.968 382.404,254.968C383.641,254.968 384.645,254.389 384.645,253.674L384.645,248.73Z" style="fill:rgb(56,237,178);fill-rule:nonzero;"/>
            </g>
            <g transform="matrix(1,0,0,1,-60.0043,-23.1267)">
                <path d="M400.969,239.227L409.531,239.227C410.769,239.227 411.773,238.648 411.773,237.933C411.773,237.219 410.769,236.639 409.531,236.639L400.969,236.639L400.969,231.696C400.969,230.98 399.965,230.401 398.727,230.401C397.489,230.401 396.485,230.98 396.486,231.695L396.485,236.639L387.924,236.639C386.686,236.639 385.682,237.218 385.682,237.933C385.682,238.647 386.686,239.227 387.924,239.227L396.486,239.227L396.486,244.171C396.486,244.886 397.49,245.465 398.728,245.465C399.966,245.465 400.97,244.886 400.97,244.171L400.969,239.227Z" style="fill:rgb(56,237,178);fill-rule:nonzero;"/>
            </g>
        </g>
    </g>
</svg>
