<?xml version="1.0" encoding="utf-8"?>
<!-- Generator: Adobe Illustrator 24.0.0, SVG Export Plug-In . SVG Version: 6.00 Build 0)  -->
<svg version="1.1" id="Layer_1" xmlns="http://www.w3.org/2000/svg" xmlns:xlink="http://www.w3.org/1999/xlink" x="0px" y="0px"
	 viewBox="0 0 76 76" style="enable-background:new 0 0 76 76;" xml:space="preserve">
<style type="text/css">
	.st0{fill:#E4E4E4;}
	.st1{opacity:0.2;fill:#92B4D1;}
	.st2{fill:#2672AB;}
	.st3{fill:#D1EBFF;}
	.st4{opacity:0.5;fill:#A8CFF0;}
	.st5{fill:#FFFFFF;}
	.st6{fill:#A8CFF0;}
	.st7{fill:#084C94;}
	.st8{fill:#03336E;}
	.st9{fill:#3F92D1;}
	.st10{fill:#F0F8FF;}
	.st11{fill:#0BA19F;}
	.st12{fill:#0FBAB8;}
	.st13{fill:#EB4680;}
</style>
<circle class="st0" cx="38" cy="38" r="38"/>
<g>
	<g>
		<path class="st1" d="M35.3,64.1l-11.7-6.8c-0.7-0.4-0.6-1.1,0.2-1.6l10.3-3.9c0.8-0.5,2-0.5,2.7-0.1l7.9,4.6
			c0.7,0.4,0.6,1.1-0.2,1.6L38.1,64C37.3,64.4,36,64.5,35.3,64.1z"/>
		<path class="st2" d="M35.3,63.4l-11.7-6.8c-0.3-0.2-0.5-0.4-0.5-0.7c0,0,0-0.9,0-0.9c0-0.3,0.2,0.2,0.7,0l10.3-3.9
			c0.8-0.5,2-0.5,2.7-0.1l7.9,4.6c0.2,0.1,0.4-0.4,0.5-0.3c0,0.1,0,0.9,0,0.9c0,0.3-0.2,0.6-0.7,0.9l-6.4,6.1
			C37.3,63.8,36,63.8,35.3,63.4z"/>
		<path class="st3" d="M35.3,62.6l-11.7-6.8c-0.7-0.4-0.6-1.1,0.2-1.6l10.3-3.9c0.8-0.5,2-0.5,2.7-0.1l7.9,4.6
			c0.7,0.4,0.6,1.1-0.2,1.6l-6.4,6.1C37.3,62.9,36,63,35.3,62.6z"/>
		<path class="st4" d="M44.7,54.7l-7.9-4.6c-0.7-0.4-1.9-0.4-2.7,0.1l-5.2,2c0,0,0.1,0.1,0.2,0.1l11.7,6.8c0.2,0.1,0.4,0.2,0.6,0.2
			l3.2-3C45.3,55.9,45.4,55.1,44.7,54.7z"/>
		<path class="st5" d="M44.5,56.2l-6.4,6.1c-0.8,0.5-2,0.5-2.7,0.1l-11.7-6.8c-0.3-0.2-0.4-0.4-0.5-0.6c0,0.3,0.1,0.6,0.5,0.8
			l11.7,6.8c0.7,0.4,1.9,0.4,2.7-0.1l6.4-6.1c0.5-0.3,0.7-0.6,0.7-1C45.1,55.6,44.9,55.9,44.5,56.2z"/>
	</g>
	<g>
		<path class="st6" d="M53.5,62.9L21.7,44.6c-1.6-0.9-2.9-3.5-2.9-5.6V14.7c0-2.2,1.3-3.2,2.9-2.2l31.8,18.4
			c1.6,0.9,2.9,3.5,2.9,5.6v24.3C56.4,62.9,55.1,63.9,53.5,62.9z"/>
		<path class="st7" d="M53.8,61.3L22.5,43.2c-1.3-0.8-2.1-2.5-2.1-4.2V14.5c0-0.4,0.4-0.7,0.8-0.4c0,0,0.1,0,0.1,0.1l31.3,18.1
			c1.6,0.9,2.1,2.5,2.1,4.2v24.4C54.8,61.2,54.3,61.5,53.8,61.3C53.9,61.3,53.9,61.3,53.8,61.3z"/>
		<path class="st8" d="M52.6,32.2L21.3,14.1c0,0-0.1,0-0.1-0.1c-0.3-0.2-0.8,0-0.8,0.4V39c0,1.7,0.8,3.4,2.1,4.2l31.3,18.1
			c0,0,0,0,0.1,0c0.4,0.2,0.8-0.1,0.8-0.5V36.4C54.8,34.7,54.2,33.1,52.6,32.2z M54.4,60.8c0,0.1-0.1,0.2-0.2,0.2c0,0-0.1,0-0.1,0
			L22.7,42.9c-1.2-0.8-2-2.3-2-3.9V14.5c0-0.1,0.1-0.2,0.2-0.2c0,0,0.1,0,0.1,0l31.4,18.2c1.6,0.9,2,2.6,2,3.9V60.8z"/>
		<path class="st9" d="M54.3,30.4L22.5,12c-0.6-0.4-1.2-0.4-1.7-0.3c-0.1,0-0.9,0.5-0.9,0.5c0,0,0,0,0,0c0.5-0.2,1.1-0.2,1.8,0.2
			l31.8,18.4c1.6,0.9,2.9,3.5,2.9,5.6v24.3c0,1.4-0.5,2.2-1.3,2.5c0.1,0,0.1,0,0.3-0.1c0,0,0.9-0.5,1-0.5c0.6-0.4,0.9-1.2,0.9-2.3
			V36C57.2,33.8,55.9,31.3,54.3,30.4z"/>
		<path class="st5" d="M53.6,30.7L21.8,12.4c-0.7-0.4-1.3-0.4-1.8-0.2c0.4-0.1,0.9,0,1.4,0.3l31.8,18.4c1.6,0.9,2.9,3.5,2.9,5.6
			v24.3c0,1.3-0.5,2.1-1.2,2.4c0.9-0.1,1.5-1.1,1.5-2.6V36.4C56.5,34.2,55.2,31.7,53.6,30.7z"/>
	</g>
	<g>
		<path class="st10" d="M24.2,41.9V20.6c0-0.9,0.5-1.3,1.2-0.9l24.5,14.2c0.7,0.4,1.2,1.4,1.2,2.3v21.4L24.2,41.9z"/>
		<path class="st6" d="M51.4,57.3V35.9c0-0.9-0.5-1.9-1.2-2.3L25.7,19.5c-0.3-0.2-0.5-0.2-0.7-0.1c0,0-0.4,0.2-0.4,0.2l0,0
			c0.2-0.1,0.5-0.1,0.7,0.1l24.5,14.2c0.7,0.4,1.2,1.4,1.2,2.3v21.4L51.4,57.3z"/>
		<path class="st11" d="M51.4,37.4v-1.4c0-0.9-0.5-1.9-1.2-2.3L25.7,19.5c-0.3-0.2-0.5-0.2-0.7-0.1c0,0-0.4,0.2-0.4,0.2l0,0
			c0.2-0.1,0.5-0.1,0.7,0.1l24.5,14.2c0.7,0.4,1.2,1.4,1.2,2.3v1.4L51.4,37.4z"/>
		<path class="st12" d="M49.8,33.8L25.4,19.7c-0.7-0.4-1.2,0-1.2,0.9V22L51,37.5v-1.4C51,35.2,50.5,34.2,49.8,33.8z"/>
		<ellipse transform="matrix(0.8633 -0.5047 0.5047 0.8633 -7.8437 17.9627)" class="st10" cx="29.2" cy="23.5" rx="0.4" ry="0.7"/>
		<path class="st10" d="M28.1,22.9c0,0.3-0.2,0.5-0.5,0.3c-0.3-0.2-0.5-0.6-0.5-0.9c0-0.3,0.2-0.5,0.5-0.3
			C27.9,22.1,28.1,22.5,28.1,22.9z"/>
		<path class="st10" d="M26.5,21.9c0,0.3-0.2,0.5-0.5,0.3c-0.3-0.2-0.5-0.6-0.5-0.9c0-0.3,0.2-0.5,0.5-0.3
			C26.3,21.2,26.5,21.6,26.5,21.9z"/>
		<path class="st9" d="M42.8,36.5L40,34.9v0.6l2.8,1.6V36.5z M43.2,37.3l2.1,1.2v-0.6l-2.1-1.2V37.3z M39.6,34.7l-1.4-0.8v0.6
			l1.4,0.8V34.7z M37.8,33.6l-3.2-1.9v0.6l3.2,1.9V33.6z M37.5,31.8l-9.2-5.4v0.9l9.2,5.4V31.8z M34.1,31.5l-3.4-1.9v0.6l3.4,1.9
			V31.5z M30.3,29.3l-2-1.2v0.6l2,1.2V29.3z"/>
		<path class="st9" d="M45.8,48.6l0.7,0.4v-0.6L45.8,48V48.6z M43.8,47.4l1.6,0.9v-0.6l-1.6-0.9V47.4z M38.5,44.4l1.7,1v-0.6l-1.7-1
			V44.4z M36.4,43.2l1.7,1v-0.6l-1.7-1V43.2z M40.6,45.6l2.7,1.6v-0.6L40.6,45V45.6z M31.2,40.1l4.8,2.8v-0.6l-4.8-2.8V40.1z
			 M30.8,39.3l-2.5-1.4v0.6l2.5,1.4V39.3z M37.5,41.6l-9.2-5.4V37l9.2,5.4V41.6z"/>
		<g>
			<path class="st6" d="M30.3,43.7C30.2,43.7,30.2,43.7,30.3,43.7l-2.1-1.2c0,0-0.1-0.1-0.1-0.1v-2.3c0,0,0-0.1,0.1-0.1
				c0,0,0.1,0,0.1,0l2,1.2c0,0,0.1,0.1,0.1,0.1v2.3C30.4,43.6,30.4,43.6,30.3,43.7C30.3,43.7,30.3,43.7,30.3,43.7z M28.4,42.3l1.8,1
				v-2l-1.8-1V42.3z"/>
		</g>
		<g>
			<path class="st6" d="M35.5,46.7C35.5,46.7,35.5,46.7,35.5,46.7l-2.1-1.2c0,0-0.1-0.1-0.1-0.1v-2.3c0,0,0-0.1,0.1-0.1
				c0,0,0.1,0,0.1,0l2,1.2c0,0,0.1,0.1,0.1,0.1v2.3C35.6,46.6,35.6,46.7,35.5,46.7C35.6,46.7,35.5,46.7,35.5,46.7z M33.6,45.4l1.8,1
				v-2l-1.8-1V45.4z"/>
		</g>
		<g>
			<path class="st6" d="M40.5,49.6C40.5,49.6,40.5,49.6,40.5,49.6l-2.1-1.2c0,0-0.1-0.1-0.1-0.1V46c0,0,0-0.1,0.1-0.1
				c0,0,0.1,0,0.1,0l2,1.2c0,0,0.1,0.1,0.1,0.1v2.3C40.6,49.5,40.6,49.6,40.5,49.6C40.6,49.6,40.5,49.6,40.5,49.6z M38.6,48.3l1.8,1
				v-2l-1.8-1V48.3z"/>
		</g>
		<g>
			<path class="st6" d="M30.3,34C30.2,34,30.2,34,30.3,34l-2.1-1.2c0,0-0.1-0.1-0.1-0.1v-2.3c0,0,0-0.1,0.1-0.1c0,0,0.1,0,0.1,0
				l2,1.2c0,0,0.1,0.1,0.1,0.1v2.3C30.4,33.9,30.4,34,30.3,34C30.3,34,30.3,34,30.3,34z M28.4,32.7l1.8,1v-2l-1.8-1V32.7z"/>
		</g>
		<g>
			<path class="st6" d="M35.5,37C35.5,37,35.5,37,35.5,37l-2.1-1.2c0,0-0.1-0.1-0.1-0.1v-2.3c0,0,0-0.1,0.1-0.1c0,0,0.1,0,0.1,0
				l2,1.2c0,0,0.1,0.1,0.1,0.1v2.3C35.6,37,35.6,37,35.5,37C35.6,37,35.5,37,35.5,37z M33.6,35.7l1.8,1v-2l-1.8-1V35.7z"/>
		</g>
		<g>
			<path class="st6" d="M40.5,39.9C40.5,39.9,40.5,39.9,40.5,39.9l-2.1-1.2c0,0-0.1-0.1-0.1-0.1v-2.3c0,0,0-0.1,0.1-0.1
				c0,0,0.1,0,0.1,0l2,1.2c0,0,0.1,0.1,0.1,0.1v2.3C40.6,39.8,40.6,39.9,40.5,39.9C40.6,39.9,40.5,39.9,40.5,39.9z M38.6,38.6l1.8,1
				v-2l-1.8-1V38.6z"/>
		</g>
		<g>
			<path class="st6" d="M45.7,52.6C45.7,52.6,45.7,52.6,45.7,52.6l-2.1-1.2c0,0-0.1-0.1-0.1-0.1V49c0,0,0-0.1,0.1-0.1
				c0,0,0.1,0,0.1,0l2,1.2c0,0,0.1,0.1,0.1,0.1v2.3C45.9,52.5,45.8,52.6,45.7,52.6C45.8,52.6,45.8,52.6,45.7,52.6z M43.9,51.3l1.8,1
				v-2l-1.8-1V51.3z"/>
		</g>
		<g>
			<path class="st6" d="M45.7,42.9C45.7,42.9,45.7,42.9,45.7,42.9l-2.1-1.2c0,0-0.1-0.1-0.1-0.1v-2.3c0,0,0-0.1,0.1-0.1
				c0,0,0.1,0,0.1,0l2,1.2c0,0,0.1,0.1,0.1,0.1v2.3C45.9,42.8,45.8,42.9,45.7,42.9C45.8,42.9,45.8,42.9,45.7,42.9z M43.9,41.6l1.8,1
				v-2l-1.8-1V41.6z"/>
		</g>
		<polygon class="st13" points="33.7,44.4 34.4,45.7 36.2,44.6 35.8,44 34.5,45.3 34.3,44.4 		"/>
		<polygon class="st13" points="28.6,31.8 29.3,33.1 31.1,32 30.7,31.4 29.4,32.7 29.1,31.8 		"/>
	</g>
</g>
</svg>
